<?xml version="1.0" encoding="utf-8"?>
<!-- Generator: Adobe Illustrator 23.0.1, SVG Export Plug-In . SVG Version: 6.00 Build 0)  -->
<svg version="1.1" id="Layer_1" xmlns="http://www.w3.org/2000/svg" xmlns:xlink="http://www.w3.org/1999/xlink" x="0px" y="0px"
	 viewBox="0 0 2665 1200" style="enable-background:new 0 0 2665 1200;" xml:space="preserve">
<style type="text/css">
	.st0{display:none;}
	.st1{display:inline;fill-rule:evenodd;clip-rule:evenodd;fill:#F2F2F2;}
	.st2{filter:url(#Adobe_OpacityMaskFilter);}
	.st3{fill-rule:evenodd;clip-rule:evenodd;fill:#FFFFFF;}
	.st4{mask:url(#mask-2_4_);fill-rule:evenodd;clip-rule:evenodd;fill:#DC2249;}
	.st5{filter:url(#Adobe_OpacityMaskFilter_1_);}
	.st6{mask:url(#mask-2_9_);fill-rule:evenodd;clip-rule:evenodd;fill:#75CBB3;}
	.st7{filter:url(#Adobe_OpacityMaskFilter_2_);}
	.st8{mask:url(#mask-2_11_);fill-rule:evenodd;clip-rule:evenodd;fill:#DC2249;}
</style>
<title>Oreti</title>
<desc>Created with Sketch.</desc>
<g id="Patterns">
	<g id="Oreti">
		<g>
			<g id="Background" class="st0">
				<rect x="1065" class="st1" width="1600" height="1200"/>
			</g>
			<defs>
				<filter id="Adobe_OpacityMaskFilter" filterUnits="userSpaceOnUse" x="747.3" y="820.2" width="184" height="628">
					<feColorMatrix  type="matrix" values="1 0 0 0 0  0 1 0 0 0  0 0 1 0 0  0 0 0 1 0"/>
				</filter>
			</defs>
			<mask maskUnits="userSpaceOnUse" x="747.3" y="820.2" width="184" height="628" id="mask-2_4_">
				<g class="st2">
					<rect id="path-1_4_" x="684.3" y="6.2" class="st3" width="1600" height="1200"/>
				</g>
			</mask>
			<path class="st4" d="M839.3,820.2c50.8,0,92,41.1,92,91.9v444.2c0,50.8-41.2,91.9-92,91.9h-92V912.1
				C747.3,861.3,788.5,820.2,839.3,820.2z"/>
			<defs>
				<filter id="Adobe_OpacityMaskFilter_1_" filterUnits="userSpaceOnUse" x="823.3" y="477" width="32" height="267">
					<feColorMatrix  type="matrix" values="1 0 0 0 0  0 1 0 0 0  0 0 1 0 0  0 0 0 1 0"/>
				</filter>
			</defs>
			<mask maskUnits="userSpaceOnUse" x="823.3" y="477" width="32" height="267" id="mask-2_9_">
				<g class="st5">
					<rect id="path-1_9_" x="685.3" y="-23" class="st3" width="1600" height="1200"/>
				</g>
			</mask>
			<path class="st6" d="M839.3,665.7c-8.8,0-16-7.2-16-16.1c0-8.9,7.2-16.1,16-16.1s16,7.2,16,16.1
				C855.3,658.5,848.1,665.7,839.3,665.7z M839.3,744c-8.8,0-16-7.2-16-16.1s7.2-16.1,16-16.1s16,7.2,16,16.1S848.1,744,839.3,744z
				 M839.3,509.2c-8.8,0-16-7.2-16-16.1s7.2-16.1,16-16.1s16,7.2,16,16.1S848.1,509.2,839.3,509.2z M839.3,587.5
				c-8.8,0-16-7.2-16-16.1c0-8.9,7.2-16.1,16-16.1s16,7.2,16,16.1C855.3,580.3,848.1,587.5,839.3,587.5z"/>
			<defs>
				<filter id="Adobe_OpacityMaskFilter_2_" filterUnits="userSpaceOnUse" x="2408.6" y="945.7" width="158" height="354">
					<feColorMatrix  type="matrix" values="1 0 0 0 0  0 1 0 0 0  0 0 1 0 0  0 0 0 1 0"/>
				</filter>
			</defs>
			<mask maskUnits="userSpaceOnUse" x="2408.6" y="945.7" width="158" height="354" id="mask-2_11_">
				<g class="st7">
					<rect id="path-1_11_" x="1167.6" y="329.7" class="st3" width="1600" height="1200"/>
				</g>
			</mask>
			<path class="st8" d="M2562.1,1111.2c-2.5,0-4.5-2-4.5-4.5s2-4.5,4.5-4.5c2.5,0,4.5,2,4.5,4.5S2564.6,1111.2,2562.1,1111.2z
				 M2562.1,1079.9c-2.5,0-4.5-2-4.5-4.5s2-4.5,4.5-4.5c2.5,0,4.5,2,4.5,4.5S2564.6,1079.9,2562.1,1079.9z M2562.1,1048.6
				c-2.5,0-4.5-2-4.5-4.5c0-2.5,2-4.5,4.5-4.5c2.5,0,4.5,2,4.5,4.5C2566.6,1046.6,2564.6,1048.6,2562.1,1048.6z M2562.1,1017.3
				c-2.5,0-4.5-2-4.5-4.5s2-4.5,4.5-4.5c2.5,0,4.5,2,4.5,4.5S2564.6,1017.3,2562.1,1017.3z M2562.1,986c-2.5,0-4.5-2-4.5-4.5
				c0-2.5,2-4.5,4.5-4.5c2.5,0,4.5,2,4.5,4.5C2566.6,984,2564.6,986,2562.1,986z M2562.1,954.7c-2.5,0-4.5-2-4.5-4.5s2-4.5,4.5-4.5
				c2.5,0,4.5,2,4.5,4.5S2564.6,954.7,2562.1,954.7z M2532.5,1111.2c-2.5,0-4.5-2-4.5-4.5s2-4.5,4.5-4.5c2.5,0,4.5,2,4.5,4.5
				S2535,1111.2,2532.5,1111.2z M2532.5,1079.9c-2.5,0-4.5-2-4.5-4.5s2-4.5,4.5-4.5c2.5,0,4.5,2,4.5,4.5S2535,1079.9,2532.5,1079.9z
				 M2532.5,1048.6c-2.5,0-4.5-2-4.5-4.5c0-2.5,2-4.5,4.5-4.5c2.5,0,4.5,2,4.5,4.5C2537,1046.6,2535,1048.6,2532.5,1048.6z
				 M2532.5,1017.3c-2.5,0-4.5-2-4.5-4.5s2-4.5,4.5-4.5c2.5,0,4.5,2,4.5,4.5S2535,1017.3,2532.5,1017.3z M2532.5,986
				c-2.5,0-4.5-2-4.5-4.5c0-2.5,2-4.5,4.5-4.5c2.5,0,4.5,2,4.5,4.5C2537,984,2535,986,2532.5,986z M2532.5,954.7
				c-2.5,0-4.5-2-4.5-4.5s2-4.5,4.5-4.5c2.5,0,4.5,2,4.5,4.5S2535,954.7,2532.5,954.7z M2503,1111.2c-2.5,0-4.5-2-4.5-4.5
				s2-4.5,4.5-4.5c2.5,0,4.5,2,4.5,4.5S2505.5,1111.2,2503,1111.2z M2503,1079.9c-2.5,0-4.5-2-4.5-4.5s2-4.5,4.5-4.5
				c2.5,0,4.5,2,4.5,4.5S2505.5,1079.9,2503,1079.9z M2503,1048.6c-2.5,0-4.5-2-4.5-4.5c0-2.5,2-4.5,4.5-4.5c2.5,0,4.5,2,4.5,4.5
				C2507.5,1046.6,2505.5,1048.6,2503,1048.6z M2503,1017.3c-2.5,0-4.5-2-4.5-4.5s2-4.5,4.5-4.5c2.5,0,4.5,2,4.5,4.5
				S2505.5,1017.3,2503,1017.3z M2503,986c-2.5,0-4.5-2-4.5-4.5c0-2.5,2-4.5,4.5-4.5c2.5,0,4.5,2,4.5,4.5
				C2507.5,984,2505.5,986,2503,986z M2503,954.7c-2.5,0-4.5-2-4.5-4.5s2-4.5,4.5-4.5c2.5,0,4.5,2,4.5,4.5S2505.5,954.7,2503,954.7z
				 M2472.2,1111.2c-2.5,0-4.5-2-4.5-4.5s2-4.5,4.5-4.5c2.5,0,4.5,2,4.5,4.5S2474.7,1111.2,2472.2,1111.2z M2472.2,1079.9
				c-2.5,0-4.5-2-4.5-4.5s2-4.5,4.5-4.5c2.5,0,4.5,2,4.5,4.5S2474.7,1079.9,2472.2,1079.9z M2472.2,1048.6c-2.5,0-4.5-2-4.5-4.5
				c0-2.5,2-4.5,4.5-4.5c2.5,0,4.5,2,4.5,4.5C2476.7,1046.6,2474.7,1048.6,2472.2,1048.6z M2472.2,1017.3c-2.5,0-4.5-2-4.5-4.5
				s2-4.5,4.5-4.5c2.5,0,4.5,2,4.5,4.5S2474.7,1017.3,2472.2,1017.3z M2472.2,986c-2.5,0-4.5-2-4.5-4.5c0-2.5,2-4.5,4.5-4.5
				c2.5,0,4.5,2,4.5,4.5C2476.7,984,2474.7,986,2472.2,986z M2472.2,954.7c-2.5,0-4.5-2-4.5-4.5s2-4.5,4.5-4.5c2.5,0,4.5,2,4.5,4.5
				S2474.7,954.7,2472.2,954.7z M2442.6,1111.2c-2.5,0-4.5-2-4.5-4.5s2-4.5,4.5-4.5c2.5,0,4.5,2,4.5,4.5
				S2445.1,1111.2,2442.6,1111.2z M2442.6,1079.9c-2.5,0-4.5-2-4.5-4.5s2-4.5,4.5-4.5c2.5,0,4.5,2,4.5,4.5
				S2445.1,1079.9,2442.6,1079.9z M2442.6,1048.6c-2.5,0-4.5-2-4.5-4.5c0-2.5,2-4.5,4.5-4.5c2.5,0,4.5,2,4.5,4.5
				C2447.1,1046.6,2445.1,1048.6,2442.6,1048.6z M2442.6,1017.3c-2.5,0-4.5-2-4.5-4.5s2-4.5,4.5-4.5c2.5,0,4.5,2,4.5,4.5
				S2445.1,1017.3,2442.6,1017.3z M2442.6,986c-2.5,0-4.5-2-4.5-4.5c0-2.5,2-4.5,4.5-4.5c2.5,0,4.5,2,4.5,4.5
				C2447.1,984,2445.1,986,2442.6,986z M2442.6,954.7c-2.5,0-4.5-2-4.5-4.5s2-4.5,4.5-4.5c2.5,0,4.5,2,4.5,4.5
				S2445.1,954.7,2442.6,954.7z M2413.1,1111.2c-2.5,0-4.5-2-4.5-4.5s2-4.5,4.5-4.5c2.5,0,4.5,2,4.5,4.5
				S2415.6,1111.2,2413.1,1111.2z M2413.1,1079.9c-2.5,0-4.5-2-4.5-4.5s2-4.5,4.5-4.5c2.5,0,4.5,2,4.5,4.5
				S2415.6,1079.9,2413.1,1079.9z M2413.1,1048.6c-2.5,0-4.5-2-4.5-4.5c0-2.5,2-4.5,4.5-4.5c2.5,0,4.5,2,4.5,4.5
				C2417.6,1046.6,2415.6,1048.6,2413.1,1048.6z M2413.1,1017.3c-2.5,0-4.5-2-4.5-4.5s2-4.5,4.5-4.5c2.5,0,4.5,2,4.5,4.5
				S2415.6,1017.3,2413.1,1017.3z M2413.1,986c-2.5,0-4.5-2-4.5-4.5c0-2.5,2-4.5,4.5-4.5c2.5,0,4.5,2,4.5,4.5
				C2417.6,984,2415.6,986,2413.1,986z M2413.1,954.7c-2.5,0-4.5-2-4.5-4.5s2-4.5,4.5-4.5c2.5,0,4.5,2,4.5,4.5
				S2415.6,954.7,2413.1,954.7z M2562.1,1299.7c-2.5,0-4.5-2-4.5-4.5s2-4.5,4.5-4.5c2.5,0,4.5,2,4.5,4.5
				S2564.6,1299.7,2562.1,1299.7z M2562.1,1268.4c-2.5,0-4.5-2-4.5-4.5s2-4.5,4.5-4.5c2.5,0,4.5,2,4.5,4.5
				S2564.6,1268.4,2562.1,1268.4z M2562.1,1237.1c-2.5,0-4.5-2-4.5-4.5s2-4.5,4.5-4.5c2.5,0,4.5,2,4.5,4.5
				S2564.6,1237.1,2562.1,1237.1z M2562.1,1205.8c-2.5,0-4.5-2-4.5-4.5s2-4.5,4.5-4.5c2.5,0,4.5,2,4.5,4.5
				S2564.6,1205.8,2562.1,1205.8z M2562.1,1174.5c-2.5,0-4.5-2-4.5-4.5s2-4.5,4.5-4.5c2.5,0,4.5,2,4.5,4.5
				S2564.6,1174.5,2562.1,1174.5z M2562.1,1143.1c-2.5,0-4.5-2-4.5-4.5s2-4.5,4.5-4.5c2.5,0,4.5,2,4.5,4.5
				S2564.6,1143.1,2562.1,1143.1z M2532.5,1299.7c-2.5,0-4.5-2-4.5-4.5s2-4.5,4.5-4.5c2.5,0,4.5,2,4.5,4.5
				S2535,1299.7,2532.5,1299.7z M2532.5,1268.4c-2.5,0-4.5-2-4.5-4.5s2-4.5,4.5-4.5c2.5,0,4.5,2,4.5,4.5S2535,1268.4,2532.5,1268.4z
				 M2532.5,1237.1c-2.5,0-4.5-2-4.5-4.5s2-4.5,4.5-4.5c2.5,0,4.5,2,4.5,4.5S2535,1237.1,2532.5,1237.1z M2532.5,1205.8
				c-2.5,0-4.5-2-4.5-4.5s2-4.5,4.5-4.5c2.5,0,4.5,2,4.5,4.5S2535,1205.8,2532.5,1205.8z M2532.5,1174.5c-2.5,0-4.5-2-4.5-4.5
				s2-4.5,4.5-4.5c2.5,0,4.5,2,4.5,4.5S2535,1174.5,2532.5,1174.5z M2532.5,1143.1c-2.5,0-4.5-2-4.5-4.5s2-4.5,4.5-4.5
				c2.5,0,4.5,2,4.5,4.5S2535,1143.1,2532.5,1143.1z M2503,1299.7c-2.5,0-4.5-2-4.5-4.5s2-4.5,4.5-4.5c2.5,0,4.5,2,4.5,4.5
				S2505.5,1299.7,2503,1299.7z M2503,1268.4c-2.5,0-4.5-2-4.5-4.5s2-4.5,4.5-4.5c2.5,0,4.5,2,4.5,4.5S2505.5,1268.4,2503,1268.4z
				 M2503,1237.1c-2.5,0-4.5-2-4.5-4.5s2-4.5,4.5-4.5c2.5,0,4.5,2,4.5,4.5S2505.5,1237.1,2503,1237.1z M2503,1205.8
				c-2.5,0-4.5-2-4.5-4.5s2-4.5,4.5-4.5c2.5,0,4.5,2,4.5,4.5S2505.5,1205.8,2503,1205.8z M2503,1174.5c-2.5,0-4.5-2-4.5-4.5
				s2-4.5,4.5-4.5c2.5,0,4.5,2,4.5,4.5S2505.5,1174.5,2503,1174.5z M2503,1143.1c-2.5,0-4.5-2-4.5-4.5s2-4.5,4.5-4.5
				c2.5,0,4.5,2,4.5,4.5S2505.5,1143.1,2503,1143.1z M2472.2,1299.7c-2.5,0-4.5-2-4.5-4.5s2-4.5,4.5-4.5c2.5,0,4.5,2,4.5,4.5
				S2474.7,1299.7,2472.2,1299.7z M2472.2,1268.4c-2.5,0-4.5-2-4.5-4.5s2-4.5,4.5-4.5c2.5,0,4.5,2,4.5,4.5
				S2474.7,1268.4,2472.2,1268.4z M2472.2,1237.1c-2.5,0-4.5-2-4.5-4.5s2-4.5,4.5-4.5c2.5,0,4.5,2,4.5,4.5
				S2474.7,1237.1,2472.2,1237.1z M2472.2,1205.8c-2.5,0-4.5-2-4.5-4.5s2-4.5,4.5-4.5c2.5,0,4.5,2,4.5,4.5
				S2474.7,1205.8,2472.2,1205.8z M2472.2,1174.5c-2.5,0-4.5-2-4.5-4.5s2-4.5,4.5-4.5c2.5,0,4.5,2,4.5,4.5
				S2474.7,1174.5,2472.2,1174.5z M2472.2,1143.1c-2.5,0-4.5-2-4.5-4.5s2-4.5,4.5-4.5c2.5,0,4.5,2,4.5,4.5
				S2474.7,1143.1,2472.2,1143.1z M2442.6,1299.7c-2.5,0-4.5-2-4.5-4.5s2-4.5,4.5-4.5c2.5,0,4.5,2,4.5,4.5
				S2445.1,1299.7,2442.6,1299.7z M2442.6,1268.4c-2.5,0-4.5-2-4.5-4.5s2-4.5,4.5-4.5c2.5,0,4.5,2,4.5,4.5
				S2445.1,1268.4,2442.6,1268.4z M2442.6,1237.1c-2.5,0-4.5-2-4.5-4.5s2-4.5,4.5-4.5c2.5,0,4.5,2,4.5,4.5
				S2445.1,1237.1,2442.6,1237.1z M2442.6,1205.8c-2.5,0-4.5-2-4.5-4.5s2-4.5,4.5-4.5c2.5,0,4.5,2,4.5,4.5
				S2445.1,1205.8,2442.6,1205.8z M2442.6,1174.5c-2.5,0-4.5-2-4.5-4.5s2-4.5,4.5-4.5c2.5,0,4.5,2,4.5,4.5
				S2445.1,1174.5,2442.6,1174.5z M2442.6,1143.1c-2.5,0-4.5-2-4.5-4.5s2-4.5,4.5-4.5c2.5,0,4.5,2,4.5,4.5
				S2445.1,1143.1,2442.6,1143.1z M2413.1,1299.7c-2.5,0-4.5-2-4.5-4.5s2-4.5,4.5-4.5c2.5,0,4.5,2,4.5,4.5
				S2415.6,1299.7,2413.1,1299.7z M2413.1,1268.4c-2.5,0-4.5-2-4.5-4.5s2-4.5,4.5-4.5c2.5,0,4.5,2,4.5,4.5
				S2415.6,1268.4,2413.1,1268.4z M2413.1,1237.1c-2.5,0-4.5-2-4.5-4.5s2-4.5,4.5-4.5c2.5,0,4.5,2,4.5,4.5
				S2415.6,1237.1,2413.1,1237.1z M2413.1,1205.8c-2.5,0-4.5-2-4.5-4.5s2-4.5,4.5-4.5c2.5,0,4.5,2,4.5,4.5
				S2415.6,1205.8,2413.1,1205.8z M2413.1,1174.5c-2.5,0-4.5-2-4.5-4.5s2-4.5,4.5-4.5c2.5,0,4.5,2,4.5,4.5
				S2415.6,1174.5,2413.1,1174.5z M2413.1,1143.1c-2.5,0-4.5-2-4.5-4.5s2-4.5,4.5-4.5c2.5,0,4.5,2,4.5,4.5
				S2415.6,1143.1,2413.1,1143.1z"/>
		</g>
	</g>
</g>
</svg>
