<?xml version="1.0" encoding="utf-8"?>
<!-- Generator: Adobe Illustrator 23.0.1, SVG Export Plug-In . SVG Version: 6.00 Build 0)  -->
<svg version="1.1" id="Layer_1" xmlns="http://www.w3.org/2000/svg" xmlns:xlink="http://www.w3.org/1999/xlink" x="0px" y="0px"
	 viewBox="0 0 1543 1200" style="enable-background:new 0 0 1543 1200;" xml:space="preserve">
<style type="text/css">
	.st0{fill:#EFF7F4;}
	.st1{fill:#59BAC3;}
	.st2{fill:#C4E0E4;}
	.st3{fill:#EDD767;}
	.st4{fill:#F2E2A9;}
	.st5{fill:#BCD0C7;}
</style>
<title>Vorderrhein</title>
<desc>Created with Sketch.</desc>
<g id="Patterns">
	<g id="Vorderrhein" transform="translate(-57.000000, 0.000000)">
		<g id="Shape" transform="translate(57.000000, -172.000000)">
			<path class="st0" d="M779.6,349.3c34.4-41.6,97-50.1,144.8-22.5c10.9,6.3,21.1,12.9,29.6,21.9c8.8,9.4,15,20.5,19.5,35.1
				c9.2,29.8,10.5,58-4.2,87.7c-12.1,24.5-39.7,39.6-60.6,47.4c-28.8,10.7-57.2-2.7-75.1-12.1c-12.4-6.5-26.8-15-39.7-25.7
				c-12.8-10.7-25-24.3-31.6-41.4C749.5,406.8,758.8,374.5,779.6,349.3z M907.6,355.9c-35-20.2-79-12.9-101.9,14.8
				c-14.9,18-19.4,37.7-11.9,57c3.9,9.9,11.5,19.1,21.8,27.7c10.2,8.5,22.3,15.7,33.8,21.7c18.7,9.8,34.4,15.2,47.6,10.3
				c18.9-7,36-18.2,42.2-30.7c9.8-19.8,9.7-38.6,2.2-63c-3.2-10.5-7.2-17-11.9-22C924.5,366.4,917.8,361.8,907.6,355.9z"/>
			<path class="st1" d="M701,209.6c36-6.2,68.3,4.1,105.1,24.8c36.1,20.3,50.5,42.9,75,75.2c21.6,28.6,17.2,66.8,16.5,100.2
				c-0.8,38.9-34.2,76-54.9,106.1c-29,42.3-57.4,75-112.8,65c-39-7-107.3-26.8-129.5-61.4c-16.3-25.4-36.6-59.1-44.5-88
				c-17-62.8,17.3-126.2,59.2-170.2C639.6,235.7,665.2,215.8,701,209.6z"/>
			<g transform="translate(258.000000, 60.000000)">
				<path d="M240.1,378.3c-1,0.3-1.7,0.6-2.1,1.1c-0.2,0.2-0.3,0.5-0.3,0.8c0,0.3,0.1,0.8,0.4,1.4L240.1,378.3z M240.1,378.3
					c0.8,0.4,1.3,0.7,1.7,1.3c0.1,0.2,0.2,0.6,0.1,1c-0.1,0.4-0.4,0.7-0.7,0.8l0,0h0c-0.3,0.1-0.6,0.2-0.9,0.3
					c-0.1,0-0.2,0.1-0.3,0.1c-0.4,0.1-0.7,0.2-0.9,0.3c-0.3,0-0.4,0-0.5,0c-0.1-0.1-0.3-0.2-0.4-0.5L240.1,378.3z M240.7,376.7
					c0.9,0.4,1.8,0.9,2.5,2v0l0,0c0.4,0.7,0.5,1.7,0.2,2.4c-0.3,0.8-0.9,1.6-1.8,1.8c-0.2,0.1-0.5,0.2-0.7,0.3
					c-0.1,0-0.2,0.1-0.3,0.1c-0.4,0.1-0.8,0.3-1.3,0.3c-0.5,0.1-1,0.1-1.5-0.2c-0.5-0.2-0.9-0.7-1.2-1.3l0,0
					c-0.4-0.8-0.6-1.5-0.6-2.2c0-0.7,0.3-1.3,0.7-1.8c0.8-0.9,2.1-1.4,3.2-1.7c0.2-0.1,0.4,0,0.6,0.1
					C240.6,376.6,240.7,376.7,240.7,376.7z"/>
				<path d="M273.6,401.2c-1,0.3-1.7,0.6-2.1,1.1c-0.2,0.2-0.3,0.5-0.3,0.8c0,0.3,0.1,0.8,0.4,1.4L273.6,401.2z M273.6,401.2
					c0.8,0.4,1.3,0.7,1.7,1.3c0.1,0.2,0.2,0.6,0,1c-0.1,0.4-0.4,0.7-0.7,0.8l0,0h0c-0.3,0.1-0.6,0.2-0.9,0.3c-0.1,0-0.2,0.1-0.3,0.1
					c-0.4,0.1-0.7,0.2-0.9,0.3c-0.3,0-0.4,0-0.5,0c-0.1-0.1-0.3-0.2-0.4-0.5L273.6,401.2z M274.2,399.6c0.9,0.4,1.8,0.9,2.5,2l0,0
					l0,0c0.4,0.7,0.5,1.7,0.2,2.4c-0.3,0.8-0.9,1.6-1.8,1.8c-0.2,0.1-0.5,0.2-0.7,0.3c-0.1,0-0.2,0.1-0.3,0.1
					c-0.4,0.1-0.8,0.3-1.3,0.3c-0.5,0.1-1,0.1-1.5-0.2c-0.5-0.2-0.9-0.7-1.2-1.3l0,0c-0.4-0.8-0.6-1.5-0.6-2.2
					c0-0.7,0.3-1.3,0.7-1.8c0.8-0.9,2.1-1.4,3.2-1.7c0.2-0.1,0.4,0,0.6,0.1C274.1,399.5,274.1,399.6,274.2,399.6z"/>
				<path d="M249.2,401.9c-1,0.3-1.7,0.6-2.1,1.1c-0.2,0.2-0.3,0.5-0.3,0.8c0,0.3,0.1,0.8,0.4,1.4L249.2,401.9z M249.2,401.9
					c0.8,0.4,1.3,0.7,1.7,1.3c0.1,0.2,0.2,0.6,0,1c-0.1,0.4-0.4,0.7-0.7,0.8l0,0h0c-0.3,0.1-0.6,0.2-0.9,0.3c-0.1,0-0.2,0.1-0.3,0.1
					c-0.4,0.1-0.7,0.2-0.9,0.3c-0.3,0-0.4,0-0.5,0c-0.1-0.1-0.3-0.2-0.4-0.5L249.2,401.9z M249.8,400.4c0.9,0.4,1.8,0.9,2.5,2l0,0
					l0,0c0.4,0.7,0.5,1.7,0.2,2.4c-0.3,0.8-0.9,1.6-1.8,1.8c-0.2,0.1-0.5,0.2-0.7,0.3c-0.1,0-0.2,0.1-0.3,0.1
					c-0.4,0.1-0.8,0.3-1.3,0.3c-0.5,0.1-1,0.1-1.5-0.2c-0.5-0.2-0.9-0.7-1.2-1.3l0,0c-0.4-0.8-0.6-1.5-0.6-2.2
					c0-0.7,0.3-1.3,0.7-1.8c0.8-0.9,2.1-1.4,3.2-1.7c0.2-0.1,0.4,0,0.6,0.1C249.7,400.3,249.8,400.3,249.8,400.4z"/>
				<path d="M210.2,413.1c-1,0.3-1.7,0.6-2.1,1.1c-0.2,0.2-0.3,0.5-0.3,0.8c0,0.3,0.1,0.8,0.4,1.4L210.2,413.1z M210.2,413.1
					c0.8,0.4,1.3,0.7,1.7,1.3c0.1,0.2,0.2,0.6,0.1,1c-0.1,0.4-0.4,0.7-0.7,0.7l0,0l0,0c-0.3,0.1-0.6,0.2-0.9,0.3
					c-0.1,0-0.2,0.1-0.3,0.1c-0.4,0.1-0.7,0.2-0.9,0.3c-0.3,0-0.4,0-0.5,0c-0.1-0.1-0.3-0.2-0.4-0.5L210.2,413.1z M210.8,411.5
					c0.9,0.4,1.8,0.9,2.5,2v0l0,0c0.4,0.7,0.5,1.7,0.2,2.4c-0.3,0.8-0.9,1.6-1.8,1.8c-0.2,0.1-0.5,0.2-0.7,0.3
					c-0.1,0-0.2,0.1-0.3,0.1c-0.4,0.1-0.8,0.3-1.3,0.3c-0.5,0.1-1,0.1-1.5-0.2c-0.5-0.2-0.9-0.7-1.2-1.3v0c-0.4-0.8-0.6-1.5-0.6-2.2
					c0-0.7,0.3-1.3,0.7-1.8c0.8-0.9,2.1-1.4,3.2-1.7c0.2-0.1,0.4,0,0.6,0.1C210.7,411.4,210.7,411.5,210.8,411.5z"/>
				<path d="M180.8,424.1c-1,0.3-1.7,0.6-2.1,1.1c-0.2,0.2-0.3,0.5-0.3,0.8c0,0.3,0.1,0.8,0.4,1.4L180.8,424.1z M180.8,424.1
					c0.8,0.4,1.3,0.7,1.7,1.3c0.1,0.2,0.2,0.6,0.1,1c-0.1,0.4-0.4,0.7-0.7,0.8l0,0l0,0c-0.3,0.1-0.6,0.2-0.9,0.3
					c-0.1,0-0.2,0.1-0.3,0.1c-0.4,0.1-0.7,0.2-0.9,0.3c-0.3,0-0.4,0-0.5,0c-0.1-0.1-0.3-0.2-0.4-0.5L180.8,424.1z M181.4,422.5
					c0.9,0.4,1.8,0.9,2.5,2v0l0,0c0.4,0.7,0.5,1.7,0.2,2.4c-0.3,0.8-0.9,1.6-1.8,1.8c-0.2,0.1-0.5,0.2-0.7,0.3
					c-0.1,0-0.2,0.1-0.3,0.1c-0.4,0.1-0.8,0.3-1.3,0.3c-0.5,0.1-1,0.1-1.5-0.2c-0.5-0.2-0.9-0.7-1.2-1.3l0,0
					c-0.4-0.8-0.6-1.5-0.6-2.2c0-0.7,0.3-1.3,0.7-1.8c0.8-0.9,2.1-1.4,3.2-1.7c0.2-0.1,0.4,0,0.6,0.1
					C181.3,422.5,181.3,422.5,181.4,422.5z"/>
				<path d="M188.8,359.3c-1,0.3-1.7,0.6-2.1,1.1c-0.2,0.2-0.3,0.5-0.3,0.8c0,0.3,0.1,0.8,0.4,1.4L188.8,359.3z M188.8,359.3
					c0.8,0.4,1.3,0.7,1.7,1.3c0.1,0.2,0.2,0.6,0,1c-0.1,0.4-0.4,0.7-0.7,0.7l0,0l0,0c-0.3,0.1-0.6,0.2-0.9,0.3
					c-0.1,0-0.2,0.1-0.3,0.1c-0.4,0.1-0.7,0.2-0.9,0.3c-0.3,0-0.4,0-0.5,0c-0.1-0.1-0.3-0.2-0.4-0.5L188.8,359.3z M189.4,357.7
					c0.9,0.4,1.8,0.9,2.5,2l0,0l0,0c0.4,0.7,0.5,1.7,0.2,2.4c-0.3,0.8-0.9,1.6-1.8,1.8c-0.2,0.1-0.5,0.2-0.7,0.3
					c-0.1,0-0.2,0.1-0.3,0.1c-0.4,0.1-0.8,0.3-1.3,0.3c-0.5,0.1-1,0.1-1.5-0.2c-0.5-0.2-0.9-0.7-1.2-1.3v0c-0.4-0.8-0.6-1.5-0.6-2.2
					c0-0.7,0.3-1.3,0.7-1.8c0.8-0.9,2.1-1.4,3.2-1.7c0.2-0.1,0.4,0,0.6,0.1C189.3,357.7,189.3,357.7,189.4,357.7z"/>
				<path d="M187.3,329.8c-1,0.3-1.7,0.6-2.1,1.1c-0.2,0.2-0.3,0.5-0.3,0.8c0,0.3,0.1,0.8,0.4,1.4L187.3,329.8z M187.3,329.8
					c0.8,0.4,1.3,0.7,1.7,1.3c0.1,0.2,0.2,0.6,0,1c-0.1,0.4-0.4,0.7-0.7,0.8l0,0h0c-0.3,0.1-0.6,0.2-0.9,0.3c-0.1,0-0.2,0.1-0.3,0.1
					c-0.4,0.1-0.7,0.2-0.9,0.3c-0.3,0-0.4,0-0.5,0c-0.1-0.1-0.3-0.2-0.4-0.5L187.3,329.8z M187.9,328.2c0.9,0.4,1.8,0.9,2.5,2l0,0
					l0,0c0.4,0.7,0.5,1.7,0.2,2.4c-0.3,0.8-0.9,1.6-1.8,1.8c-0.2,0.1-0.5,0.2-0.7,0.3c-0.1,0-0.2,0.1-0.3,0.1
					c-0.4,0.1-0.8,0.3-1.3,0.3c-0.5,0.1-1,0.1-1.5-0.2c-0.5-0.2-0.9-0.7-1.2-1.3l0,0c-0.4-0.8-0.6-1.5-0.6-2.2
					c0-0.7,0.3-1.3,0.7-1.8c0.8-0.9,2.1-1.4,3.2-1.7c0.2,0,0.4,0,0.6,0.1C187.8,328.2,187.9,328.2,187.9,328.2z"/>
				<path d="M195.3,268.2c-1,0.3-1.7,0.6-2.1,1.1c-0.2,0.2-0.3,0.5-0.3,0.8c0,0.3,0.1,0.8,0.4,1.4L195.3,268.2z M195.3,268.2
					c0.8,0.4,1.3,0.7,1.7,1.3c0.1,0.2,0.2,0.6,0,1c-0.1,0.4-0.4,0.7-0.7,0.8l0,0h0c-0.3,0.1-0.6,0.2-0.9,0.3c-0.1,0-0.2,0.1-0.3,0.1
					c-0.4,0.1-0.7,0.2-0.9,0.3c-0.3,0-0.4,0-0.5,0c-0.1-0.1-0.3-0.2-0.4-0.5L195.3,268.2z M195.9,266.6c0.9,0.4,1.8,0.9,2.5,2l0,0
					l0,0c0.4,0.7,0.5,1.7,0.2,2.4c-0.3,0.8-0.9,1.6-1.8,1.8c-0.2,0.1-0.5,0.2-0.7,0.3c-0.1,0-0.2,0.1-0.3,0.1
					c-0.4,0.1-0.8,0.3-1.3,0.3c-0.5,0.1-1,0.1-1.5-0.2c-0.5-0.2-0.9-0.7-1.2-1.3l0,0c-0.4-0.8-0.6-1.5-0.6-2.2
					c0-0.7,0.3-1.3,0.7-1.8c0.8-0.9,2.1-1.4,3.2-1.7c0.2-0.1,0.4,0,0.6,0.1C195.8,266.6,195.9,266.6,195.9,266.6z"/>
				<path d="M171.1,294.6c-1,0.3-1.7,0.6-2.1,1.1c-0.2,0.2-0.3,0.5-0.3,0.8c0,0.3,0.1,0.8,0.4,1.4L171.1,294.6z M171.1,294.6
					c0.8,0.4,1.3,0.7,1.7,1.3c0.1,0.2,0.2,0.6,0,1c-0.1,0.4-0.4,0.7-0.7,0.8l0,0h0c-0.3,0.1-0.6,0.2-0.9,0.3c-0.1,0-0.2,0.1-0.3,0.1
					c-0.4,0.1-0.7,0.2-0.9,0.3c-0.3,0-0.4,0-0.5,0c-0.1-0.1-0.3-0.2-0.4-0.5L171.1,294.6z M171.7,293c0.9,0.4,1.8,0.9,2.5,2l0,0l0,0
					c0.4,0.7,0.5,1.7,0.2,2.4c-0.3,0.8-0.9,1.6-1.8,1.8c-0.2,0.1-0.5,0.2-0.7,0.3c-0.1,0-0.2,0.1-0.3,0.1c-0.4,0.1-0.8,0.3-1.3,0.3
					c-0.5,0.1-1,0.1-1.5-0.2c-0.5-0.2-0.9-0.7-1.2-1.3l0,0c-0.4-0.8-0.6-1.5-0.6-2.2c0-0.7,0.3-1.3,0.7-1.8c0.8-0.9,2.1-1.4,3.2-1.7
					c0.2,0,0.4,0,0.6,0.1C171.6,293,171.7,293,171.7,293z"/>
				<path d="M193.2,236.8c-1,0.3-1.7,0.6-2.1,1.1c-0.2,0.2-0.3,0.5-0.3,0.8c0,0.3,0.1,0.8,0.4,1.4L193.2,236.8z M193.2,236.8
					c0.8,0.4,1.3,0.7,1.7,1.3c0.1,0.2,0.2,0.6,0,1c-0.1,0.4-0.4,0.7-0.7,0.8l0,0h0c-0.3,0.1-0.6,0.2-0.9,0.3c-0.1,0-0.2,0.1-0.3,0.1
					c-0.4,0.1-0.7,0.2-0.9,0.3c-0.3,0-0.4,0-0.5,0c-0.1-0.1-0.3-0.2-0.4-0.5L193.2,236.8z M193.8,235.2c0.9,0.4,1.8,0.9,2.5,2l0,0
					l0,0c0.4,0.7,0.5,1.7,0.2,2.4c-0.3,0.8-0.9,1.6-1.8,1.8c-0.2,0.1-0.5,0.2-0.7,0.3c-0.1,0-0.2,0.1-0.3,0.1
					c-0.4,0.1-0.8,0.3-1.3,0.3c-0.5,0.1-1,0.1-1.5-0.2c-0.5-0.2-0.9-0.7-1.2-1.3l0,0c-0.4-0.8-0.6-1.5-0.6-2.2
					c0-0.7,0.3-1.3,0.7-1.8c0.8-0.9,2.1-1.4,3.2-1.7c0.2-0.1,0.4,0,0.6,0.1C193.7,235.2,193.8,235.2,193.8,235.2z"/>
				<path d="M217.5,223.2c-1,0.3-1.7,0.6-2.1,1.1c-0.2,0.2-0.3,0.5-0.3,0.8c0,0.3,0.1,0.8,0.4,1.4L217.5,223.2z M217.5,223.2
					c0.8,0.4,1.3,0.7,1.7,1.3c0.1,0.2,0.2,0.6,0,1c-0.1,0.4-0.4,0.7-0.7,0.7l0,0l0,0c-0.3,0.1-0.6,0.2-0.9,0.3
					c-0.1,0-0.2,0.1-0.3,0.1c-0.4,0.1-0.7,0.2-0.9,0.3c-0.3,0-0.4,0-0.5,0c-0.1-0.1-0.3-0.2-0.4-0.5L217.5,223.2z M218.1,221.6
					c0.9,0.4,1.8,0.9,2.5,2l0,0l0,0c0.4,0.7,0.5,1.7,0.2,2.4c-0.3,0.8-0.9,1.6-1.8,1.8c-0.2,0.1-0.5,0.2-0.7,0.3
					c-0.1,0-0.2,0.1-0.3,0.1c-0.4,0.1-0.8,0.3-1.3,0.3c-0.5,0.1-1,0.1-1.5-0.2c-0.5-0.2-0.9-0.7-1.2-1.3l0,0
					c-0.4-0.8-0.6-1.5-0.6-2.2c0-0.7,0.3-1.3,0.7-1.8c0.8-0.9,2.1-1.4,3.2-1.7c0.2-0.1,0.4,0,0.6,0.1
					C218,221.5,218,221.6,218.1,221.6z"/>
				<path d="M261.2,364.7c-1,0.3-1.7,0.6-2.1,1.1c-0.2,0.2-0.3,0.5-0.3,0.8c0,0.3,0.1,0.8,0.4,1.4L261.2,364.7z M261.2,364.7
					c0.8,0.4,1.3,0.7,1.7,1.3c0.1,0.2,0.2,0.6,0,1c-0.1,0.4-0.4,0.7-0.7,0.8l0,0h0c-0.3,0.1-0.6,0.2-0.9,0.3c-0.1,0-0.2,0.1-0.3,0.1
					c-0.4,0.1-0.7,0.2-0.9,0.3c-0.3,0-0.4,0-0.5,0c-0.1-0.1-0.3-0.2-0.4-0.5L261.2,364.7z M261.8,363.1c0.9,0.4,1.8,0.9,2.5,2l0,0
					l0,0c0.4,0.7,0.5,1.7,0.2,2.4c-0.3,0.8-0.9,1.6-1.8,1.8c-0.2,0.1-0.5,0.2-0.7,0.3c-0.1,0-0.2,0.1-0.3,0.1
					c-0.4,0.1-0.8,0.3-1.3,0.3c-0.5,0.1-1,0.1-1.5-0.2c-0.5-0.2-0.9-0.7-1.2-1.3l0,0c-0.4-0.8-0.6-1.5-0.6-2.2
					c0-0.7,0.3-1.3,0.7-1.8c0.8-0.9,2.1-1.4,3.2-1.7c0.2,0,0.4,0,0.6,0.1C261.7,363.1,261.8,363.1,261.8,363.1z"/>
				<path d="M243.3,353.7c-1,0-1.8,0.2-2.3,0.5c-0.2,0.2-0.4,0.4-0.5,0.7c-0.1,0.3-0.1,0.7,0,1.4L243.3,353.7z M243.3,353.7
					c0.7,0.6,1.1,1,1.3,1.7c0.1,0.2,0,0.6-0.2,1c-0.2,0.4-0.5,0.5-0.9,0.5l0,0h0c-0.3,0-0.7,0-1,0.1c-0.1,0-0.2,0-0.3,0
					c-0.4,0-0.7,0-1,0c-0.3,0-0.4-0.1-0.5-0.2c-0.1-0.1-0.2-0.2-0.3-0.6L243.3,353.7z M244.3,352.3c0.7,0.7,1.5,1.3,1.9,2.6v0l0,0
					c0.2,0.8,0,1.7-0.4,2.4c-0.5,0.7-1.2,1.3-2.2,1.3c-0.2,0-0.5,0-0.8,0.1c-0.1,0-0.2,0-0.3,0c-0.4,0-0.9,0.1-1.3,0
					c-0.5-0.1-1-0.2-1.4-0.6c-0.4-0.4-0.7-0.9-0.9-1.5l0,0c-0.2-0.9-0.2-1.6,0-2.3c0.2-0.7,0.6-1.2,1.2-1.5c1-0.7,2.4-0.8,3.6-0.8
					c0.2,0,0.4,0.1,0.5,0.2C244.2,352.2,244.3,352.3,244.3,352.3z"/>
				<path d="M267.4,340.4c-1,0-1.8,0.2-2.3,0.5c-0.2,0.2-0.4,0.4-0.5,0.7c-0.1,0.3-0.1,0.7,0,1.4c0.1,0.4,0.2,0.5,0.3,0.6
					c0.1,0.1,0.2,0.1,0.5,0.2c0.3,0,0.6,0,1,0c0.1,0,0.2,0,0.3,0c0.3,0,0.6-0.1,1-0.1l0,0l0,0c0.3,0,0.6-0.2,0.9-0.5
					c0.2-0.4,0.3-0.8,0.2-1C268.4,341.4,268,341,267.4,340.4z M268.3,339.1c0.7,0.7,1.5,1.3,1.9,2.6v0l0,0c0.2,0.8,0,1.7-0.4,2.4
					c-0.5,0.7-1.2,1.3-2.2,1.3c-0.2,0-0.5,0-0.8,0.1c-0.1,0-0.2,0-0.3,0c-0.4,0-0.9,0.1-1.3,0c-0.5-0.1-1-0.2-1.4-0.6
					c-0.4-0.4-0.7-0.9-0.8-1.5v0c-0.2-0.9-0.2-1.6,0-2.3c0.2-0.7,0.6-1.2,1.2-1.5c1-0.7,2.4-0.8,3.6-0.8c0.2,0,0.4,0.1,0.5,0.2
					C268.3,339,268.3,339,268.3,339.1z"/>
				<path d="M224.8,323.3c-0.7-0.7-1.4-1.2-2-1.3c-0.3-0.1-0.6,0-0.8,0.1c-0.3,0.1-0.6,0.4-1,1L224.8,323.3z M224.8,323.3
					c0.1,0.9,0.1,1.5-0.3,2.1c-0.1,0.2-0.4,0.5-0.9,0.6c-0.4,0.1-0.8,0-1-0.2l0,0l0,0c-0.2-0.2-0.5-0.4-0.7-0.6
					c-0.1-0.1-0.1-0.1-0.2-0.2c-0.3-0.3-0.5-0.5-0.7-0.7c-0.2-0.2-0.2-0.4-0.2-0.5c0-0.1,0-0.3,0.2-0.6L224.8,323.3z M226.4,323
					c0.1,1,0.1,2-0.5,3.2l0,0l0,0c-0.4,0.8-1.2,1.2-2,1.4c-0.8,0.2-1.8,0-2.5-0.7c-0.2-0.2-0.4-0.3-0.6-0.5
					c-0.1-0.1-0.2-0.1-0.3-0.2c-0.3-0.3-0.7-0.6-0.9-0.9c-0.3-0.4-0.5-0.8-0.6-1.4c0-0.6,0.1-1.1,0.5-1.7l0,0c0.5-0.7,1-1.3,1.6-1.6
					c0.6-0.3,1.3-0.4,1.9-0.3c1.2,0.2,2.3,1.1,3.1,2c0.1,0.1,0.2,0.3,0.2,0.5C226.4,322.9,226.4,323,226.4,323z"/>
				<path d="M252,279.2c0-1-0.2-1.8-0.5-2.3c-0.2-0.2-0.4-0.4-0.7-0.5c-0.3-0.1-0.7-0.1-1.4,0L252,279.2z M252,279.2
					c-0.6,0.7-1,1.1-1.7,1.3c-0.2,0.1-0.6,0-1-0.2c-0.4-0.2-0.5-0.5-0.5-0.9l0,0v0c0-0.3,0-0.7-0.1-1c0-0.1,0-0.2,0-0.3
					c0-0.4,0-0.7,0-1c0-0.3,0.1-0.4,0.2-0.5c0.1-0.1,0.2-0.2,0.6-0.3L252,279.2z M253.4,280.2c-0.7,0.7-1.3,1.5-2.6,1.9h0l0,0
					c-0.8,0.2-1.7,0-2.4-0.4c-0.7-0.5-1.3-1.2-1.3-2.2c0-0.2,0-0.5-0.1-0.8c0-0.1,0-0.2,0-0.3c0-0.4-0.1-0.9,0-1.3
					c0.1-0.5,0.2-1,0.6-1.4c0.4-0.4,0.9-0.7,1.5-0.9l0,0c0.9-0.2,1.6-0.2,2.3,0c0.7,0.2,1.2,0.6,1.5,1.2c0.7,1,0.8,2.4,0.8,3.6
					c0,0.2-0.1,0.4-0.2,0.5C253.4,280.1,253.4,280.1,253.4,280.2z"/>
				<path d="M275.9,261c0.7-0.7,1.2-1.4,1.3-2c0.1-0.3,0-0.6-0.1-0.8c-0.1-0.3-0.4-0.6-1-1L275.9,261z M275.9,261
					c-0.9,0.1-1.5,0.1-2.1-0.3c-0.2-0.1-0.5-0.4-0.6-0.9c-0.1-0.4,0-0.8,0.2-1l0,0l0,0c0.2-0.2,0.4-0.5,0.6-0.7
					c0.1-0.1,0.1-0.1,0.2-0.2c0.3-0.3,0.5-0.5,0.7-0.7c0.2-0.2,0.4-0.2,0.5-0.2c0.1,0,0.3,0,0.6,0.2L275.9,261z M276.2,262.6
					c-1,0.1-2,0.1-3.2-0.5l0,0l0,0c-0.8-0.4-1.2-1.2-1.4-2c-0.2-0.8,0-1.8,0.7-2.5c0.2-0.2,0.3-0.4,0.5-0.6c0.1-0.1,0.1-0.2,0.2-0.3
					c0.3-0.3,0.6-0.7,0.9-0.9c0.4-0.3,0.8-0.5,1.4-0.6c0.6,0,1.1,0.1,1.7,0.5l0,0c0.7,0.5,1.3,1,1.6,1.6c0.3,0.6,0.4,1.3,0.3,1.9
					c-0.2,1.2-1.1,2.3-2,3.1c-0.1,0.1-0.3,0.2-0.5,0.2C276.3,262.6,276.2,262.6,276.2,262.6z"/>
				<path d="M314.3,274.5c1,0,1.8-0.2,2.3-0.5c0.2-0.2,0.4-0.4,0.5-0.7c0.1-0.3,0.1-0.7,0-1.4L314.3,274.5z M314.3,274.5
					c-0.7-0.6-1.1-1-1.3-1.7c-0.1-0.2,0-0.6,0.2-1c0.2-0.4,0.5-0.5,0.9-0.5l0,0l0,0c0.3,0,0.7,0,1-0.1c0.1,0,0.2,0,0.3,0
					c0.4,0,0.7,0,1,0c0.3,0,0.4,0.1,0.5,0.2c0.1,0.1,0.2,0.2,0.3,0.6L314.3,274.5z M313.3,275.8c-0.7-0.7-1.5-1.3-1.9-2.6v0l0,0
					c-0.2-0.8,0-1.7,0.4-2.4c0.5-0.7,1.2-1.3,2.2-1.3c0.2,0,0.5,0,0.8-0.1c0.1,0,0.2,0,0.3,0c0.4,0,0.9-0.1,1.3,0
					c0.5,0.1,1,0.2,1.4,0.6c0.4,0.4,0.7,0.9,0.8,1.5l0,0c0.2,0.9,0.2,1.6,0,2.3c-0.2,0.7-0.6,1.2-1.2,1.5c-1,0.7-2.4,0.8-3.6,0.8
					c-0.2,0-0.4-0.1-0.5-0.2C313.4,275.9,313.3,275.9,313.3,275.8z"/>
				<path d="M331.9,311.2c0.7,0.7,1.4,1.2,2,1.3c0.3,0.1,0.6,0,0.8-0.1c0.3-0.1,0.6-0.4,1-1L331.9,311.2z M331.9,311.2
					c-0.1-0.9-0.1-1.5,0.3-2.1c0.1-0.2,0.4-0.5,0.9-0.6c0.4-0.1,0.8,0,1,0.2l0,0l0,0c0.2,0.2,0.5,0.4,0.7,0.6
					c0.1,0.1,0.1,0.1,0.2,0.2c0.3,0.3,0.5,0.5,0.7,0.7c0.2,0.2,0.2,0.4,0.2,0.5c0,0.1,0,0.3-0.2,0.6L331.9,311.2z M330.2,311.4
					c-0.1-1-0.1-2,0.5-3.2v0h0c0.4-0.8,1.2-1.2,2-1.4c0.8-0.2,1.8,0,2.5,0.7c0.2,0.2,0.4,0.3,0.6,0.5c0.1,0.1,0.2,0.1,0.3,0.2
					c0.3,0.3,0.7,0.6,0.9,0.9c0.3,0.4,0.5,0.8,0.6,1.4c0,0.6-0.1,1.1-0.5,1.7l0,0c-0.5,0.7-1,1.3-1.6,1.6c-0.6,0.3-1.3,0.4-1.9,0.3
					c-1.2-0.2-2.3-1.1-3.1-2c-0.1-0.1-0.2-0.3-0.2-0.5C330.2,311.5,330.2,311.5,330.2,311.4z"/>
				<path d="M318.4,349.6c0,1,0.2,1.8,0.5,2.3c0.2,0.2,0.4,0.4,0.7,0.5c0.3,0.1,0.7,0.1,1.4,0L318.4,349.6z M318.4,349.6
					c0.6-0.7,1-1.1,1.7-1.3c0.2-0.1,0.6,0,1,0.2c0.4,0.2,0.5,0.5,0.5,0.9l0,0v0c0,0.3,0,0.7,0.1,1c0,0.1,0,0.2,0,0.3
					c0,0.4,0,0.7,0,1c0,0.3-0.1,0.4-0.2,0.5c-0.1,0.1-0.2,0.2-0.6,0.3L318.4,349.6z M317,348.6c0.7-0.7,1.3-1.5,2.6-1.9h0l0,0
					c0.8-0.2,1.7,0,2.4,0.4c0.7,0.5,1.3,1.2,1.3,2.2c0,0.2,0,0.5,0.1,0.8c0,0.1,0,0.2,0,0.3c0,0.4,0.1,0.9,0,1.3
					c-0.1,0.5-0.2,1-0.6,1.4c-0.4,0.4-0.9,0.7-1.5,0.9h0c-0.9,0.2-1.6,0.2-2.3,0c-0.7-0.2-1.2-0.6-1.5-1.2c-0.7-1-0.8-2.4-0.8-3.6
					c0-0.2,0.1-0.4,0.2-0.5C316.9,348.7,317,348.6,317,348.6z"/>
				<path d="M281.7,367.2c-0.7,0.7-1.2,1.4-1.3,2c-0.1,0.3,0,0.6,0.1,0.8c0.1,0.3,0.4,0.6,1,1c0.3,0.2,0.5,0.2,0.6,0.2
					c0.1,0,0.3-0.1,0.5-0.2c0.2-0.2,0.4-0.4,0.7-0.7c0.1-0.1,0.1-0.1,0.2-0.2c0.2-0.2,0.4-0.5,0.6-0.7l0,0l0,0
					c0.2-0.2,0.3-0.6,0.2-1c-0.1-0.4-0.3-0.8-0.6-0.9C283.2,367.1,282.6,367.1,281.7,367.2z M281.4,365.5c1-0.1,2-0.1,3.2,0.5l0,0
					l0,0c0.8,0.4,1.2,1.2,1.4,2c0.2,0.8,0,1.8-0.7,2.5c-0.2,0.2-0.3,0.4-0.5,0.6c-0.1,0.1-0.1,0.2-0.2,0.3c-0.3,0.3-0.6,0.7-0.9,0.9
					c-0.4,0.3-0.8,0.5-1.4,0.6c-0.6,0-1.1-0.1-1.7-0.5l0,0c-0.7-0.5-1.3-1-1.6-1.6c-0.3-0.6-0.4-1.3-0.3-1.9c0.2-1.2,1.1-2.3,2-3.1
					c0.1-0.1,0.3-0.2,0.5-0.2C281.3,365.5,281.4,365.5,281.4,365.5z"/>
				<path d="M253.2,322.2c-0.6-0.8-1.3-1.3-1.8-1.5c-0.3-0.1-0.6-0.1-0.8,0c-0.3,0.1-0.7,0.4-1.1,0.9L253.2,322.2z M253.2,322.2
					c0,0.9-0.1,1.4-0.5,2.1c-0.1,0.2-0.5,0.4-0.9,0.5c-0.4,0-0.8-0.1-1-0.3l0,0h0c-0.2-0.2-0.4-0.5-0.7-0.7
					c-0.1-0.1-0.1-0.1-0.2-0.2c-0.3-0.3-0.5-0.5-0.6-0.7c-0.1-0.2-0.2-0.4-0.2-0.5c0-0.1,0-0.3,0.3-0.6L253.2,322.2z M254.9,322.1
					c0,1-0.1,2-0.8,3.1l0,0l0,0c-0.5,0.7-1.3,1.1-2.1,1.2c-0.8,0.1-1.8-0.1-2.4-0.9c-0.2-0.2-0.3-0.4-0.5-0.6
					c-0.1-0.1-0.2-0.2-0.2-0.2c-0.3-0.3-0.6-0.6-0.8-1c-0.2-0.4-0.4-0.9-0.4-1.4c0-0.6,0.2-1.1,0.7-1.6l0,0c0.5-0.7,1.1-1.2,1.8-1.4
					c0.7-0.3,1.3-0.2,1.9-0.1c1.2,0.4,2.1,1.3,2.9,2.3c0.1,0.2,0.2,0.4,0.2,0.6C254.9,322,254.9,322.1,254.9,322.1z"/>
				<path d="M246.1,300.8c0.2-1,0.2-1.8,0-2.4c-0.1-0.3-0.3-0.5-0.5-0.7c-0.3-0.2-0.7-0.3-1.4-0.3L246.1,300.8z M246.1,300.8
					c-0.7,0.5-1.2,0.8-1.9,0.9c-0.3,0-0.6-0.1-0.9-0.4c-0.3-0.3-0.4-0.7-0.3-1l0,0v0c0.1-0.3,0.1-0.6,0.2-1c0-0.1,0-0.2,0-0.3
					c0.1-0.4,0.1-0.7,0.2-1c0.1-0.2,0.2-0.4,0.3-0.4c0.1-0.1,0.3-0.2,0.7-0.2L246.1,300.8z M247.2,302.1c-0.8,0.6-1.7,1.2-3,1.3h0
					l0,0c-0.9,0.1-1.7-0.4-2.3-1c-0.6-0.6-1-1.5-0.8-2.5c0.1-0.2,0.1-0.5,0.1-0.8c0-0.1,0-0.2,0-0.3c0.1-0.4,0.1-0.9,0.3-1.3
					c0.2-0.4,0.4-0.9,0.9-1.2c0.5-0.3,1-0.5,1.7-0.5l0,0c0.9,0,1.6,0.2,2.2,0.5c0.6,0.4,1,0.9,1.2,1.5c0.4,1.1,0.2,2.5,0,3.7
					c0,0.2-0.2,0.4-0.3,0.5C247.3,302,247.3,302,247.2,302.1z"/>
				<path d="M279.4,290.1c0.9-0.5,1.5-0.9,1.8-1.5c0.2-0.3,0.2-0.5,0.2-0.8c0-0.3-0.2-0.7-0.6-1.3L279.4,290.1z M279.4,290.1
					c-0.9-0.2-1.4-0.4-1.9-1c-0.2-0.2-0.3-0.6-0.2-1c0.1-0.4,0.3-0.7,0.5-0.9l0,0h0c0.3-0.1,0.6-0.3,0.8-0.5
					c0.1-0.1,0.2-0.1,0.2-0.1c0.3-0.2,0.6-0.4,0.9-0.4c0.2-0.1,0.4-0.1,0.5-0.1c0.1,0,0.3,0.1,0.5,0.4L279.4,290.1z M279.2,291.7
					c-1-0.3-2-0.5-2.9-1.5l0,0l0,0c-0.6-0.6-0.8-1.6-0.7-2.4c0.1-0.8,0.5-1.7,1.4-2.2c0.2-0.1,0.4-0.2,0.7-0.4
					c0.1-0.1,0.2-0.1,0.3-0.2c0.3-0.2,0.8-0.4,1.2-0.6c0.4-0.2,1-0.2,1.5-0.1c0.6,0.1,1,0.5,1.4,1l0,0c0.5,0.7,0.9,1.4,1,2.1
					c0.1,0.7-0.1,1.3-0.4,1.9c-0.6,1.1-1.8,1.8-2.9,2.3c-0.2,0.1-0.4,0.1-0.6,0.1C279.2,291.7,279.2,291.7,279.2,291.7z"/>
				<path d="M299.1,287c0.9,0.4,1.7,0.6,2.3,0.6c0.3,0,0.5-0.2,0.8-0.4c0.2-0.2,0.4-0.6,0.6-1.3L299.1,287z M299.1,287
					c-0.3-0.8-0.5-1.4-0.4-2.1c0-0.3,0.3-0.6,0.6-0.8c0.4-0.2,0.7-0.2,1-0.1l0,0h0c0.3,0.1,0.6,0.3,0.9,0.4c0.1,0,0.2,0.1,0.3,0.1
					c0.4,0.1,0.7,0.3,0.9,0.4c0.2,0.1,0.3,0.3,0.4,0.4c0.1,0.1,0.1,0.3,0,0.7L299.1,287z M297.6,287.9c-0.4-0.9-0.8-1.9-0.6-3.2v0
					l0,0c0.1-0.8,0.7-1.6,1.4-2c0.7-0.4,1.7-0.6,2.6-0.2c0.2,0.1,0.5,0.2,0.7,0.3c0.1,0,0.2,0.1,0.3,0.1c0.4,0.1,0.8,0.3,1.2,0.6
					c0.4,0.3,0.8,0.6,1,1.1c0.2,0.5,0.3,1.1,0.1,1.7l0,0c-0.2,0.9-0.5,1.5-1,2c-0.5,0.5-1.1,0.8-1.7,0.9c-1.2,0.2-2.5-0.3-3.6-0.9
					c-0.2-0.1-0.3-0.2-0.4-0.4C297.7,287.9,297.6,287.9,297.6,287.9z"/>
				<path d="M316.2,327.5c0.2,1,0.6,1.7,1,2.1c0.2,0.2,0.5,0.3,0.8,0.4c0.3,0,0.8,0,1.4-0.3L316.2,327.5z M316.2,327.5
					c0.4-0.8,0.7-1.3,1.4-1.6c0.2-0.1,0.6-0.2,1,0c0.4,0.1,0.7,0.4,0.7,0.7l0,0l0,0c0.1,0.3,0.2,0.6,0.3,0.9c0,0.1,0.1,0.2,0.1,0.3
					c0.1,0.4,0.2,0.7,0.2,1c0,0.3,0,0.4-0.1,0.5c-0.1,0.1-0.2,0.3-0.5,0.4L316.2,327.5z M314.7,326.9c0.5-0.9,1-1.8,2.1-2.5h0l0,0
					c0.7-0.4,1.7-0.4,2.4-0.1c0.8,0.3,1.5,0.9,1.8,1.9c0.1,0.2,0.1,0.5,0.2,0.8c0,0.1,0.1,0.2,0.1,0.3c0.1,0.4,0.3,0.8,0.3,1.3
					c0,0.5,0,1-0.2,1.5c-0.3,0.5-0.7,0.9-1.3,1.2l0,0c-0.8,0.4-1.5,0.5-2.2,0.5c-0.7-0.1-1.3-0.4-1.8-0.8c-0.9-0.8-1.3-2.1-1.6-3.3
					c0-0.2,0-0.4,0.1-0.6C314.6,326.9,314.6,326.9,314.7,326.9z"/>
				<path d="M298.9,350.5c-0.6,0.8-1,1.5-1.1,2.1c0,0.3,0,0.6,0.2,0.8c0.2,0.3,0.5,0.6,1.1,0.9L298.9,350.5z M298.9,350.5
					c0.9-0.1,1.4-0.2,2.1,0.1c0.2,0.1,0.5,0.4,0.6,0.8c0.1,0.4,0.1,0.8-0.1,1l0,0v0c-0.2,0.2-0.4,0.5-0.6,0.8
					c-0.1,0.1-0.1,0.2-0.2,0.2c-0.2,0.3-0.4,0.6-0.6,0.8c-0.2,0.2-0.3,0.3-0.5,0.3c-0.1,0-0.3,0-0.7-0.1L298.9,350.5z M298.5,348.9
					c1-0.2,2-0.3,3.2,0.2h0l0,0c0.8,0.3,1.4,1.1,1.6,1.9c0.3,0.8,0.2,1.8-0.4,2.6c-0.2,0.2-0.3,0.4-0.5,0.6
					c-0.1,0.1-0.1,0.2-0.2,0.3c-0.2,0.3-0.5,0.7-0.8,1c-0.3,0.3-0.8,0.6-1.3,0.7c-0.6,0.1-1.1,0-1.7-0.3l0,0
					c-0.8-0.4-1.4-0.9-1.8-1.5c-0.4-0.6-0.5-1.2-0.5-1.9c0.1-1.2,0.9-2.4,1.6-3.3c0.1-0.2,0.3-0.3,0.5-0.3
					C298.4,348.9,298.4,348.9,298.5,348.9z"/>
				<path d="M274.4,312.8c-0.6,0.8-1,1.5-1.1,2.1c0,0.3,0,0.6,0.2,0.8c0.2,0.3,0.5,0.6,1.1,0.9c0.3,0.2,0.5,0.2,0.7,0.2
					c0.1,0,0.3-0.1,0.5-0.3c0.2-0.2,0.4-0.4,0.6-0.8c0-0.1,0.1-0.1,0.1-0.2c0.2-0.3,0.4-0.5,0.6-0.8h0l0,0c0.2-0.2,0.2-0.6,0.1-1
					c-0.1-0.4-0.4-0.7-0.7-0.8C275.8,312.6,275.3,312.7,274.4,312.8z M273.9,311.2c1-0.2,2-0.4,3.2,0.1l0,0l0,0
					c0.8,0.3,1.4,1.1,1.6,1.9c0.3,0.8,0.2,1.8-0.4,2.6c-0.2,0.2-0.3,0.4-0.5,0.6c-0.1,0.1-0.1,0.2-0.2,0.3c-0.2,0.3-0.5,0.7-0.8,1
					c-0.3,0.3-0.8,0.6-1.3,0.7c-0.6,0.1-1.1,0-1.7-0.3l0,0c-0.8-0.4-1.4-0.9-1.8-1.5c-0.4-0.6-0.5-1.2-0.5-1.9
					c0.1-1.2,0.9-2.4,1.6-3.3c0.1-0.2,0.3-0.3,0.5-0.3C273.8,311.2,273.9,311.2,273.9,311.2z"/>
				<path d="M292.3,315.3c-0.6,0.8-1,1.5-1.1,2.1c0,0.3,0,0.6,0.2,0.8c0.2,0.3,0.5,0.6,1.1,0.9L292.3,315.3z M292.3,315.3
					c0.9-0.1,1.4-0.2,2.1,0.1c0.2,0.1,0.5,0.4,0.6,0.8c0.1,0.4,0.1,0.8-0.1,1l0,0h0c-0.2,0.2-0.4,0.5-0.6,0.8
					c-0.1,0.1-0.1,0.2-0.1,0.2c-0.2,0.3-0.4,0.6-0.6,0.8c-0.2,0.2-0.3,0.3-0.5,0.3c-0.1,0-0.3,0-0.7-0.2L292.3,315.3z M291.9,313.7
					c1-0.2,2-0.4,3.2,0.1l0,0l0,0c0.8,0.3,1.4,1.1,1.6,1.9c0.3,0.8,0.2,1.8-0.4,2.6c-0.2,0.2-0.3,0.4-0.5,0.6
					c-0.1,0.1-0.1,0.2-0.2,0.3c-0.2,0.3-0.5,0.7-0.8,1c-0.3,0.3-0.8,0.6-1.3,0.7c-0.6,0.1-1.1,0-1.7-0.3l0,0
					c-0.8-0.4-1.4-0.9-1.8-1.5c-0.4-0.6-0.5-1.2-0.5-1.9c0.1-1.2,0.9-2.4,1.6-3.3c0.1-0.2,0.3-0.3,0.5-0.3
					C291.8,313.7,291.8,313.7,291.9,313.7z"/>
				<path d="M214.3,351.8c-0.9-0.3-1.8-0.4-2.3-0.2c-0.3,0.1-0.5,0.2-0.7,0.5c-0.2,0.3-0.4,0.7-0.4,1.3L214.3,351.8z M214.3,351.8
					c0.5,0.8,0.7,1.3,0.7,2c0,0.3-0.2,0.6-0.5,0.9c-0.3,0.3-0.7,0.3-1,0.3l0,0l0,0c-0.3-0.1-0.6-0.2-0.9-0.2c-0.1,0-0.2,0-0.3-0.1
					c-0.4-0.1-0.7-0.2-0.9-0.3c-0.2-0.1-0.4-0.2-0.4-0.3c-0.1-0.1-0.1-0.3-0.1-0.7L214.3,351.8z M215.6,350.8c0.5,0.8,1,1.7,1,3.1v0
					l0,0c0,0.9-0.5,1.7-1.2,2.2c-0.6,0.5-1.6,0.9-2.5,0.6c-0.2-0.1-0.5-0.1-0.8-0.2c-0.1,0-0.2,0-0.3-0.1c-0.4-0.1-0.8-0.2-1.3-0.4
					c-0.4-0.2-0.8-0.5-1.1-1c-0.3-0.5-0.4-1.1-0.3-1.7h0c0.1-0.9,0.3-1.6,0.7-2.2c0.4-0.6,1-0.9,1.6-1.1c1.2-0.3,2.5,0,3.6,0.4
					c0.2,0.1,0.4,0.2,0.5,0.4C215.6,350.7,215.6,350.7,215.6,350.8z"/>
				<path d="M207.4,303.7c-0.7-0.8-1.3-1.3-1.9-1.4c-0.3-0.1-0.6-0.1-0.8,0c-0.3,0.1-0.7,0.4-1.1,0.9L207.4,303.7z M207.4,303.7
					c0,0.9-0.1,1.5-0.5,2.1c-0.1,0.2-0.5,0.4-0.9,0.5c-0.4,0.1-0.8-0.1-1-0.3l0,0l0,0c-0.2-0.2-0.4-0.5-0.7-0.7
					c-0.1-0.1-0.1-0.1-0.2-0.2c-0.3-0.3-0.5-0.5-0.6-0.7c-0.1-0.2-0.2-0.4-0.2-0.5c0-0.1,0-0.3,0.3-0.6L207.4,303.7z M209.1,303.5
					c0,1,0,2-0.8,3.1l0,0l0,0c-0.5,0.7-1.3,1.1-2.1,1.2c-0.8,0.1-1.8-0.1-2.4-0.9c-0.2-0.2-0.3-0.4-0.5-0.6
					c-0.1-0.1-0.2-0.2-0.2-0.2c-0.3-0.3-0.6-0.6-0.8-1c-0.3-0.4-0.5-0.9-0.5-1.4c0-0.6,0.2-1.1,0.6-1.6l0,0c0.5-0.7,1.1-1.2,1.8-1.4
					c0.7-0.3,1.3-0.3,1.9-0.1c1.2,0.3,2.1,1.3,2.9,2.2c0.1,0.2,0.2,0.4,0.2,0.6C209.1,303.4,209.1,303.5,209.1,303.5z"/>
				<path d="M217.3,270.3c-0.1-1-0.4-1.8-0.8-2.2c-0.2-0.2-0.4-0.4-0.7-0.4c-0.3-0.1-0.8,0-1.4,0.2L217.3,270.3z M217.3,270.3
					c-0.5,0.7-0.9,1.2-1.5,1.5c-0.2,0.1-0.6,0.1-1-0.1c-0.4-0.2-0.6-0.5-0.6-0.8l0,0h0c0-0.3-0.1-0.7-0.2-0.9c0-0.1,0-0.2-0.1-0.3
					c-0.1-0.4-0.1-0.7-0.1-1c0-0.3,0-0.4,0.1-0.5c0.1-0.1,0.2-0.2,0.6-0.4L217.3,270.3z M218.8,271.1c-0.6,0.8-1.1,1.7-2.3,2.2l0,0
					l0,0c-0.8,0.3-1.7,0.2-2.4-0.1c-0.7-0.4-1.4-1.1-1.6-2.1c0-0.2-0.1-0.5-0.1-0.8c0-0.1,0-0.2-0.1-0.3c-0.1-0.4-0.2-0.9-0.2-1.3
					c0-0.5,0.1-1,0.4-1.4c0.3-0.5,0.8-0.8,1.4-1l0,0c0.8-0.3,1.6-0.4,2.3-0.2c0.7,0.1,1.3,0.5,1.7,1c0.8,0.9,1.1,2.3,1.2,3.4
					c0,0.2,0,0.4-0.1,0.6C218.8,271,218.8,271.1,218.8,271.1z"/>
				<path d="M250.4,243.7c0.4-0.9,0.6-1.7,0.6-2.3c0-0.3-0.2-0.5-0.4-0.8c-0.2-0.2-0.6-0.4-1.3-0.6c-0.4-0.1-0.6,0-0.7,0
					c-0.1,0.1-0.2,0.2-0.4,0.4c-0.1,0.2-0.3,0.5-0.4,0.9c0,0.1-0.1,0.2-0.1,0.3c-0.1,0.3-0.2,0.6-0.4,0.9v0l0,0
					c-0.1,0.3-0.1,0.6,0.1,1c0.2,0.4,0.6,0.6,0.8,0.6C249,244.2,249.6,244,250.4,243.7z M251.2,245.2c-0.9,0.4-1.9,0.8-3.2,0.6h0
					l0,0c-0.8-0.1-1.6-0.7-2-1.4c-0.4-0.7-0.6-1.7-0.2-2.6c0.1-0.2,0.2-0.5,0.3-0.7c0-0.1,0.1-0.2,0.1-0.3c0.1-0.4,0.3-0.8,0.6-1.2
					c0.3-0.4,0.6-0.8,1.1-1c0.5-0.2,1.1-0.2,1.7-0.1l0,0c0.9,0.2,1.5,0.5,2,1c0.5,0.5,0.8,1.1,0.9,1.7c0.2,1.2-0.3,2.5-0.9,3.6
					c-0.1,0.2-0.2,0.3-0.4,0.4C251.3,245.1,251.3,245.2,251.2,245.2z"/>
				<path d="M231.3,242.9c0.4-0.9,0.6-1.7,0.6-2.3c0-0.3-0.2-0.5-0.4-0.8c-0.2-0.2-0.6-0.4-1.3-0.6L231.3,242.9z M231.3,242.9
					c-0.8,0.3-1.4,0.5-2.1,0.4c-0.3,0-0.6-0.3-0.8-0.6c-0.2-0.4-0.2-0.7-0.1-1l0,0l0,0c0.1-0.3,0.3-0.6,0.4-0.9
					c0-0.1,0.1-0.2,0.1-0.3c0.1-0.4,0.3-0.7,0.4-0.9c0.1-0.2,0.3-0.3,0.4-0.4c0.1,0,0.3-0.1,0.7,0L231.3,242.9z M232.2,244.3
					c-0.9,0.4-1.9,0.8-3.2,0.6h0l0,0c-0.8-0.1-1.6-0.7-2-1.4c-0.4-0.7-0.6-1.7-0.2-2.6c0.1-0.2,0.2-0.5,0.3-0.7
					c0-0.1,0.1-0.2,0.1-0.3c0.1-0.4,0.3-0.8,0.6-1.2c0.3-0.4,0.6-0.8,1.1-1c0.5-0.2,1.1-0.2,1.7-0.1l0,0c0.9,0.2,1.5,0.5,2,1
					c0.5,0.5,0.8,1.1,0.9,1.7c0.2,1.2-0.3,2.5-0.9,3.6c-0.1,0.2-0.2,0.3-0.4,0.4C232.2,244.3,232.2,244.3,232.2,244.3z"/>
				<path d="M292.6,239.2c0.8-0.5,1.5-1.1,1.7-1.6c0.1-0.3,0.2-0.5,0.1-0.8c-0.1-0.3-0.3-0.7-0.7-1.2L292.6,239.2z M292.6,239.2
					c-0.9-0.2-1.4-0.3-2-0.8c-0.2-0.2-0.4-0.5-0.3-1c0-0.4,0.2-0.7,0.5-0.9l0,0h0c0.3-0.2,0.5-0.4,0.8-0.5c0.1-0.1,0.2-0.1,0.2-0.2
					c0.3-0.2,0.6-0.4,0.8-0.5c0.2-0.1,0.4-0.1,0.5-0.1c0.1,0,0.3,0.1,0.6,0.4L292.6,239.2z M292.5,240.9c-1-0.2-2-0.4-3-1.2l0,0l0,0
					c-0.6-0.6-0.9-1.5-0.9-2.3c0-0.8,0.4-1.7,1.2-2.3c0.2-0.1,0.4-0.3,0.7-0.5c0.1-0.1,0.2-0.1,0.3-0.2c0.3-0.2,0.7-0.5,1.1-0.7
					c0.4-0.2,0.9-0.3,1.5-0.2c0.6,0.1,1.1,0.4,1.5,0.9l0,0c0.6,0.6,1,1.3,1.1,2c0.2,0.7,0.1,1.3-0.2,1.9c-0.5,1.1-1.6,1.9-2.7,2.5
					c-0.2,0.1-0.4,0.1-0.6,0.1C292.6,240.9,292.5,240.9,292.5,240.9z"/>
				<path d="M325.2,233c1,0,1.8-0.1,2.3-0.5c0.3-0.2,0.4-0.4,0.5-0.7c0.1-0.3,0.1-0.7,0-1.4L325.2,233z M325.2,233
					c-0.7-0.6-1-1-1.2-1.7c-0.1-0.2,0-0.6,0.2-1c0.2-0.4,0.6-0.5,0.9-0.5l0,0h0c0.3,0,0.7,0,1,0c0.1,0,0.2,0,0.3,0c0.4,0,0.7,0,1,0
					c0.3,0,0.4,0.1,0.5,0.2c0.1,0.1,0.2,0.2,0.3,0.6L325.2,233z M324.2,234.3c-0.7-0.7-1.5-1.4-1.9-2.6v0l0,0
					c-0.2-0.8,0-1.7,0.5-2.4c0.5-0.7,1.3-1.3,2.3-1.3c0.2,0,0.5,0,0.8,0c0.1,0,0.2,0,0.3,0c0.4,0,0.9,0,1.3,0c0.5,0.1,1,0.2,1.4,0.6
					c0.4,0.4,0.7,0.9,0.8,1.5l0,0c0.2,0.9,0.2,1.6-0.1,2.3c-0.2,0.7-0.7,1.2-1.2,1.5c-1,0.7-2.4,0.8-3.6,0.7c-0.2,0-0.4-0.1-0.5-0.2
					C324.2,234.4,324.2,234.4,324.2,234.3z"/>
				<path d="M322.7,250.9c1,0,1.8-0.1,2.3-0.5c0.3-0.2,0.4-0.4,0.5-0.7c0.1-0.3,0.1-0.7,0-1.4L322.7,250.9z M322.7,250.9
					c-0.7-0.6-1-1-1.2-1.7c-0.1-0.2,0-0.6,0.2-1c0.2-0.4,0.6-0.5,0.9-0.5l0,0h0c0.3,0,0.7,0,1,0c0.1,0,0.2,0,0.3,0c0.4,0,0.7,0,1,0
					c0.3,0,0.4,0.1,0.5,0.2c0.1,0.1,0.2,0.2,0.3,0.6L322.7,250.9z M321.7,252.3c-0.7-0.7-1.5-1.4-1.9-2.6v0l0,0
					c-0.2-0.8,0-1.7,0.5-2.4c0.5-0.7,1.3-1.3,2.3-1.3c0.2,0,0.5,0,0.8,0c0.1,0,0.2,0,0.3,0c0.4,0,0.9,0,1.3,0c0.5,0.1,1,0.2,1.4,0.6
					c0.4,0.4,0.7,0.9,0.8,1.5l0,0c0.2,0.9,0.2,1.6-0.1,2.3c-0.2,0.7-0.7,1.2-1.2,1.5c-1,0.7-2.4,0.8-3.6,0.7c-0.2,0-0.4-0.1-0.5-0.2
					C321.8,252.4,321.7,252.3,321.7,252.3z"/>
				<path d="M347,280.1c0.8,0.5,1.6,0.9,2.2,0.9c0.3,0,0.6-0.1,0.8-0.3c0.2-0.2,0.5-0.5,0.8-1.2L347,280.1z M347,280.1
					c-0.2-0.9-0.3-1.4-0.1-2.1c0.1-0.2,0.3-0.5,0.8-0.7c0.4-0.2,0.8-0.1,1,0l0,0h0c0.3,0.2,0.6,0.3,0.8,0.5c0.1,0,0.2,0.1,0.2,0.1
					c0.3,0.2,0.6,0.4,0.8,0.5c0.2,0.2,0.3,0.3,0.3,0.4c0,0.1,0,0.3-0.1,0.7L347,280.1z M345.4,280.7c-0.3-1-0.5-2-0.1-3.2v0l0,0
					c0.3-0.8,1-1.4,1.7-1.8c0.8-0.3,1.7-0.4,2.6,0.2c0.2,0.1,0.4,0.3,0.7,0.4c0.1,0.1,0.2,0.1,0.3,0.2c0.4,0.2,0.8,0.4,1.1,0.7
					c0.3,0.3,0.7,0.7,0.8,1.3c0.2,0.5,0.1,1.1-0.2,1.7l0,0c-0.3,0.8-0.8,1.4-1.3,1.9c-0.6,0.4-1.2,0.6-1.8,0.6
					c-1.2,0-2.4-0.7-3.4-1.3c-0.2-0.1-0.3-0.3-0.3-0.5C345.4,280.8,345.4,280.8,345.4,280.7z"/>
				<path d="M360.5,298c0.8,0.5,1.6,0.9,2.2,0.9c0.3,0,0.6-0.1,0.8-0.3c0.2-0.2,0.5-0.5,0.8-1.2L360.5,298z M360.5,298
					c-0.2-0.9-0.3-1.4-0.1-2.1c0.1-0.2,0.3-0.5,0.8-0.7c0.4-0.2,0.8-0.1,1,0l0,0l0,0c0.3,0.2,0.6,0.3,0.8,0.5c0.1,0,0.2,0.1,0.2,0.1
					c0.3,0.2,0.6,0.4,0.8,0.5c0.2,0.2,0.3,0.3,0.3,0.4c0,0.1,0,0.3-0.1,0.7L360.5,298z M358.9,298.6c-0.3-1-0.5-2-0.1-3.2v0l0,0
					c0.3-0.8,1-1.4,1.7-1.8c0.8-0.3,1.7-0.4,2.6,0.2c0.2,0.1,0.4,0.3,0.7,0.4c0.1,0.1,0.2,0.1,0.3,0.2c0.4,0.2,0.8,0.4,1.1,0.7
					c0.3,0.3,0.7,0.7,0.8,1.2c0.2,0.6,0.1,1.1-0.2,1.7l0,0c-0.3,0.8-0.8,1.4-1.3,1.9c-0.6,0.4-1.2,0.6-1.8,0.6
					c-1.2,0-2.4-0.7-3.4-1.3c-0.2-0.1-0.3-0.3-0.3-0.5C359,298.7,359,298.7,358.9,298.6z"/>
				<path d="M350.6,337.4c0.4,0.9,0.9,1.6,1.4,1.9c0.2,0.2,0.5,0.2,0.8,0.2c0.3,0,0.7-0.2,1.3-0.6L350.6,337.4z M350.6,337.4
					c0.3-0.9,0.5-1.4,1.1-1.8c0.2-0.2,0.6-0.3,1-0.2c0.4,0.1,0.7,0.3,0.8,0.6l0,0l0,0c0.1,0.3,0.3,0.6,0.4,0.9
					c0,0.1,0.1,0.2,0.1,0.2c0.2,0.3,0.3,0.6,0.4,0.9c0.1,0.2,0.1,0.4,0,0.5c0,0.1-0.1,0.3-0.4,0.5L350.6,337.4z M348.9,337
					c0.3-0.9,0.6-1.9,1.6-2.8l0,0l0,0c0.7-0.5,1.6-0.7,2.4-0.6c0.8,0.1,1.7,0.6,2.1,1.6c0.1,0.2,0.2,0.5,0.4,0.7
					c0.1,0.1,0.1,0.2,0.2,0.3c0.2,0.4,0.4,0.8,0.5,1.2c0.1,0.4,0.2,1,0,1.5c-0.2,0.5-0.5,1-1.1,1.4l0,0c-0.7,0.5-1.4,0.8-2.1,0.9
					c-0.7,0.1-1.3-0.1-1.9-0.5c-1-0.7-1.7-1.9-2.1-3c-0.1-0.2-0.1-0.4,0-0.6C348.9,337.1,348.9,337,348.9,337z"/>
				<path d="M326.3,372.2c-0.2,1-0.1,1.8,0.1,2.4c0.1,0.3,0.3,0.5,0.6,0.6c0.3,0.1,0.7,0.3,1.4,0.2L326.3,372.2z M326.3,372.2
					c0.7-0.6,1.2-0.9,1.9-1c0.3,0,0.6,0.1,1,0.4c0.3,0.3,0.4,0.6,0.4,0.9l0,0v0c-0.1,0.3-0.1,0.7-0.1,1c0,0.1,0,0.2,0,0.3
					c0,0.4-0.1,0.7-0.2,1c-0.1,0.2-0.2,0.4-0.3,0.5c-0.1,0.1-0.3,0.2-0.6,0.2L326.3,372.2z M325.1,371c0.8-0.6,1.6-1.3,2.9-1.4l0,0
					l0,0c0.9-0.1,1.7,0.3,2.3,0.8c0.6,0.6,1.1,1.4,0.9,2.4c0,0.2-0.1,0.5-0.1,0.8c0,0.1,0,0.2,0,0.3c0,0.4-0.1,0.9-0.2,1.3
					c-0.1,0.4-0.4,0.9-0.8,1.3c-0.4,0.4-1,0.5-1.7,0.6l0,0c-0.9,0-1.6-0.1-2.2-0.4c-0.6-0.3-1.1-0.8-1.3-1.4
					c-0.5-1.1-0.4-2.5-0.2-3.7c0-0.2,0.1-0.4,0.3-0.5C325,371.1,325.1,371,325.1,371z"/>
				<path d="M300.5,386.4c-0.7,0.7-1.1,1.5-1.2,2.1c0,0.3,0,0.6,0.1,0.8c0.2,0.3,0.5,0.6,1.1,0.9L300.5,386.4z M300.5,386.4
					c0.9-0.1,1.4-0.1,2.1,0.2c0.2,0.1,0.5,0.4,0.6,0.8c0.1,0.4,0,0.8-0.2,1l0,0l0,0c-0.2,0.2-0.4,0.5-0.6,0.8
					c-0.1,0.1-0.1,0.1-0.2,0.2c-0.2,0.3-0.4,0.6-0.6,0.7c-0.2,0.2-0.3,0.2-0.5,0.3c-0.1,0-0.3,0-0.6-0.2L300.5,386.4z M300.1,384.7
					c1-0.1,2-0.2,3.2,0.3l0,0l0,0c0.8,0.4,1.3,1.1,1.5,1.9c0.2,0.8,0.1,1.8-0.5,2.5c-0.2,0.2-0.3,0.4-0.5,0.6
					c-0.1,0.1-0.1,0.2-0.2,0.3c-0.2,0.3-0.5,0.7-0.9,1c-0.3,0.3-0.8,0.6-1.4,0.7c-0.6,0.1-1.1-0.1-1.7-0.4l0,0
					c-0.8-0.4-1.3-1-1.7-1.6c-0.4-0.6-0.4-1.3-0.4-1.9c0.2-1.2,1-2.3,1.8-3.2c0.1-0.1,0.3-0.2,0.5-0.3
					C300,384.8,300.1,384.7,300.1,384.7z"/>
				<path d="M171.7,386.4c-1-0.1-1.8-0.1-2.4,0.2c-0.3,0.1-0.5,0.3-0.6,0.6c-0.1,0.3-0.2,0.7-0.2,1.4L171.7,386.4z M171.7,386.4
					c0.6,0.7,0.9,1.1,1,1.9c0,0.3-0.1,0.6-0.4,1c-0.3,0.3-0.6,0.5-0.9,0.4l0,0l0,0c-0.3,0-0.7-0.1-1-0.1c-0.1,0-0.2,0-0.3,0
					c-0.4,0-0.7-0.1-1-0.1c-0.3-0.1-0.4-0.2-0.5-0.2c-0.1-0.1-0.2-0.3-0.2-0.6L171.7,386.4z M172.9,385.2c0.6,0.7,1.3,1.5,1.5,2.8v0
					l0,0c0.1,0.8-0.2,1.7-0.8,2.3c-0.5,0.6-1.4,1.1-2.4,1c-0.2,0-0.5,0-0.8-0.1c-0.1,0-0.2,0-0.3,0c-0.4,0-0.9-0.1-1.3-0.2
					c-0.4-0.1-0.9-0.3-1.3-0.8c-0.4-0.4-0.6-1-0.6-1.6l0,0c-0.1-0.9,0-1.6,0.4-2.3c0.3-0.6,0.8-1.1,1.4-1.4c1.1-0.5,2.5-0.5,3.6-0.3
					c0.2,0,0.4,0.1,0.5,0.3C172.8,385.1,172.9,385.1,172.9,385.2z"/>
				<path d="M146.4,347c-0.9-0.5-1.6-0.8-2.2-0.7c-0.3,0-0.6,0.1-0.8,0.3c-0.2,0.2-0.5,0.6-0.7,1.2L146.4,347z M146.4,347
					c0.3,0.9,0.4,1.4,0.3,2.1c-0.1,0.2-0.3,0.6-0.7,0.8c-0.4,0.2-0.7,0.2-1,0l0,0l0,0c-0.3-0.2-0.6-0.3-0.9-0.4
					c-0.1,0-0.2-0.1-0.2-0.1c-0.4-0.2-0.6-0.3-0.9-0.5c-0.2-0.2-0.3-0.3-0.3-0.4c0-0.1-0.1-0.3,0-0.7L146.4,347z M147.9,346.3
					c0.3,0.9,0.7,1.9,0.4,3.2v0l0,0c-0.2,0.8-0.8,1.5-1.6,1.9c-0.7,0.4-1.7,0.5-2.6,0c-0.2-0.1-0.4-0.2-0.7-0.3
					c-0.1,0-0.2-0.1-0.3-0.1c-0.4-0.2-0.8-0.4-1.1-0.7c-0.4-0.3-0.7-0.7-0.9-1.2c-0.2-0.5-0.2-1.1,0-1.8l0,0c0.3-0.8,0.7-1.5,1.2-2
					c0.5-0.5,1.1-0.7,1.8-0.7c1.2-0.1,2.5,0.5,3.5,1.1c0.2,0.1,0.3,0.3,0.4,0.5C147.9,346.2,147.9,346.3,147.9,346.3z"/>
				<path d="M132.5,313.2c-0.6-0.8-1.2-1.3-1.8-1.5c-0.3-0.1-0.6-0.1-0.8,0c-0.3,0.1-0.7,0.3-1.1,0.9c-0.2,0.3-0.3,0.5-0.3,0.6
					c0,0.1,0,0.3,0.2,0.5c0.1,0.2,0.3,0.5,0.6,0.8c0.1,0.1,0.1,0.1,0.2,0.2c0.2,0.2,0.4,0.5,0.6,0.7h0l0,0c0.2,0.2,0.5,0.4,1,0.4
					c0.4,0,0.8-0.2,0.9-0.4C132.4,314.6,132.4,314.1,132.5,313.2z M134.2,313.1c-0.1,1-0.1,2-0.9,3.1l0,0l0,0
					c-0.5,0.7-1.4,1.1-2.2,1.1c-0.8,0.1-1.8-0.2-2.4-1c-0.2-0.2-0.3-0.4-0.5-0.6c-0.1-0.1-0.1-0.2-0.2-0.2c-0.3-0.3-0.6-0.7-0.8-1.1
					c-0.2-0.4-0.4-0.9-0.4-1.5c0-0.6,0.3-1.1,0.7-1.6l0,0c0.6-0.7,1.2-1.1,1.8-1.4c0.7-0.2,1.3-0.2,1.9,0c1.1,0.4,2.1,1.4,2.8,2.4
					c0.1,0.2,0.2,0.4,0.2,0.6C134.2,313,134.2,313.1,134.2,313.1z"/>
				<path d="M147.9,255.2c-0.3-1-0.6-1.7-1.1-2.1c-0.2-0.2-0.5-0.3-0.8-0.3c-0.3,0-0.8,0.1-1.4,0.4L147.9,255.2z M147.9,255.2
					c-0.4,0.8-0.7,1.3-1.3,1.7c-0.2,0.1-0.6,0.2-1,0c-0.4-0.1-0.7-0.4-0.8-0.7l0,0v0c-0.1-0.3-0.2-0.6-0.3-0.9
					c0-0.1-0.1-0.2-0.1-0.3c-0.1-0.4-0.2-0.7-0.3-0.9c0-0.3,0-0.4,0-0.5c0.1-0.1,0.2-0.3,0.5-0.4L147.9,255.2z M149.5,255.8
					c-0.4,0.9-0.9,1.8-2,2.5l0,0l0,0c-0.7,0.4-1.7,0.5-2.4,0.2c-0.8-0.3-1.6-0.9-1.8-1.8c-0.1-0.2-0.2-0.5-0.3-0.7
					c0-0.1-0.1-0.2-0.1-0.3c-0.1-0.4-0.3-0.8-0.3-1.3c-0.1-0.5-0.1-1,0.2-1.5c0.2-0.5,0.7-0.9,1.3-1.2l0,0c0.8-0.4,1.5-0.6,2.2-0.6
					c0.7,0,1.3,0.3,1.8,0.7c0.9,0.8,1.4,2.1,1.7,3.2c0,0.2,0,0.4-0.1,0.6C149.5,255.7,149.5,255.7,149.5,255.8z"/>
				<path d="M174.5,216.7c0.1-1,0.1-1.8-0.2-2.4c-0.1-0.3-0.3-0.5-0.6-0.6c-0.3-0.1-0.7-0.2-1.4-0.2L174.5,216.7z M174.5,216.7
					c-0.7,0.6-1.1,0.9-1.9,1c-0.3,0-0.6-0.1-1-0.4c-0.3-0.3-0.5-0.6-0.4-0.9l0,0v0c0-0.3,0.1-0.7,0.1-1c0-0.1,0-0.2,0-0.3
					c0-0.4,0.1-0.7,0.1-1c0.1-0.3,0.2-0.4,0.2-0.5c0.1-0.1,0.3-0.2,0.6-0.2L174.5,216.7z M175.8,217.9c-0.7,0.6-1.5,1.3-2.8,1.5l0,0
					l0,0c-0.8,0.1-1.7-0.2-2.3-0.8c-0.6-0.5-1.1-1.4-1-2.4c0-0.2,0-0.5,0.1-0.8c0-0.1,0-0.2,0-0.3c0-0.4,0.1-0.9,0.2-1.3
					c0.1-0.4,0.3-0.9,0.8-1.3c0.4-0.4,1-0.6,1.6-0.6l0,0c0.9-0.1,1.6,0,2.3,0.4c0.6,0.3,1.1,0.8,1.4,1.4c0.5,1.1,0.5,2.5,0.3,3.6
					c0,0.2-0.1,0.4-0.3,0.5C175.8,217.8,175.8,217.8,175.8,217.9z"/>
				<path d="M344.1,219.5c1,0.1,1.8,0.1,2.4-0.2c0.3-0.1,0.5-0.3,0.6-0.6c0.1-0.3,0.2-0.7,0.2-1.4L344.1,219.5z M344.1,219.5
					c-0.6-0.7-0.9-1.1-1-1.9c0-0.3,0.1-0.6,0.4-1c0.3-0.3,0.6-0.5,0.9-0.4l0,0l0,0c0.3,0,0.7,0.1,1,0.1c0.1,0,0.2,0,0.3,0
					c0.4,0,0.7,0.1,1,0.1c0.3,0.1,0.4,0.2,0.5,0.2c0.1,0.1,0.2,0.3,0.2,0.6L344.1,219.5z M342.9,220.7c-0.6-0.7-1.3-1.5-1.5-2.8v0
					l0,0c-0.1-0.8,0.2-1.7,0.8-2.3c0.5-0.6,1.4-1.1,2.4-1c0.2,0,0.5,0,0.8,0.1c0.1,0,0.2,0,0.3,0c0.4,0,0.9,0.1,1.3,0.2
					c0.4,0.1,0.9,0.3,1.3,0.8c0.4,0.4,0.6,1,0.6,1.6v0c0.1,0.9,0,1.6-0.4,2.3c-0.3,0.6-0.8,1.1-1.4,1.4c-1.1,0.5-2.5,0.5-3.6,0.3
					c-0.2,0-0.4-0.1-0.5-0.3C343,220.8,343,220.8,342.9,220.7z"/>
				<path d="M369.5,258.9c0.9,0.5,1.6,0.8,2.2,0.7c0.3,0,0.6-0.1,0.8-0.3c0.2-0.2,0.5-0.6,0.7-1.2L369.5,258.9z M369.5,258.9
					c-0.3-0.9-0.4-1.4-0.3-2.1c0.1-0.2,0.3-0.6,0.7-0.8c0.4-0.2,0.7-0.2,1,0l0,0h0c0.3,0.2,0.6,0.3,0.9,0.4c0.1,0,0.2,0.1,0.2,0.1
					c0.4,0.2,0.6,0.3,0.9,0.5c0.2,0.2,0.3,0.3,0.3,0.4c0,0.1,0.1,0.3,0,0.7L369.5,258.9z M367.9,259.6c-0.3-0.9-0.7-1.9-0.4-3.2v0
					l0,0c0.2-0.8,0.8-1.5,1.6-1.9c0.7-0.4,1.7-0.5,2.6,0c0.2,0.1,0.4,0.2,0.7,0.4c0.1,0,0.2,0.1,0.3,0.1c0.4,0.2,0.8,0.4,1.1,0.7
					c0.4,0.3,0.7,0.7,0.9,1.2c0.2,0.5,0.2,1.1,0,1.8h0c-0.3,0.8-0.7,1.5-1.2,2c-0.5,0.5-1.1,0.7-1.8,0.7c-1.2,0.1-2.5-0.5-3.5-1.1
					c-0.2-0.1-0.3-0.3-0.4-0.5C367.9,259.7,367.9,259.6,367.9,259.6z"/>
				<path d="M377.8,305c0.6,0.8,1.2,1.3,1.8,1.5c0.3,0.1,0.6,0.1,0.8,0c0.3-0.1,0.7-0.4,1.1-0.9L377.8,305z M377.8,305
					c0.1-0.9,0.1-1.4,0.6-2.1c0.1-0.2,0.5-0.4,0.9-0.5c0.4,0,0.8,0.1,1,0.3l0,0v0c0.2,0.2,0.4,0.5,0.6,0.7c0.1,0.1,0.1,0.1,0.2,0.2
					c0.3,0.3,0.5,0.5,0.6,0.8c0.1,0.2,0.2,0.4,0.2,0.5c0,0.1-0.1,0.3-0.3,0.6L377.8,305z M376.1,305c0.1-1,0.1-2,0.9-3.1l0,0l0,0
					c0.5-0.7,1.4-1.1,2.2-1.2c0.8-0.1,1.8,0.2,2.4,1c0.2,0.2,0.3,0.4,0.5,0.6c0.1,0.1,0.1,0.2,0.2,0.2c0.3,0.3,0.6,0.6,0.8,1
					c0.2,0.4,0.4,0.9,0.4,1.4c0,0.6-0.3,1.1-0.7,1.6v0c-0.6,0.7-1.2,1.1-1.8,1.4c-0.7,0.2-1.3,0.2-1.9,0c-1.2-0.4-2.1-1.4-2.8-2.3
					c-0.1-0.2-0.2-0.4-0.2-0.6C376.1,305.1,376.1,305.1,376.1,305z"/>
				<path d="M367.9,350.7c0.3,1,0.6,1.7,1.1,2.1c0.2,0.2,0.5,0.3,0.8,0.3c0.3,0,0.8-0.1,1.4-0.4L367.9,350.7z M367.9,350.7
					c0.4-0.8,0.7-1.3,1.3-1.7c0.2-0.1,0.6-0.2,1,0c0.4,0.1,0.7,0.4,0.8,0.7l0,0v0c0.1,0.3,0.2,0.6,0.3,0.9c0,0.1,0.1,0.2,0.1,0.3
					c0.1,0.4,0.2,0.7,0.3,0.9c0,0.3,0,0.4,0,0.5c-0.1,0.1-0.2,0.3-0.5,0.4L367.9,350.7z M366.3,350.1c0.4-0.9,0.9-1.8,2-2.5l0,0l0,0
					c0.7-0.4,1.7-0.5,2.4-0.2c0.8,0.3,1.6,0.9,1.8,1.8c0.1,0.2,0.2,0.5,0.3,0.7c0,0.1,0.1,0.2,0.1,0.3c0.1,0.4,0.3,0.8,0.3,1.3
					c0.1,0.5,0.1,1-0.2,1.5c-0.2,0.5-0.7,0.9-1.3,1.2l0,0c-0.8,0.4-1.5,0.6-2.2,0.6c-0.7,0-1.3-0.3-1.8-0.7
					c-0.9-0.8-1.4-2.1-1.7-3.2c0-0.2,0-0.4,0.1-0.6C366.3,350.2,366.3,350.2,366.3,350.1z"/>
				<path d="M341.3,389.2c-0.1,1-0.1,1.8,0.2,2.4c0.1,0.3,0.3,0.5,0.6,0.6c0.3,0.1,0.7,0.2,1.4,0.2L341.3,389.2z M341.3,389.2
					c0.7-0.6,1.1-0.9,1.9-1c0.3,0,0.6,0.1,1,0.4c0.3,0.3,0.5,0.6,0.4,0.9l0,0v0c0,0.3-0.1,0.7-0.1,1c0,0.1,0,0.2,0,0.3
					c0,0.4-0.1,0.7-0.1,1c-0.1,0.2-0.2,0.4-0.2,0.5c-0.1,0.1-0.3,0.2-0.6,0.2L341.3,389.2z M340.1,388c0.7-0.6,1.5-1.3,2.8-1.5l0,0
					l0,0c0.8-0.1,1.7,0.2,2.3,0.8c0.6,0.5,1.1,1.4,1,2.4c0,0.2,0,0.5-0.1,0.8c0,0.1,0,0.2,0,0.3c0,0.4-0.1,0.9-0.2,1.3
					c-0.1,0.4-0.3,0.9-0.8,1.3c-0.4,0.4-1,0.6-1.6,0.6l0,0c-0.9,0.1-1.6,0-2.3-0.4c-0.6-0.3-1.1-0.8-1.4-1.4
					c-0.5-1.1-0.5-2.5-0.3-3.6c0-0.2,0.1-0.4,0.3-0.5C340,388.1,340,388.1,340.1,388z"/>
				<path d="M302,414.6c-0.5,0.9-0.8,1.6-0.7,2.2c0,0.3,0.1,0.6,0.3,0.8c0.2,0.2,0.6,0.5,1.2,0.7L302,414.6z M302,414.6
					c0.9-0.3,1.4-0.4,2.1-0.3c0.2,0.1,0.6,0.3,0.8,0.7c0.2,0.4,0.2,0.7,0,1l0,0l0,0c-0.2,0.3-0.3,0.6-0.4,0.9c0,0.1-0.1,0.2-0.1,0.2
					c-0.2,0.4-0.3,0.6-0.5,0.9c-0.2,0.2-0.3,0.3-0.4,0.3c-0.1,0-0.3,0.1-0.7,0L302,414.6z M301.3,413c0.9-0.3,1.9-0.7,3.2-0.4h0l0,0
					c0.8,0.2,1.5,0.9,1.9,1.6c0.4,0.7,0.5,1.7,0,2.6c-0.1,0.2-0.2,0.4-0.3,0.7c0,0.1-0.1,0.2-0.1,0.3c-0.2,0.4-0.4,0.8-0.7,1.1
					c-0.3,0.4-0.7,0.7-1.2,0.9c-0.5,0.2-1.1,0.2-1.7,0l0,0c-0.8-0.3-1.5-0.7-2-1.2c-0.5-0.5-0.7-1.2-0.7-1.8
					c-0.1-1.2,0.5-2.5,1.1-3.5c0.1-0.2,0.3-0.3,0.5-0.4C301.2,413.1,301.2,413.1,301.3,413z"/>
				<path d="M256,423c-0.8,0.6-1.3,1.2-1.5,1.8c-0.1,0.3-0.1,0.6,0,0.8c0.1,0.3,0.3,0.7,0.9,1.1L256,423z M256,423
					c0.9,0.1,1.4,0.2,2,0.6c0.2,0.2,0.4,0.5,0.4,0.9c0,0.4-0.1,0.8-0.4,1l0,0l0,0c-0.2,0.2-0.5,0.4-0.7,0.6
					c-0.1,0.1-0.1,0.1-0.2,0.2c-0.3,0.3-0.5,0.5-0.8,0.6c-0.2,0.1-0.4,0.2-0.5,0.2c-0.1,0-0.3-0.1-0.6-0.3L256,423z M255.9,421.3
					c1,0.1,2,0.1,3.1,0.9l0,0l0,0c0.7,0.5,1.1,1.4,1.1,2.2c0.1,0.8-0.2,1.8-1,2.4c-0.2,0.2-0.4,0.3-0.6,0.5
					c-0.1,0.1-0.2,0.1-0.2,0.2c-0.3,0.3-0.7,0.6-1,0.8c-0.4,0.2-0.9,0.4-1.5,0.4c-0.6,0-1.1-0.3-1.6-0.7l0,0
					c-0.7-0.6-1.1-1.2-1.3-1.9c-0.2-0.7-0.2-1.3,0-1.9c0.4-1.1,1.4-2.1,2.4-2.8c0.2-0.1,0.4-0.2,0.6-0.2
					C255.8,421.2,255.9,421.3,255.9,421.3z"/>
				<path d="M154,385.7c-1-0.1-1.8,0-2.3,0.3c-0.3,0.1-0.5,0.3-0.6,0.6c-0.1,0.3-0.2,0.7-0.1,1.4L154,385.7z M154,385.7
					c0.6,0.7,1,1.1,1.1,1.8c0.1,0.2,0,0.6-0.3,1c-0.3,0.3-0.6,0.5-0.9,0.5l0,0h0c-0.3,0-0.7,0-1,0c-0.1,0-0.2,0-0.3,0
					c-0.4,0-0.7,0-1-0.1c-0.3-0.1-0.4-0.1-0.5-0.2c-0.1-0.1-0.2-0.2-0.2-0.6L154,385.7z M155.1,384.4c0.7,0.7,1.4,1.5,1.7,2.8l0,0
					l0,0c0.2,0.8-0.1,1.7-0.6,2.4c-0.5,0.7-1.3,1.2-2.3,1.1c-0.2,0-0.5,0-0.8,0c-0.1,0-0.2,0-0.3,0c-0.4,0-0.9,0-1.3-0.1
					c-0.5-0.1-0.9-0.3-1.3-0.7c-0.4-0.4-0.6-1-0.7-1.6l0,0c-0.1-0.9,0-1.6,0.2-2.3c0.3-0.7,0.7-1.1,1.3-1.4c1.1-0.6,2.4-0.6,3.6-0.5
					c0.2,0,0.4,0.1,0.5,0.3C155,384.3,155,384.3,155.1,384.4z"/>
				<path d="M160.3,326.2c-0.9-0.4-1.7-0.6-2.3-0.5c-0.3,0-0.5,0.2-0.7,0.4c-0.2,0.2-0.4,0.6-0.6,1.3L160.3,326.2z M160.3,326.2
					c0.4,0.8,0.5,1.3,0.4,2.1c0,0.3-0.3,0.6-0.6,0.8c-0.4,0.2-0.7,0.3-1,0.1l0,0l0,0c-0.3-0.1-0.6-0.2-0.9-0.3
					c-0.1,0-0.2-0.1-0.3-0.1c-0.4-0.1-0.7-0.3-0.9-0.4c-0.2-0.1-0.3-0.3-0.4-0.4c-0.1-0.1-0.1-0.3,0-0.7L160.3,326.2z M161.8,325.4
					c0.4,0.9,0.8,1.9,0.6,3.2v0l0,0c-0.1,0.8-0.7,1.6-1.4,2c-0.7,0.4-1.7,0.7-2.6,0.2c-0.2-0.1-0.5-0.2-0.7-0.3
					c-0.1,0-0.2-0.1-0.3-0.1c-0.4-0.1-0.8-0.3-1.2-0.6c-0.4-0.2-0.8-0.6-1-1.1c-0.2-0.5-0.3-1.1-0.1-1.7l0,0c0.2-0.9,0.5-1.6,1-2.1
					c0.5-0.5,1.1-0.8,1.7-0.9c1.2-0.2,2.5,0.3,3.6,0.8c0.2,0.1,0.3,0.2,0.4,0.4C161.8,325.3,161.8,325.3,161.8,325.4z"/>
				<path d="M146.1,293.7c-0.7-0.7-1.4-1.2-2-1.3c-0.3-0.1-0.6,0-0.8,0.1c-0.3,0.1-0.6,0.4-1,1L146.1,293.7z M146.1,293.7
					c0.1,0.9,0.1,1.5-0.3,2.1c-0.1,0.2-0.4,0.5-0.9,0.6c-0.4,0.1-0.8,0-1-0.2l0,0h0c-0.2-0.2-0.5-0.4-0.7-0.6
					c-0.1-0.1-0.1-0.1-0.2-0.2c-0.3-0.3-0.5-0.5-0.7-0.7c-0.2-0.2-0.2-0.4-0.2-0.5c0-0.1,0-0.3,0.2-0.6L146.1,293.7z M147.8,293.4
					c0.1,1,0.1,2-0.5,3.2l0,0l0,0c-0.4,0.8-1.2,1.2-2,1.4c-0.8,0.2-1.8,0-2.5-0.7c-0.2-0.2-0.4-0.3-0.6-0.5
					c-0.1-0.1-0.2-0.1-0.3-0.2c-0.3-0.3-0.7-0.6-0.9-0.9c-0.3-0.4-0.5-0.8-0.6-1.4c0-0.6,0.1-1.1,0.5-1.7l0,0c0.5-0.7,1-1.3,1.6-1.6
					c0.6-0.3,1.3-0.4,1.9-0.3c1.2,0.2,2.3,1.1,3.1,2c0.1,0.1,0.2,0.3,0.2,0.5C147.8,293.3,147.8,293.3,147.8,293.4z"/>
				<path d="M166,251.2c-0.4-0.9-0.9-1.6-1.4-1.9c-0.3-0.2-0.5-0.2-0.8-0.2c-0.3,0-0.7,0.2-1.3,0.6L166,251.2z M166,251.2
					c-0.3,0.9-0.4,1.4-1,1.9c-0.2,0.2-0.6,0.3-1,0.2c-0.4-0.1-0.7-0.3-0.9-0.5l0,0h0c-0.1-0.3-0.3-0.6-0.5-0.8
					c0-0.1-0.1-0.2-0.1-0.2c-0.2-0.3-0.3-0.6-0.4-0.9c-0.1-0.2-0.1-0.4,0-0.5c0-0.1,0.1-0.3,0.4-0.5L166,251.2z M167.6,251.5
					c-0.3,1-0.6,2-1.5,2.8h0l0,0c-0.6,0.6-1.6,0.8-2.4,0.6c-0.8-0.1-1.7-0.6-2.1-1.5c-0.1-0.2-0.2-0.4-0.4-0.7
					c-0.1-0.1-0.1-0.2-0.2-0.3c-0.2-0.4-0.4-0.8-0.6-1.2c-0.1-0.4-0.2-1-0.1-1.5c0.2-0.6,0.5-1,1-1.4h0c0.7-0.5,1.4-0.9,2.1-0.9
					c0.7-0.1,1.3,0.1,1.9,0.4c1,0.6,1.7,1.8,2.2,2.9c0.1,0.2,0.1,0.4,0,0.6C167.7,251.4,167.6,251.5,167.6,251.5z"/>
				<path d="M199.1,218.1c-0.1-1-0.3-1.8-0.7-2.3c-0.2-0.2-0.4-0.4-0.7-0.5c-0.3-0.1-0.8-0.1-1.4,0.1L199.1,218.1z M199.1,218.1
					c-0.5,0.7-0.9,1.1-1.6,1.4c-0.2,0.1-0.6,0.1-1-0.1c-0.4-0.2-0.6-0.5-0.6-0.8l0,0v0c0-0.3-0.1-0.7-0.1-1c0-0.1,0-0.2,0-0.3
					c-0.1-0.4-0.1-0.7-0.1-1c0-0.3,0.1-0.4,0.1-0.5c0.1-0.1,0.2-0.2,0.6-0.3L199.1,218.1z M200.6,219c-0.6,0.8-1.2,1.6-2.4,2.1h0
					l0,0c-0.8,0.3-1.7,0.2-2.4-0.2c-0.7-0.4-1.4-1.1-1.5-2.1c0-0.2-0.1-0.5-0.1-0.8c0-0.1,0-0.2-0.1-0.3c-0.1-0.4-0.1-0.9-0.1-1.3
					c0-0.5,0.1-1,0.4-1.4c0.3-0.5,0.8-0.8,1.5-1v0c0.8-0.3,1.6-0.3,2.3-0.2c0.7,0.2,1.2,0.5,1.6,1c0.8,0.9,1,2.3,1.1,3.5
					c0,0.2,0,0.4-0.2,0.6C200.7,218.9,200.6,218.9,200.6,219z"/>
				<path d="M371.9,233.5c1-0.3,1.7-0.6,2.1-1.1c0.2-0.2,0.3-0.5,0.3-0.8c0-0.3-0.1-0.8-0.4-1.4c-0.2-0.3-0.3-0.5-0.4-0.5
					c-0.1-0.1-0.3-0.1-0.5,0c-0.3,0-0.6,0.1-0.9,0.3c-0.1,0-0.2,0.1-0.3,0.1c-0.3,0.1-0.6,0.2-0.9,0.3h0l0,0
					c-0.3,0.1-0.6,0.3-0.7,0.8c-0.1,0.4-0.1,0.8,0,1C370.6,232.9,371.1,233.1,371.9,233.5z M371.3,235.1c-0.9-0.4-1.8-0.9-2.5-2l0,0
					l0,0c-0.4-0.7-0.5-1.7-0.2-2.4c0.3-0.8,0.9-1.6,1.8-1.9c0.2-0.1,0.5-0.2,0.7-0.3c0.1,0,0.2-0.1,0.3-0.1c0.4-0.1,0.8-0.3,1.3-0.3
					c0.5-0.1,1-0.1,1.5,0.2c0.5,0.2,0.9,0.7,1.2,1.3l0,0c0.4,0.8,0.6,1.5,0.6,2.2c0,0.7-0.3,1.3-0.7,1.8c-0.8,0.9-2.1,1.4-3.2,1.7
					c-0.2,0.1-0.4,0-0.6-0.1C371.4,235.2,371.3,235.1,371.3,235.1z"/>
				<path d="M398.7,272c1,0.1,1.8,0,2.3-0.3c0.3-0.1,0.5-0.3,0.6-0.6c0.1-0.3,0.2-0.7,0.1-1.4L398.7,272z M398.7,272
					c-0.6-0.7-1-1.1-1.1-1.8c-0.1-0.2,0-0.6,0.3-1c0.3-0.3,0.6-0.5,0.9-0.5l0,0h0c0.3,0,0.7,0,1,0c0.1,0,0.2,0,0.3,0
					c0.4,0,0.7,0,1,0.1c0.3,0.1,0.4,0.1,0.5,0.2c0.1,0.1,0.2,0.3,0.2,0.6L398.7,272z M397.6,273.3c-0.7-0.7-1.4-1.5-1.7-2.8l0,0l0,0
					c-0.2-0.8,0.1-1.7,0.6-2.4c0.5-0.7,1.3-1.2,2.3-1.1c0.2,0,0.5,0,0.8,0c0.1,0,0.2,0,0.3,0c0.4,0,0.9,0,1.3,0.1
					c0.5,0.1,0.9,0.3,1.3,0.7c0.4,0.4,0.6,0.9,0.7,1.6l0,0c0.1,0.9,0,1.6-0.2,2.3c-0.3,0.7-0.7,1.1-1.3,1.4
					c-1.1,0.6-2.4,0.6-3.6,0.5c-0.2,0-0.4-0.1-0.5-0.3C397.6,273.3,397.6,273.3,397.6,273.3z"/>
				<path d="M410.7,317.3c0.9,0.4,1.7,0.6,2.3,0.5c0.3,0,0.5-0.2,0.7-0.4c0.2-0.2,0.4-0.6,0.6-1.3c0.1-0.4,0-0.6,0-0.7
					c-0.1-0.1-0.2-0.2-0.4-0.4c-0.2-0.1-0.5-0.3-0.9-0.4c-0.1,0-0.2-0.1-0.3-0.1c-0.3-0.1-0.6-0.2-0.9-0.3l0,0l0,0
					c-0.3-0.1-0.6-0.1-1,0.1c-0.4,0.2-0.6,0.6-0.6,0.8C410.2,315.9,410.4,316.5,410.7,317.3z M409.2,318.1c-0.4-0.9-0.8-1.9-0.6-3.2
					v0l0,0c0.1-0.8,0.7-1.6,1.4-2c0.7-0.4,1.7-0.7,2.6-0.2c0.2,0.1,0.5,0.2,0.7,0.3c0.1,0,0.2,0.1,0.3,0.1c0.4,0.1,0.8,0.3,1.2,0.6
					c0.4,0.2,0.8,0.6,1,1.1c0.2,0.5,0.3,1.1,0.1,1.7v0c-0.2,0.9-0.5,1.6-1,2.1c-0.5,0.5-1.1,0.8-1.7,0.9c-1.2,0.2-2.5-0.3-3.6-0.8
					c-0.2-0.1-0.3-0.2-0.4-0.4C409.3,318.2,409.3,318.2,409.2,318.1z"/>
				<path d="M406.6,364c0.7,0.7,1.4,1.2,2,1.3c0.3,0.1,0.6,0,0.8-0.1c0.3-0.1,0.6-0.4,1-1L406.6,364z M406.6,364
					c-0.1-0.9-0.1-1.5,0.3-2.1c0.1-0.2,0.4-0.5,0.9-0.6c0.4-0.1,0.8,0,1,0.2l0,0l0,0c0.2,0.2,0.5,0.4,0.7,0.6
					c0.1,0.1,0.1,0.1,0.2,0.2c0.3,0.3,0.5,0.5,0.7,0.7c0.2,0.2,0.2,0.4,0.2,0.5c0,0.1,0,0.3-0.2,0.6L406.6,364z M404.9,364.3
					c-0.1-1-0.1-2,0.5-3.2l0,0l0,0c0.4-0.8,1.2-1.2,2-1.4c0.8-0.2,1.8,0,2.5,0.7c0.2,0.2,0.4,0.3,0.6,0.5c0.1,0.1,0.2,0.1,0.3,0.2
					c0.3,0.3,0.7,0.6,0.9,0.9c0.3,0.4,0.5,0.8,0.6,1.4c0,0.6-0.1,1.1-0.5,1.7l0,0c-0.5,0.7-1,1.3-1.6,1.6c-0.6,0.3-1.3,0.4-1.9,0.3
					c-1.2-0.2-2.3-1.1-3.1-2c-0.1-0.1-0.2-0.3-0.2-0.5C404.9,364.4,404.9,364.3,404.9,364.3z"/>
				<path d="M378.7,395.6c0.4,0.9,0.9,1.6,1.4,1.9c0.3,0.2,0.5,0.2,0.8,0.2c0.3,0,0.7-0.2,1.3-0.6c0.3-0.2,0.4-0.4,0.4-0.5
					c0-0.1,0-0.3,0-0.5c-0.1-0.3-0.2-0.5-0.4-0.9c0-0.1-0.1-0.2-0.1-0.2c-0.2-0.3-0.3-0.6-0.5-0.8l0,0l0,0c-0.1-0.3-0.4-0.5-0.9-0.5
					c-0.4-0.1-0.8,0.1-1,0.2C379.2,394.2,379,394.7,378.7,395.6z M377,395.3c0.3-1,0.6-2,1.5-2.8l0,0l0,0c0.6-0.6,1.6-0.8,2.4-0.6
					c0.8,0.1,1.7,0.6,2.1,1.5c0.1,0.2,0.2,0.4,0.4,0.7c0.1,0.1,0.1,0.2,0.2,0.3c0.2,0.4,0.4,0.8,0.6,1.2c0.1,0.4,0.2,1,0.1,1.5
					c-0.1,0.5-0.5,1-1,1.4l0,0c-0.7,0.5-1.4,0.8-2.1,0.9c-0.7,0.1-1.3-0.1-1.9-0.4c-1-0.6-1.7-1.8-2.2-2.9c-0.1-0.2-0.1-0.4,0-0.6
					C377,395.4,377,395.3,377,395.3z"/>
				<path d="M341.2,432.3c0.1,1,0.3,1.8,0.7,2.3c0.2,0.2,0.4,0.4,0.7,0.5c0.3,0.1,0.8,0.1,1.4-0.1c0.4-0.1,0.5-0.2,0.6-0.3
					c0.1-0.1,0.1-0.3,0.1-0.5c0-0.3,0-0.6-0.1-1c0-0.1,0-0.2,0-0.3c-0.1-0.3-0.1-0.6-0.1-1v0l0,0c0-0.3-0.2-0.6-0.6-0.8
					c-0.4-0.2-0.8-0.2-1-0.1C342.1,431.1,341.8,431.6,341.2,432.3z M339.8,431.4c0.6-0.8,1.2-1.6,2.4-2.1h0l0,0
					c0.8-0.3,1.7-0.2,2.4,0.2c0.7,0.4,1.4,1.1,1.5,2.1c0,0.2,0.1,0.5,0.1,0.8c0,0.1,0,0.2,0.1,0.3c0.1,0.4,0.1,0.9,0.1,1.3
					c0,0.5-0.1,1-0.4,1.4c-0.3,0.5-0.8,0.8-1.5,1l0,0c-0.8,0.3-1.6,0.3-2.3,0.2c-0.7-0.2-1.2-0.5-1.6-1c-0.8-0.9-1-2.3-1.1-3.5
					c0-0.2,0-0.4,0.2-0.6C339.7,431.5,339.7,431.5,339.8,431.4z"/>
				<path d="M320,459.3c-0.2,1-0.3,1.8-0.1,2.4c0.1,0.3,0.3,0.5,0.5,0.7c0.3,0.2,0.7,0.3,1.4,0.4L320,459.3z M320,459.3
					c0.7-0.5,1.2-0.8,2-0.8c0.3,0,0.6,0.1,0.9,0.5c0.3,0.3,0.4,0.7,0.3,1l0,0l0,0c-0.1,0.3-0.1,0.6-0.2,0.9c0,0.1,0,0.2,0,0.3
					c-0.1,0.4-0.1,0.7-0.2,0.9c-0.1,0.2-0.2,0.4-0.3,0.4c-0.1,0.1-0.3,0.1-0.7,0.1L320,459.3z M318.9,458c0.8-0.5,1.7-1.1,3-1.2h0
					l0,0c0.9,0,1.7,0.4,2.2,1c0.6,0.6,0.9,1.5,0.7,2.5c-0.1,0.2-0.1,0.5-0.2,0.8c0,0.1,0,0.2-0.1,0.3c-0.1,0.4-0.2,0.9-0.3,1.3
					c-0.2,0.4-0.4,0.9-0.9,1.2c-0.5,0.3-1,0.5-1.7,0.4l0,0c-0.9,0-1.6-0.2-2.2-0.6c-0.6-0.4-1-0.9-1.2-1.5c-0.4-1.1-0.2-2.5,0.2-3.7
					c0.1-0.2,0.2-0.4,0.3-0.5C318.8,458.1,318.8,458.1,318.9,458z"/>
				<path d="M268.6,457.2c-0.6,0.8-0.9,1.6-0.9,2.2c0,0.3,0.1,0.6,0.2,0.8c0.2,0.3,0.5,0.5,1.2,0.8L268.6,457.2z M268.6,457.2
					c0.9-0.2,1.4-0.3,2.1-0.1c0.2,0.1,0.5,0.4,0.7,0.8c0.2,0.4,0.1,0.8,0,1l0,0l0,0c-0.2,0.3-0.3,0.6-0.5,0.8c0,0.1-0.1,0.2-0.1,0.2
					c-0.2,0.3-0.4,0.6-0.5,0.8c-0.2,0.2-0.3,0.3-0.4,0.3c-0.1,0-0.3,0-0.7-0.1L268.6,457.2z M268,455.6c1-0.2,2-0.5,3.2-0.1l0,0l0,0
					c0.8,0.3,1.4,1,1.7,1.7c0.3,0.8,0.4,1.8-0.2,2.6c-0.1,0.2-0.3,0.4-0.4,0.7c-0.1,0.1-0.1,0.2-0.2,0.3c-0.2,0.4-0.5,0.7-0.8,1.1
					c-0.3,0.3-0.7,0.7-1.3,0.8c-0.6,0.1-1.1,0.1-1.7-0.2l0,0c-0.8-0.3-1.4-0.8-1.9-1.3c-0.4-0.6-0.6-1.2-0.6-1.8
					c0-1.2,0.7-2.4,1.4-3.4c0.1-0.2,0.3-0.3,0.5-0.3C268,455.7,268,455.6,268,455.6z"/>
				<path d="M219.1,451.1c-0.8,0.6-1.4,1.2-1.6,1.7c-0.1,0.3-0.1,0.6,0,0.8c0.1,0.3,0.3,0.7,0.8,1.1L219.1,451.1z M219.1,451.1
					c0.9,0.1,1.4,0.2,2,0.7c0.2,0.2,0.4,0.5,0.4,1c0,0.4-0.1,0.8-0.4,0.9l0,0l0,0c-0.3,0.2-0.5,0.4-0.8,0.6
					c-0.1,0.1-0.1,0.1-0.2,0.2c-0.3,0.2-0.6,0.4-0.8,0.6c-0.2,0.1-0.4,0.2-0.5,0.1c-0.1,0-0.3-0.1-0.6-0.3L219.1,451.1z
					 M219.1,449.4c1,0.1,2,0.2,3.1,1l0,0l0,0c0.7,0.5,1,1.4,1,2.2c0,0.8-0.3,1.8-1.1,2.4c-0.2,0.1-0.4,0.3-0.6,0.5
					c-0.1,0.1-0.2,0.1-0.3,0.2c-0.3,0.3-0.7,0.5-1.1,0.8c-0.4,0.2-0.9,0.4-1.5,0.3c-0.6-0.1-1.1-0.3-1.6-0.8l0,0
					c-0.6-0.6-1.1-1.2-1.3-1.9c-0.2-0.7-0.2-1.3,0.1-1.9c0.4-1.1,1.5-2,2.5-2.7c0.2-0.1,0.4-0.2,0.6-0.1
					C219,449.4,219.1,449.4,219.1,449.4z"/>
				<path d="M183.5,472.2c-0.8,0.6-1.4,1.2-1.6,1.7c-0.1,0.3-0.1,0.5,0,0.8c0.1,0.3,0.3,0.7,0.8,1.1L183.5,472.2z M183.5,472.2
					c0.9,0.1,1.4,0.2,2,0.7c0.2,0.2,0.4,0.5,0.4,1c0,0.4-0.1,0.8-0.4,0.9l0,0v0c-0.3,0.2-0.5,0.4-0.8,0.6c-0.1,0.1-0.1,0.1-0.2,0.2
					c-0.3,0.2-0.6,0.4-0.8,0.6c-0.2,0.1-0.4,0.2-0.5,0.1c-0.1,0-0.3-0.1-0.6-0.3L183.5,472.2z M183.5,470.5c1,0.1,2,0.2,3.1,1l0,0
					l0,0c0.7,0.5,1,1.4,1,2.2c0,0.8-0.3,1.8-1.1,2.4c-0.2,0.1-0.4,0.3-0.6,0.5c-0.1,0.1-0.2,0.1-0.3,0.2c-0.3,0.3-0.7,0.5-1.1,0.8
					c-0.4,0.2-0.9,0.4-1.5,0.3c-0.6-0.1-1.1-0.3-1.6-0.8l0,0c-0.6-0.6-1.1-1.2-1.3-1.9c-0.2-0.7-0.1-1.3,0.1-1.9
					c0.4-1.1,1.5-2,2.5-2.7c0.2-0.1,0.4-0.2,0.6-0.1C183.4,470.5,183.5,470.5,183.5,470.5z"/>
				<path d="M195.2,503.6c-0.8,0.6-1.4,1.2-1.6,1.7c-0.1,0.3-0.1,0.6,0,0.8c0.1,0.3,0.3,0.7,0.8,1.1L195.2,503.6z M195.2,503.6
					c0.9,0.1,1.4,0.2,2,0.7c0.2,0.2,0.4,0.5,0.4,1c0,0.4-0.1,0.8-0.4,0.9l0,0l0,0c-0.3,0.2-0.5,0.4-0.8,0.6
					c-0.1,0.1-0.1,0.1-0.2,0.2c-0.3,0.2-0.6,0.4-0.8,0.6c-0.2,0.1-0.4,0.2-0.5,0.1c-0.1,0-0.3-0.1-0.6-0.3L195.2,503.6z
					 M195.2,501.9c1,0.1,2,0.2,3.1,1l0,0l0,0c0.7,0.5,1,1.4,1,2.2c0,0.8-0.3,1.8-1.1,2.4c-0.2,0.1-0.4,0.3-0.6,0.5
					c-0.1,0.1-0.2,0.1-0.3,0.2c-0.3,0.3-0.7,0.5-1.1,0.8c-0.4,0.2-0.9,0.4-1.5,0.3c-0.6-0.1-1.1-0.3-1.6-0.8l0,0
					c-0.6-0.6-1.1-1.2-1.3-1.9c-0.2-0.7-0.1-1.3,0.1-1.9c0.4-1.1,1.5-2,2.5-2.7c0.2-0.1,0.4-0.2,0.6-0.1
					C195.1,501.9,195.2,501.9,195.2,501.9z"/>
				<path d="M142.9,440.6c-0.9,0.3-1.7,0.7-2,1.2c-0.2,0.2-0.3,0.5-0.3,0.8c0,0.3,0.1,0.8,0.4,1.3L142.9,440.6z M142.9,440.6
					c0.8,0.4,1.3,0.6,1.7,1.2c0.1,0.2,0.2,0.6,0.1,1c-0.1,0.4-0.4,0.7-0.6,0.8l0,0h0c-0.3,0.1-0.6,0.2-0.9,0.4
					c-0.1,0-0.2,0.1-0.2,0.1c-0.4,0.2-0.7,0.3-0.9,0.3c-0.3,0.1-0.4,0-0.5,0c-0.1,0-0.3-0.2-0.5-0.5L142.9,440.6z M143.4,439
					c0.9,0.4,1.9,0.8,2.6,1.9v0l0,0c0.5,0.7,0.6,1.6,0.3,2.4c-0.2,0.8-0.8,1.6-1.7,1.9c-0.2,0.1-0.5,0.2-0.7,0.3
					c-0.1,0-0.2,0.1-0.3,0.1c-0.4,0.2-0.8,0.3-1.3,0.4c-0.5,0.1-1,0.1-1.5-0.1c-0.5-0.2-1-0.6-1.3-1.2l0,0c-0.4-0.8-0.7-1.5-0.7-2.2
					c0-0.7,0.2-1.3,0.6-1.8c0.7-1,2-1.5,3.1-1.9c0.2-0.1,0.4-0.1,0.6,0C143.3,438.9,143.3,439,143.4,439z"/>
				<path d="M113.4,398.4c-1,0-1.8,0.2-2.3,0.5c-0.2,0.2-0.4,0.4-0.5,0.7c-0.1,0.3-0.1,0.8,0,1.4L113.4,398.4z M113.4,398.4
					c0.7,0.6,1.1,1,1.3,1.7c0.1,0.2,0,0.6-0.2,1c-0.2,0.4-0.5,0.6-0.9,0.6l0,0l0,0c-0.3,0-0.7,0-1,0.1c-0.1,0-0.2,0-0.3,0
					c-0.4,0-0.7,0.1-1,0c-0.3,0-0.4-0.1-0.5-0.2c-0.1-0.1-0.2-0.2-0.3-0.6L113.4,398.4z M114.3,397c0.8,0.6,1.6,1.3,2,2.6l0,0l0,0
					c0.3,0.8,0,1.7-0.4,2.4c-0.4,0.7-1.2,1.3-2.2,1.4c-0.2,0-0.5,0-0.8,0.1c-0.1,0-0.2,0-0.3,0c-0.4,0-0.9,0.1-1.3,0
					c-0.5,0-1-0.2-1.4-0.5c-0.4-0.4-0.7-0.9-0.9-1.5v0c-0.2-0.9-0.2-1.6,0-2.3c0.2-0.7,0.6-1.2,1.1-1.6c1-0.7,2.4-0.8,3.6-0.9
					c0.2,0,0.4,0.1,0.5,0.2C114.2,396.9,114.3,397,114.3,397z"/>
				<path d="M97.6,349.4c-1-0.3-1.8-0.3-2.4-0.1c-0.3,0.1-0.5,0.2-0.7,0.5c-0.2,0.3-0.3,0.7-0.4,1.4L97.6,349.4z M97.6,349.4
					c0.5,0.8,0.7,1.2,0.8,2c0,0.3-0.2,0.6-0.5,0.9c-0.3,0.3-0.7,0.4-1,0.3l0,0h0c-0.3-0.1-0.6-0.1-0.9-0.2c-0.1,0-0.2,0-0.3-0.1
					c-0.4-0.1-0.7-0.2-0.9-0.3c-0.2-0.1-0.4-0.2-0.4-0.3c-0.1-0.1-0.1-0.3-0.1-0.7L97.6,349.4z M98.9,348.3c0.5,0.8,1.1,1.7,1.1,3v0
					l0,0c0,0.9-0.5,1.7-1.1,2.2c-0.6,0.5-1.5,0.9-2.5,0.6c-0.2-0.1-0.5-0.1-0.8-0.2c-0.1,0-0.2,0-0.3-0.1c-0.4-0.1-0.9-0.2-1.3-0.4
					c-0.4-0.2-0.9-0.5-1.2-0.9c-0.3-0.5-0.4-1.1-0.4-1.7l0,0c0.1-0.9,0.3-1.6,0.7-2.2c0.4-0.6,0.9-1,1.6-1.2
					c1.2-0.4,2.5-0.1,3.6,0.2c0.2,0.1,0.4,0.2,0.5,0.4C98.8,348.2,98.9,348.3,98.9,348.3z"/>
				<path d="M96.9,297.9c-0.8-0.5-1.6-0.9-2.2-0.9c-0.3,0-0.6,0.1-0.8,0.3c-0.2,0.2-0.5,0.5-0.8,1.2L96.9,297.9z M96.9,297.9
					c0.2,0.9,0.3,1.4,0.1,2.1c-0.1,0.2-0.3,0.5-0.8,0.7c-0.4,0.2-0.8,0.1-1,0h0h0c-0.3-0.2-0.6-0.3-0.8-0.5c-0.1,0-0.2-0.1-0.2-0.1
					c-0.3-0.2-0.6-0.4-0.8-0.5c-0.2-0.2-0.3-0.3-0.3-0.4c0-0.1,0-0.3,0.1-0.7L96.9,297.9z M98.5,297.3c0.3,1,0.5,2,0.1,3.2l0,0l0,0
					c-0.3,0.8-1,1.4-1.7,1.8c-0.8,0.3-1.7,0.4-2.6-0.2c-0.2-0.1-0.4-0.3-0.7-0.4c-0.1-0.1-0.2-0.1-0.3-0.2c-0.4-0.2-0.8-0.4-1.1-0.7
					c-0.3-0.3-0.7-0.7-0.8-1.3c-0.2-0.5-0.1-1.1,0.2-1.7l0,0c0.3-0.8,0.8-1.4,1.3-1.9c0.6-0.4,1.2-0.6,1.8-0.6
					c1.2,0,2.4,0.7,3.4,1.3c0.2,0.1,0.3,0.3,0.3,0.5C98.5,297.2,98.5,297.3,98.5,297.3z"/>
				<path d="M111.5,248.5c-0.6-0.8-1.3-1.3-1.8-1.5c-0.3-0.1-0.6-0.1-0.8,0c-0.3,0.1-0.7,0.4-1.1,0.9L111.5,248.5z M111.5,248.5
					c0,0.9-0.1,1.5-0.5,2.1c-0.1,0.2-0.5,0.4-0.9,0.5c-0.4,0-0.8-0.1-1-0.3l0,0l0,0c-0.2-0.2-0.4-0.5-0.7-0.7
					c-0.1-0.1-0.1-0.1-0.2-0.2c-0.3-0.3-0.5-0.5-0.6-0.8c-0.1-0.2-0.2-0.4-0.2-0.5c0-0.1,0-0.3,0.3-0.6L111.5,248.5z M113.2,248.4
					c0,1-0.1,2-0.8,3.1l0,0l0,0c-0.5,0.7-1.3,1.1-2.1,1.2c-0.8,0.1-1.8-0.1-2.4-0.9c-0.2-0.2-0.3-0.4-0.5-0.6
					c-0.1-0.1-0.2-0.2-0.2-0.2c-0.3-0.3-0.6-0.6-0.8-1c-0.2-0.4-0.4-0.9-0.4-1.4c0-0.6,0.2-1.1,0.7-1.6h0c0.6-0.7,1.1-1.2,1.8-1.4
					c0.7-0.3,1.3-0.2,1.9-0.1c1.2,0.4,2.1,1.3,2.9,2.3c0.1,0.2,0.2,0.4,0.2,0.6C113.2,248.3,113.2,248.3,113.2,248.4z"/>
				<path d="M409.3,222.4c1-0.2,1.8-0.4,2.2-0.9c0.2-0.2,0.4-0.4,0.4-0.7c0.1-0.3,0-0.8-0.2-1.4L409.3,222.4z M409.3,222.4
					c-0.8-0.5-1.2-0.8-1.5-1.5c-0.1-0.2-0.1-0.6,0.1-1c0.2-0.4,0.5-0.6,0.8-0.7l0,0h0c0.3-0.1,0.6-0.1,0.9-0.2c0.1,0,0.2,0,0.3-0.1
					c0.4-0.1,0.7-0.2,1-0.2c0.3,0,0.4,0,0.5,0.1c0.1,0.1,0.2,0.2,0.4,0.5L409.3,222.4z M408.6,223.9c-0.8-0.5-1.7-1.1-2.3-2.3v0l0,0
					c-0.4-0.8-0.3-1.7,0-2.5c0.3-0.8,1-1.5,2-1.6c0.2,0,0.5-0.1,0.8-0.2c0.1,0,0.2-0.1,0.3-0.1c0.4-0.1,0.8-0.2,1.3-0.2
					c0.5,0,1,0.1,1.5,0.3c0.5,0.3,0.8,0.8,1.1,1.4v0c0.3,0.8,0.4,1.6,0.3,2.3c-0.1,0.7-0.5,1.3-0.9,1.7c-0.9,0.8-2.2,1.2-3.4,1.3
					c-0.2,0-0.4,0-0.6-0.1C408.7,224,408.6,223.9,408.6,223.9z"/>
				<path d="M432.3,268.5c1,0.1,1.8,0.1,2.4-0.2c0.3-0.1,0.5-0.3,0.6-0.6c0.1-0.3,0.2-0.7,0.2-1.4L432.3,268.5z M432.3,268.5
					c-0.6-0.7-0.9-1.1-1-1.9c0-0.3,0.1-0.6,0.4-1c0.3-0.3,0.6-0.5,0.9-0.4l0,0h0c0.3,0,0.7,0.1,1,0.1c0.1,0,0.2,0,0.3,0
					c0.4,0,0.7,0.1,1,0.1c0.3,0.1,0.4,0.2,0.5,0.2c0.1,0.1,0.2,0.3,0.2,0.6L432.3,268.5z M431.1,269.7c-0.6-0.7-1.3-1.5-1.5-2.8v0
					l0,0c-0.1-0.8,0.2-1.7,0.8-2.3c0.5-0.6,1.4-1.1,2.4-1c0.2,0,0.5,0,0.8,0.1c0.1,0,0.2,0,0.3,0c0.4,0,0.9,0.1,1.3,0.2
					c0.4,0.1,0.9,0.3,1.3,0.8c0.4,0.4,0.6,1,0.6,1.6l0,0c0.1,0.9,0,1.6-0.4,2.3c-0.3,0.6-0.8,1.1-1.4,1.4c-1.1,0.5-2.5,0.5-3.6,0.3
					c-0.2,0-0.4-0.1-0.5-0.3C431.2,269.8,431.1,269.8,431.1,269.7z"/>
				<path d="M440.6,319.3c0.9,0.4,1.7,0.6,2.3,0.5c0.3,0,0.5-0.2,0.7-0.4c0.2-0.2,0.4-0.6,0.6-1.3L440.6,319.3z M440.6,319.3
					c-0.4-0.8-0.5-1.3-0.4-2.1c0-0.2,0.3-0.6,0.6-0.8c0.4-0.2,0.7-0.3,1-0.1l0,0h0c0.3,0.1,0.6,0.2,0.9,0.4c0.1,0,0.2,0.1,0.3,0.1
					c0.4,0.1,0.7,0.3,0.9,0.4c0.2,0.1,0.3,0.3,0.4,0.4c0,0.1,0.1,0.3,0,0.7L440.6,319.3z M439.1,320.2c-0.4-0.9-0.8-1.9-0.6-3.2v0
					l0,0c0.1-0.8,0.7-1.6,1.4-2c0.7-0.4,1.7-0.7,2.6-0.2c0.2,0.1,0.5,0.2,0.7,0.3c0.1,0,0.2,0.1,0.3,0.1c0.4,0.1,0.8,0.3,1.2,0.6
					c0.4,0.2,0.8,0.6,1,1.1c0.2,0.5,0.3,1.1,0.1,1.7l0,0c-0.2,0.9-0.5,1.6-1,2.1c-0.5,0.5-1.1,0.8-1.7,0.9c-1.2,0.2-2.5-0.3-3.6-0.8
					c-0.2-0.1-0.3-0.2-0.4-0.4C439.1,320.3,439.1,320.2,439.1,320.2z"/>
				<path d="M433.5,370.4c0.8,0.7,1.5,1.1,2.1,1.2c0.3,0,0.6,0,0.8-0.1c0.3-0.2,0.6-0.5,0.9-1.1L433.5,370.4z M433.5,370.4
					c-0.1-0.9-0.1-1.4,0.2-2.1c0.1-0.2,0.4-0.5,0.8-0.6c0.4-0.1,0.8,0,1,0.2l0,0v0c0.2,0.2,0.5,0.4,0.8,0.6c0.1,0.1,0.1,0.1,0.2,0.2
					c0.3,0.2,0.6,0.4,0.7,0.6c0.2,0.2,0.2,0.3,0.3,0.5c0,0.1,0,0.3-0.2,0.6L433.5,370.4z M431.9,370.7c-0.1-1-0.2-2,0.3-3.2l0,0l0,0
					c0.4-0.8,1.1-1.3,1.9-1.5c0.8-0.2,1.8-0.1,2.5,0.5c0.2,0.2,0.4,0.3,0.6,0.5c0.1,0.1,0.2,0.1,0.3,0.2c0.3,0.2,0.7,0.5,1,0.9
					c0.3,0.4,0.6,0.8,0.7,1.4c0.1,0.6-0.1,1.1-0.4,1.7l0,0c-0.4,0.8-1,1.3-1.6,1.7c-0.6,0.4-1.3,0.4-1.9,0.4c-1.2-0.2-2.3-1-3.2-1.8
					c-0.1-0.1-0.2-0.3-0.3-0.5C431.9,370.8,431.9,370.8,431.9,370.7z"/>
				<path d="M411.8,417c0.5,0.8,1.1,1.5,1.6,1.7c0.3,0.1,0.5,0.2,0.8,0.1c0.3-0.1,0.7-0.3,1.2-0.7L411.8,417z M411.8,417
					c0.2-0.9,0.3-1.4,0.8-2c0.2-0.2,0.5-0.4,1-0.3c0.4,0,0.7,0.2,0.9,0.5l0,0h0c0.2,0.3,0.4,0.5,0.5,0.8c0.1,0.1,0.1,0.1,0.2,0.2
					c0.2,0.3,0.4,0.6,0.5,0.8c0.1,0.2,0.1,0.4,0.1,0.5c0,0.1-0.1,0.3-0.4,0.6L411.8,417z M410.1,416.9c0.2-1,0.4-2,1.2-3l0,0l0,0
					c0.6-0.6,1.5-0.9,2.3-0.9c0.8,0,1.7,0.4,2.3,1.3c0.1,0.2,0.3,0.4,0.5,0.6c0.1,0.1,0.1,0.2,0.2,0.3c0.2,0.3,0.5,0.7,0.7,1.1
					c0.2,0.4,0.3,0.9,0.2,1.5c-0.1,0.6-0.4,1.1-0.9,1.5l0,0c-0.6,0.6-1.3,1-2,1.1c-0.7,0.2-1.3,0.1-1.9-0.2
					c-1.1-0.5-1.9-1.6-2.5-2.7c-0.1-0.2-0.1-0.4-0.1-0.6C410.1,417,410.1,417,410.1,416.9z"/>
				<path d="M377.3,455.2c0.3,1,0.6,1.7,1,2.1c0.2,0.2,0.5,0.3,0.8,0.3c0.3,0,0.8-0.1,1.4-0.4L377.3,455.2z M377.3,455.2
					c0.4-0.8,0.7-1.3,1.3-1.7c0.2-0.1,0.6-0.2,1,0c0.4,0.1,0.7,0.4,0.7,0.7l0,0l0,0c0.1,0.3,0.2,0.6,0.3,0.9c0,0.1,0.1,0.2,0.1,0.3
					c0.1,0.4,0.2,0.7,0.2,0.9c0,0.3,0,0.4-0.1,0.5c-0.1,0.1-0.2,0.3-0.5,0.4L377.3,455.2z M375.7,454.6c0.4-0.9,0.9-1.8,2.1-2.5h0
					l0,0c0.7-0.4,1.7-0.4,2.4-0.2c0.8,0.3,1.6,0.9,1.8,1.9c0.1,0.2,0.1,0.5,0.2,0.8c0,0.1,0.1,0.2,0.1,0.3c0.1,0.4,0.3,0.8,0.3,1.3
					c0.1,0.5,0,1-0.2,1.5c-0.3,0.5-0.7,0.9-1.3,1.2l0,0c-0.8,0.4-1.5,0.6-2.2,0.5c-0.7-0.1-1.3-0.3-1.8-0.8
					c-0.9-0.8-1.4-2.1-1.6-3.3c0-0.2,0-0.4,0.1-0.6C375.7,454.7,375.7,454.7,375.7,454.6z"/>
				<path d="M333,481.5c-0.1,1,0,1.8,0.3,2.3c0.1,0.3,0.3,0.4,0.6,0.6c0.3,0.1,0.7,0.2,1.4,0.1L333,481.5z M333,481.5
					c0.6-0.6,1.1-1,1.8-1.2c0.2-0.1,0.6,0,1,0.3c0.3,0.3,0.5,0.6,0.5,0.9l0,0v0c0,0.3,0,0.7,0,1c0,0.1,0,0.2,0,0.3
					c0,0.4,0,0.7-0.1,1c-0.1,0.3-0.1,0.4-0.2,0.5c-0.1,0.1-0.2,0.2-0.6,0.3L333,481.5z M331.7,480.4c0.7-0.7,1.4-1.4,2.7-1.7l0,0
					l0,0c0.8-0.2,1.7,0.1,2.4,0.6c0.7,0.5,1.2,1.3,1.1,2.3c0,0.2,0,0.5,0,0.8c0,0.1,0,0.2,0,0.3c0,0.4,0,0.9-0.1,1.3
					c-0.1,0.5-0.3,0.9-0.7,1.3c-0.4,0.4-0.9,0.7-1.6,0.7l0,0c-0.9,0.1-1.6,0.1-2.3-0.2c-0.7-0.3-1.1-0.7-1.5-1.3
					c-0.6-1.1-0.6-2.4-0.5-3.6c0-0.2,0.1-0.4,0.2-0.5C331.7,480.5,331.7,480.5,331.7,480.4z"/>
				<path d="M283,493.6c-0.3,0.9-0.5,1.7-0.4,2.3c0.1,0.3,0.2,0.5,0.4,0.7c0.2,0.2,0.7,0.4,1.3,0.5L283,493.6z M283,493.6
					c0.8-0.4,1.3-0.6,2-0.6c0.3,0,0.6,0.2,0.9,0.6c0.2,0.3,0.3,0.7,0.2,1l0,0l0,0c-0.1,0.3-0.2,0.6-0.3,0.9c0,0.1-0.1,0.2-0.1,0.3
					c-0.1,0.4-0.2,0.7-0.3,0.9c-0.1,0.2-0.2,0.3-0.3,0.4c-0.1,0.1-0.3,0.1-0.7,0.1L283,493.6z M282.1,492.2c0.9-0.5,1.8-1,3.1-0.9
					l0,0l0,0c0.9,0.1,1.6,0.6,2.1,1.3c0.5,0.7,0.8,1.6,0.4,2.6c-0.1,0.2-0.2,0.5-0.2,0.8c0,0.1-0.1,0.2-0.1,0.3
					c-0.1,0.4-0.3,0.8-0.5,1.2c-0.2,0.4-0.5,0.8-1,1.1c-0.5,0.3-1.1,0.3-1.7,0.2l0,0c-0.9-0.1-1.6-0.4-2.1-0.9c-0.6-0.5-0.9-1-1-1.6
					c-0.3-1.2,0.1-2.5,0.5-3.6c0.1-0.2,0.2-0.3,0.4-0.4C282,492.2,282,492.2,282.1,492.2z"/>
				<path d="M231.7,490.4c-0.6,0.8-1,1.5-1,2.1c0,0.3,0,0.6,0.2,0.8c0.2,0.3,0.5,0.6,1.1,0.9L231.7,490.4z M231.7,490.4
					c0.9-0.2,1.4-0.2,2.1,0c0.2,0.1,0.5,0.4,0.7,0.8c0.1,0.4,0.1,0.8-0.1,1l0,0v0c-0.2,0.3-0.4,0.5-0.5,0.8
					c-0.1,0.1-0.1,0.2-0.1,0.2c-0.2,0.3-0.4,0.6-0.6,0.8c-0.2,0.2-0.3,0.3-0.5,0.3c-0.1,0-0.3,0-0.7-0.1L231.7,490.4z M231.2,488.8
					c1-0.2,2-0.4,3.2,0.1l0,0l0,0c0.8,0.3,1.4,1.1,1.6,1.8c0.3,0.8,0.3,1.8-0.4,2.6c-0.1,0.2-0.3,0.4-0.4,0.7
					c-0.1,0.1-0.1,0.2-0.2,0.3c-0.2,0.3-0.5,0.7-0.8,1c-0.3,0.3-0.8,0.6-1.3,0.7c-0.6,0.1-1.1,0-1.7-0.3l0,0
					c-0.8-0.4-1.4-0.9-1.8-1.4c-0.4-0.6-0.5-1.2-0.5-1.9c0.1-1.2,0.8-2.4,1.6-3.3c0.1-0.2,0.3-0.3,0.5-0.3
					C231.1,488.8,231.1,488.8,231.2,488.8z"/>
				<path d="M128.3,461c-1,0.2-1.7,0.5-2.1,1c-0.2,0.2-0.3,0.5-0.4,0.8c0,0.3,0,0.8,0.3,1.4L128.3,461z M128.3,461
					c0.8,0.4,1.2,0.7,1.6,1.4c0.1,0.2,0.2,0.6,0,1c-0.2,0.4-0.4,0.6-0.7,0.7l0,0h0c-0.3,0.1-0.6,0.2-0.9,0.3c-0.1,0-0.2,0.1-0.3,0.1
					c-0.4,0.1-0.7,0.2-0.9,0.2c-0.3,0-0.4,0-0.5-0.1c-0.1-0.1-0.3-0.2-0.4-0.5L128.3,461z M128.9,459.5c0.9,0.5,1.8,1,2.4,2.1l0,0
					l0,0c0.4,0.8,0.4,1.7,0.1,2.5c-0.3,0.8-0.9,1.5-1.9,1.7c-0.2,0.1-0.5,0.1-0.8,0.2c-0.1,0-0.2,0.1-0.3,0.1
					c-0.4,0.1-0.8,0.2-1.3,0.3c-0.5,0-1,0-1.5-0.3c-0.5-0.3-0.9-0.7-1.1-1.3l0,0c-0.4-0.8-0.5-1.6-0.4-2.2c0.1-0.7,0.4-1.3,0.8-1.7
					c0.8-0.9,2.2-1.3,3.3-1.5c0.2,0,0.4,0,0.6,0.1C128.8,459.4,128.9,459.5,128.9,459.5z"/>
				<path d="M82.6,396.1c-1-0.2-1.8-0.1-2.4,0.1c-0.3,0.1-0.5,0.3-0.6,0.6c-0.1,0.3-0.3,0.7-0.2,1.4L82.6,396.1z M82.6,396.1
					c0.6,0.7,0.9,1.2,1,1.9c0,0.3-0.1,0.6-0.4,1c-0.3,0.3-0.6,0.4-0.9,0.4l0,0h0c-0.3-0.1-0.7-0.1-1-0.1c-0.1,0-0.2,0-0.3,0
					c-0.4,0-0.7-0.1-1-0.2c-0.2-0.1-0.4-0.2-0.5-0.3c-0.1-0.1-0.2-0.3-0.2-0.6L82.6,396.1z M83.8,394.9c0.6,0.8,1.3,1.6,1.4,2.9l0,0
					h0c0.1,0.9-0.3,1.7-0.8,2.3c-0.6,0.6-1.4,1.1-2.4,0.9c-0.2,0-0.5-0.1-0.8-0.1c-0.1,0-0.2,0-0.3,0c-0.4,0-0.9-0.1-1.3-0.2
					c-0.4-0.1-0.9-0.4-1.3-0.8c-0.4-0.4-0.5-1-0.6-1.7l0,0c0-0.9,0.1-1.6,0.4-2.2c0.3-0.6,0.8-1.1,1.4-1.3c1.1-0.5,2.5-0.4,3.7-0.2
					c0.2,0,0.4,0.1,0.5,0.3C83.8,394.8,83.8,394.9,83.8,394.9z"/>
				<path d="M65.3,318.6c-0.8-0.5-1.6-0.8-2.2-0.8c-0.3,0-0.6,0.1-0.8,0.3c-0.2,0.2-0.5,0.6-0.8,1.2L65.3,318.6z M65.3,318.6
					c0.2,0.9,0.4,1.4,0.1,2.1c-0.1,0.2-0.3,0.5-0.7,0.7c-0.4,0.2-0.8,0.2-1,0l0,0l0,0c-0.3-0.2-0.6-0.3-0.8-0.5
					c-0.1,0-0.2-0.1-0.2-0.1c-0.3-0.2-0.6-0.3-0.8-0.5c-0.2-0.2-0.3-0.3-0.3-0.4c0-0.1-0.1-0.3,0.1-0.7L65.3,318.6z M66.9,318
					c0.3,1,0.6,2,0.2,3.2l0,0l0,0c-0.2,0.8-0.9,1.5-1.7,1.8c-0.8,0.3-1.7,0.4-2.6-0.1c-0.2-0.1-0.4-0.2-0.7-0.4
					c-0.1-0.1-0.2-0.1-0.3-0.2c-0.4-0.2-0.8-0.4-1.1-0.7c-0.4-0.3-0.7-0.7-0.9-1.2c-0.2-0.5-0.1-1.1,0.1-1.7v0
					c0.3-0.8,0.7-1.5,1.3-1.9c0.6-0.4,1.2-0.6,1.8-0.7c1.2,0,2.4,0.6,3.4,1.3c0.2,0.1,0.3,0.3,0.3,0.5C66.9,317.9,66.9,318,66.9,318
					z"/>
				<path d="M78.9,240.4c-0.6-0.8-1.2-1.4-1.7-1.6c-0.3-0.1-0.5-0.1-0.8,0c-0.3,0.1-0.7,0.3-1.1,0.8L78.9,240.4z M78.9,240.4
					c-0.1,0.9-0.2,1.4-0.7,2c-0.2,0.2-0.5,0.4-1,0.4c-0.4,0-0.8-0.1-0.9-0.4l0,0l0,0c-0.2-0.3-0.4-0.5-0.6-0.8
					c-0.1-0.1-0.1-0.1-0.2-0.2c-0.3-0.3-0.4-0.6-0.6-0.8c-0.1-0.2-0.2-0.4-0.1-0.5c0-0.1,0.1-0.3,0.3-0.6L78.9,240.4z M80.6,240.4
					c-0.1,1-0.2,2-1,3.1l0,0l0,0c-0.5,0.7-1.4,1-2.2,1c-0.8,0-1.8-0.3-2.4-1.1c-0.1-0.2-0.3-0.4-0.5-0.6c-0.1-0.1-0.1-0.2-0.2-0.3
					c-0.3-0.3-0.5-0.7-0.8-1.1c-0.2-0.4-0.4-0.9-0.3-1.5c0.1-0.6,0.3-1.1,0.8-1.6h0c0.6-0.6,1.2-1.1,1.9-1.3
					c0.7-0.2,1.3-0.2,1.9,0.1c1.1,0.4,2,1.5,2.7,2.5c0.1,0.2,0.2,0.4,0.1,0.6C80.6,240.3,80.6,240.4,80.6,240.4z"/>
				<path d="M454.5,231.5c1,0.2,1.8,0.1,2.4-0.1c0.3-0.1,0.5-0.3,0.6-0.6c0.1-0.3,0.3-0.7,0.2-1.4L454.5,231.5z M454.5,231.5
					c-0.6-0.7-0.9-1.2-1-1.9c0-0.3,0.1-0.6,0.4-1c0.3-0.3,0.6-0.4,0.9-0.4l0,0h0c0.3,0,0.7,0.1,1,0.1c0.1,0,0.2,0,0.3,0
					c0.4,0,0.7,0.1,1,0.2c0.2,0.1,0.4,0.2,0.5,0.3c0.1,0.1,0.2,0.3,0.2,0.6L454.5,231.5z M453.3,232.7c-0.6-0.8-1.3-1.6-1.4-2.9v0
					l0,0c-0.1-0.9,0.3-1.7,0.8-2.3c0.6-0.6,1.4-1.1,2.4-0.9c0.2,0,0.5,0.1,0.8,0.1c0.1,0,0.2,0,0.3,0c0.4,0,0.9,0.1,1.3,0.2
					c0.4,0.1,0.9,0.4,1.3,0.8c0.4,0.4,0.5,1,0.6,1.7v0c0,0.9-0.1,1.6-0.4,2.2c-0.3,0.6-0.8,1.1-1.4,1.3c-1.1,0.5-2.5,0.4-3.7,0.2
					c-0.2,0-0.4-0.1-0.5-0.3C453.3,232.8,453.3,232.7,453.3,232.7z"/>
				<path d="M471.8,309c0.8,0.5,1.6,0.8,2.2,0.8c0.3,0,0.6-0.1,0.8-0.3c0.2-0.2,0.5-0.6,0.8-1.2L471.8,309z M471.8,309
					c-0.2-0.9-0.4-1.4-0.1-2.1c0.1-0.2,0.3-0.6,0.7-0.7c0.4-0.2,0.8-0.2,1,0l0,0l0,0c0.3,0.2,0.6,0.3,0.8,0.5c0.1,0,0.2,0.1,0.2,0.1
					c0.3,0.2,0.6,0.4,0.8,0.5c0.2,0.2,0.3,0.3,0.3,0.4c0,0.1,0.1,0.3-0.1,0.7L471.8,309z M470.2,309.6c-0.3-1-0.6-2-0.2-3.2l0,0l0,0
					c0.2-0.8,0.9-1.5,1.7-1.8c0.8-0.3,1.7-0.4,2.6,0.1c0.2,0.1,0.4,0.3,0.7,0.4c0.1,0,0.2,0.1,0.3,0.2c0.4,0.2,0.8,0.4,1.1,0.7
					c0.4,0.3,0.7,0.7,0.9,1.2c0.2,0.5,0.1,1.1-0.1,1.7l0,0c-0.3,0.8-0.7,1.5-1.3,1.9c-0.6,0.4-1.2,0.6-1.8,0.7
					c-1.2,0-2.4-0.6-3.4-1.3c-0.2-0.1-0.3-0.3-0.3-0.5C470.2,309.7,470.2,309.6,470.2,309.6z"/>
				<path d="M458.2,387.2c0.6,0.8,1.2,1.4,1.7,1.6c0.3,0.1,0.5,0.1,0.8,0c0.3-0.1,0.7-0.3,1.1-0.8L458.2,387.2z M458.2,387.2
					c0.1-0.9,0.2-1.4,0.7-2c0.2-0.2,0.5-0.4,1-0.4c0.4,0,0.8,0.1,0.9,0.4l0,0v0c0.2,0.3,0.4,0.5,0.6,0.7c0.1,0.1,0.1,0.1,0.2,0.2
					c0.2,0.3,0.4,0.6,0.6,0.8c0.1,0.2,0.2,0.4,0.1,0.5c0,0.1-0.1,0.3-0.3,0.6L458.2,387.2z M456.5,387.2c0.1-1,0.2-2,1-3.1l0,0l0,0
					c0.5-0.7,1.4-1,2.2-1c0.8,0,1.8,0.3,2.4,1.1c0.1,0.2,0.3,0.4,0.5,0.6c0.1,0.1,0.1,0.2,0.2,0.3c0.3,0.3,0.5,0.7,0.8,1.1
					c0.2,0.4,0.4,0.9,0.3,1.5c-0.1,0.6-0.3,1.1-0.8,1.6l0,0c-0.6,0.6-1.2,1.1-1.9,1.3c-0.7,0.2-1.3,0.1-1.9-0.1
					c-1.1-0.4-2-1.5-2.7-2.5c-0.1-0.2-0.2-0.4-0.1-0.6C456.5,387.3,456.5,387.2,456.5,387.2z"/>
				<path d="M415.7,454.2c0.2,1,0.5,1.7,1,2.1c0.2,0.2,0.5,0.3,0.8,0.4c0.3,0,0.8,0,1.4-0.3L415.7,454.2z M415.7,454.2
					c0.4-0.8,0.7-1.2,1.4-1.6c0.2-0.1,0.6-0.2,1,0c0.4,0.2,0.6,0.4,0.7,0.7l0,0v0c0.1,0.3,0.2,0.6,0.3,0.9c0,0.1,0.1,0.2,0.1,0.3
					c0.1,0.4,0.2,0.7,0.2,1c0,0.3,0,0.4-0.1,0.5c-0.1,0.1-0.2,0.3-0.5,0.4L415.7,454.2z M414.1,453.5c0.5-0.9,1-1.8,2.1-2.4l0,0l0,0
					c0.8-0.4,1.7-0.4,2.5-0.1c0.8,0.3,1.5,0.9,1.7,1.9c0.1,0.2,0.1,0.5,0.2,0.8c0,0.1,0.1,0.2,0.1,0.3c0.1,0.4,0.2,0.8,0.3,1.3
					c0,0.5,0,1-0.3,1.5c-0.3,0.5-0.7,0.9-1.3,1.2l0,0c-0.8,0.4-1.6,0.5-2.2,0.4c-0.7-0.1-1.3-0.4-1.7-0.8c-0.9-0.8-1.3-2.2-1.5-3.3
					c0-0.2,0-0.4,0.1-0.6C414.1,453.6,414.1,453.6,414.1,453.5z"/>
				<path d="M350.8,499.9c-0.2,1-0.1,1.8,0.1,2.4c0.1,0.3,0.3,0.5,0.6,0.6c0.3,0.1,0.7,0.3,1.4,0.2L350.8,499.9z M350.8,499.9
					c0.7-0.6,1.2-0.9,1.9-1c0.3,0,0.6,0.1,1,0.4c0.3,0.3,0.4,0.6,0.4,0.9l0,0v0c-0.1,0.3-0.1,0.7-0.1,1c0,0.1,0,0.2,0,0.3
					c0,0.4-0.1,0.7-0.2,1c-0.1,0.2-0.2,0.4-0.3,0.5c-0.1,0.1-0.3,0.2-0.6,0.2L350.8,499.9z M349.6,498.7c0.8-0.6,1.6-1.3,2.9-1.4
					l0,0l0,0c0.9-0.1,1.7,0.3,2.3,0.8c0.6,0.6,1.1,1.4,0.9,2.4c0,0.2-0.1,0.5-0.1,0.8c0,0.1,0,0.2,0,0.3c0,0.4-0.1,0.9-0.2,1.3
					c-0.1,0.4-0.4,0.9-0.8,1.3c-0.4,0.4-1,0.5-1.7,0.6l0,0c-0.9,0-1.6-0.1-2.2-0.4c-0.6-0.3-1.1-0.8-1.3-1.4
					c-0.5-1.1-0.4-2.5-0.2-3.7c0-0.2,0.1-0.4,0.3-0.5C349.5,498.7,349.5,498.7,349.6,498.7z"/>
				<path d="M273.4,517.2c-0.5,0.8-0.8,1.6-0.8,2.2c0,0.3,0.1,0.6,0.3,0.8c0.2,0.2,0.6,0.5,1.2,0.8L273.4,517.2z M273.4,517.2
					c0.9-0.2,1.4-0.4,2.1-0.1c0.2,0.1,0.5,0.3,0.7,0.7c0.2,0.4,0.2,0.8,0,1l0,0h0c-0.2,0.3-0.3,0.6-0.5,0.8c0,0.1-0.1,0.2-0.1,0.2
					c-0.2,0.3-0.3,0.6-0.5,0.8c-0.2,0.2-0.3,0.3-0.4,0.3c-0.1,0-0.3,0.1-0.7-0.1L273.4,517.2z M272.8,515.6c0.9-0.3,2-0.6,3.2-0.2
					l0,0l0,0c0.8,0.2,1.5,0.9,1.8,1.7c0.3,0.8,0.4,1.7-0.1,2.6c-0.1,0.2-0.2,0.4-0.4,0.7c-0.1,0.1-0.1,0.2-0.2,0.3
					c-0.2,0.4-0.4,0.8-0.7,1.1c-0.3,0.4-0.7,0.7-1.2,0.9c-0.5,0.2-1.1,0.1-1.7-0.1l0,0c-0.8-0.3-1.5-0.7-1.9-1.3
					c-0.4-0.6-0.6-1.2-0.7-1.8c0-1.2,0.6-2.4,1.3-3.4c0.1-0.2,0.3-0.3,0.5-0.3C272.7,515.6,272.7,515.6,272.8,515.6z"/>
			</g>
			<path class="st2" d="M428.8,640.1c4.6-7,8.7-14.3,12.4-21.8c7.5-15.3,20-5.1,30.4-5.6c23.3-1.1,47.2,9.7,67.4,19.7
				c7.8,3.9,17.3,10.5,26.1,12.7c17.6,4.4,33.9-0.1,40.6,21.7c3.7,11.9-6,19.1-6.7,30.2c-1.2,19.4,3,55.6-8.9,72.6
				c-9.1,13-21.2,25.7-28,39.9c-9.5,20-15,40.3-33.5,54.7c-11.4,8.9-22.5,13.4-37.4,11c-10.4-1.7-23.7-1.9-33.6-5.9
				c-14.6-5.9-28.1-15.9-36.9-28.9c-8.6-12.6-13.8-26-24-37.5c-8.5-9.6-26.3-21.1-24.1-35.9c1.3-8.4,7.7-15.6,11.3-23
				c5.7-11.6-3.2-19.8-1.8-31.4C384.7,689.8,416.4,658.6,428.8,640.1z"/>
			<path class="st3" d="M517.9,788.3c27.8-8.7,43.2-20.1,69-11.3c12.6,4.3,20.4,10,27,21.2c5.9,10,8.8,21.1,15.4,30.8
				c12.4,18.3,21.7,41.3,12.3,62.5c-13.8,31-51.4,29.6-77.1,16.8c-23.1-11.6-43.6-29.5-61.6-47.9c-11.1-11.4-22.9-24.6-20-41.6
				C485.9,801.2,502.7,793,517.9,788.3z"/>
			<path class="st4" d="M338,861.5c-35.6-10-35.5-16.2-68.1-33.3c-8.3-4.3-14.6-8.1-20.8-14c-6.3-6-9.8-19.2-14.8-26.1
				c-34.3-47.5,8.5-110.5,28.8-152.7c25.1-52.2,47.7-105.3,75.3-156.5c12.7-23.6,29.1-47.4,45.9-68.4c8.2-10.2,16.7-17.3,29.9-17.6
				c12.1-0.3,24.3,1.3,36.1,3.2c13.1,2.1,25.1,9.9,37.8,11.7c19.6,2.7,40.4,16,54.1,29.8c24.2,24.3,21.6,33.1,7.3,63.7
				c-25.9,55.5-54.7,109.4-82.4,164.1c-12.9,25.4-25.6,52.4-36.4,78.8c-11.8,28.8-31,54.1-46.3,81
				C373.3,844.7,363.8,868.7,338,861.5z"/>
			<path class="st5" d="M62.9,812.5c17.4-39.3,32.9-51.2,56-82.1c10.2-13.6,9.8-31.6,26.6-34.3c10.9-1.7,26,5.4,35.2,9.9
				c32,15.8,66.6,29,95.1,50.9c38.7,29.9,89.7,38.8,126.2,72.4c15.8,14.5,69.8,56.6,53.4,89.9l-0.5,1.1
				c-20,40.7-36.1,73.5-73.4,97.2c-34.6,22-66.3-5.3-94.4-19.2c-32.4-16-62.4-35.9-94.8-51.9c-18.1-9-33.9-21.5-51.8-30.6
				c-17-8.7-40.1-14.6-53.5-29.2C73.6,871.9,50.8,839.9,62.9,812.5z"/>
			<path d="M504.9,616.1c36.2-43.1,103.4-52.9,155.5-23.2c13.2,7.5,23.9,14.5,32.4,23.5c8.6,9,15,20,19.9,35.6
				c10.5,33.5,11.4,62.7-4.1,93.5c-11.7,23.3-39.9,39.5-64.8,48.7c-26.9,9.8-54.9-2-77.6-13.8c-15-7.8-31.6-17.4-46.1-29.3
				c-14.5-11.9-27-26.1-33.7-43C473.6,675.4,482.3,642.9,504.9,616.1z M658.9,595.5c-51-29-116.5-19.3-151.7,22.5
				c-22,26.2-30.3,57.6-17.9,89c6.4,16.3,18.5,30.1,32.8,41.8c14.3,11.7,30.7,21.2,45.5,28.9c22.8,11.8,49.7,23,75.2,13.7
				c24.7-9,52-25,63.2-47.2c15-30,14.2-58.3,3.9-91.3c-4.8-15.2-11-25.8-19.2-34.4C682.4,609.7,672,603,658.9,595.5z"/>
		</g>
	</g>
</g>
</svg>
