<?xml version="1.0" encoding="utf-8"?>
<!-- Generator: Adobe Illustrator 23.0.1, SVG Export Plug-In . SVG Version: 6.00 Build 0)  -->
<svg version="1.1" id="Layer_1" xmlns="http://www.w3.org/2000/svg" xmlns:xlink="http://www.w3.org/1999/xlink" x="0px" y="0px"
	 viewBox="0 0 1600 1200" style="enable-background:new 0 0 1600 1200;" xml:space="preserve">
<style type="text/css">
	.st0{fill:none;stroke:#5BE7C3;stroke-width:5;}
	.st1{fill:none;stroke:#5ACEF2;stroke-width:5;}
	.st2{fill:none;stroke:#FF8062;stroke-width:5;}
	.st3{fill:none;stroke:#F1B170;stroke-width:5;}
</style>
<title>Whangaehu</title>
<desc>Created with Sketch.</desc>
<g id="Patterns">
	<g id="Whangaehu">
		<g id="Shape" transform="translate(-146.000000, -400.000000)">
			<path class="st0" d="M1084.5,865.7c-0.1-14.7-22.5-31.3-32.2-39.9c-19-16.9-38.8-32.5-58.3-48.4c-19.6-15.9-39.2-31.7-57.9-49.1
				c-12.1-11.3-26.4-24-34.6-40.2c-17.5-34.4,37.7-29.3,52-30c36.4-1.9,78.1-1,112.2-19c20.4-10.7,28.5-28.6,24.1-54.8
				c-1.4-8.5-5.6-18.3-2-26.6c3.8-8.8,12.5-14,19.7-17.4c26.3-12.5,56.5-13.9,84.3-15.5c30-1.7,60.2-1.2,90-1.4
				c12.6-0.1,25.8-5.6,37.8-10.1c15.8-5.9,31.3-12.5,47-18.9c34.4-14.1,69.8-28.9,106.2-32.4c22.8-2.2,47.7,0.8,65.4,20.2
				c8.9,9.8,13.5,24.3,18.7,37.2c6.2,15.6,12.2,31.3,18.8,46.6c21.3,49.4,51.8,97.7,101.2,100.1c7.5,0.4,14.8-0.8,22.3-1
				c4.7-0.1,9,1.3,10.7,7.3c4.4,15.2-9.5,39.1-15.2,51.2c-12.5,26.4-26.6,51.5-39.8,77.4c-8.7,17.1-23.9,40.4-24,61.2
				c-0.1,18.5,20,31.9,31,41c10.3,8.5,28.9,20.5,30,37.8c0.5,8.4-4,15.4-8.7,20.8c-8.3,9.5-17.9,16.1-25.4,26.9
				c-12.3,17.7-22.5,42.1-20.9,65.9c1.2,16.5,8.9,27.4,18.7,37.7c4.1,4.4,7.5,7.4,7.7,14.5c0.4,11.2-3.2,23.1-6.2,33.5
				c-10.6,37.2-25.7,73.2-42.4,106.8c-8.4,16.8-17.4,33.5-28.5,47.9c-7.3,9.4-17.1,20.6-28.2,20.6c-12.8,0-26.4-5.7-38.9-9.9
				c-23.3-7.9-46.4-17.1-69.3-26.4c-53.1-21.7-105.7-45.2-157.7-70.4c-36.7-17.8-74.2-35.6-108.6-59.3c-6.7-4.6-13.1-10.1-19-16.2
				c-6.3-6.4-14.1-9.3-22-11.4c-49.1-13.3-102.9-3.1-152.2,3.3c-12.5,1.6-25,3.3-37.6,4.4c-10.8,1-23.7,3.8-34.2-0.4
				c-20.7-8.3-2.6-38.8,5-51.2c26.9-43.8,61.6-80.8,93.7-118.6c15.3-18,30.7-36,45.2-55C1069.7,894.8,1084.6,878.7,1084.5,865.7z"/>
			<path class="st1" d="M1093.8,863.3c-8.2-15.6-22.7-27.1-34.7-38c-17.3-15.6-35.1-30.4-52.6-45.6c-16.6-14.4-33.2-28.9-48.6-45.2
				c-9.4-9.9-21.1-21.8-25.6-36.5c-9.6-31.9,42.2-27,55-27.9c31.8-2.1,67.8-2.5,97.2-19.3c18.4-10.5,25.9-27.9,22-52
				c-1.4-8.3-3.8-15.5-0.7-23.8c3.6-9.6,11.8-15.6,19.3-19.8c23.6-13.3,51.5-16.1,77-18.4c26.4-2.4,53.9-4.1,79.5-2.4
				c10.2,0.7,22-3.3,32.1-6.4c15.6-4.7,31-10.2,46.5-15.3c31.5-10.3,63.8-20.3,96.5-21.4c23.6-0.8,48.3,3.6,68,20.7
				c19.9,17.4,28.8,44.3,39.8,69.8c19.1,44.2,44.9,98,89.1,107.3c6.7,1.4,13.1,0.6,19.8,1c3.4,0.2,7.4,0.7,9.1,4.9
				c4.5,10.7-7.9,30.4-12.1,38.6c-11.5,22.7-24.5,44.4-36.6,66.7c-9.6,17.7-21.8,37.4-25.5,58.4c-4.5,25.5,25,43.6,35.3,61.6
				c18,31.1-16.1,48.8-32.8,63.7c-19.3,17-35.2,48.1-17.9,74.5c6.6,10.1,14.7,16.1,17.7,29.2c4.6,20.6,1.1,44.1-2.6,64.4
				c-5.6,30.6-14.6,60.8-26.7,88.4c-8.7,19.8-23.1,50.8-44.2,48.5c-14.2-1.6-28.7-7.2-42.5-12.2c-20.7-7.5-41.2-16.1-61.6-24.9
				c-47-20.4-93.5-43-139-67.8c-31.1-16.9-117.8-86.1-124.3-88.6c-19.5-7.4-41.6-6.1-61.6-4.9c-26.7,1.5-53.2,5.4-79.8,9.1
				c-12.6,1.7-25.3,3.8-38,4.7c-9,0.6-20.9,1.1-28.8-5.3c-15.4-12.5,1.8-41.1,8.9-53.2c21.8-37.1,49.4-69.2,75.3-102.1
				c12.7-16.1,25.6-32.2,37.1-49.7C1087.2,887,1098.9,872.9,1093.8,863.3z"/>
			<path class="st0" d="M1105.2,855.3c-22.5-31.2-53.6-54.5-80.4-80.5c-13.5-13.1-27-26.5-38.6-42.1c-6-8.1-13.6-18.4-14.7-29.7
				c-3.1-30.2,43.6-26.2,57.5-27.3c27-2.2,57.5-3.9,82-19.3c15-9.4,22.3-24.9,19.5-45.3c-1.2-9-3.2-16.7,0-25.6
				c3.2-9,9.9-15.3,16.7-20.1c19.5-13.7,43.7-18,65.7-21.3c25.7-3.8,51.7-5.3,77.6-4.4c22.7,0.7,45.3-7.4,67.5-12.8
				c29.4-7.1,59.3-13.4,89.3-12.4c23.7,0.7,47.6,6.6,67.9,22.2c20.6,15.9,33,39.7,44.2,65.4c16.9,38.8,37.9,90.9,75,105.7
				c5.4,2.1,10.4,2.4,16,2.8c2.7,0.2,6.2,0.2,7.5,3.7c3.2,8.3-8.7,24.3-12,29.9c-10.6,17.8-22.1,34.9-33,52.5
				c-10.2,16.4-21.2,33.6-27.5,52.8c-10,30.7,22,48.6,21.2,77.9c-0.6,18.2-14.8,31.2-26.1,40.2c-13.9,11.1-33.9,18.4-40.8,38.6
				c-5.2,15,2.9,23.8,9.2,35.2c10.6,19.3,11.3,45.6,10.2,68c-1.5,30.3-7.3,61-17.2,88.8c-4.5,12.6-10,25.7-18.1,35.5
				c-7.6,9.2-14.7,11.5-24.9,9.7c-31-5.8-62.3-21.8-92-36.2c-37.3-18-74.2-37.9-109.9-60.3c-24.4-15.3-49.3-31.4-70.7-52.5
				c-5.6-5.5-11.3-11.5-15.4-18.7c-3.1-5.5-4.4-10-9.6-13.1c-15.4-9.2-36.8-6.8-53.3-5.9c-26.4,1.5-52.6,5.6-78.8,9.2
				c-15.3,2.2-44.1,8.9-56.3-7.3c-10.5-14,2.2-37.9,8.7-50.2c16.4-31.2,37.6-58.6,57.2-86.8c9-12.9,18.3-26,25.8-40.3
				c1.9-3.7,4.9-8.5,5.5-13C1110.7,863,1108,859.1,1105.2,855.3z"/>
			<path class="st1" d="M1107.1,862.5c-20.8-27.6-45.9-50.3-68.2-76.1c-10-11.6-20.1-23.7-27.8-37.9c-4.1-7.6-8.5-17.2-7.3-26.6
				c3.2-27.1,41.6-24.7,57.2-26.3c23-2.3,49.5-4.7,69.9-19.3c13.4-9.6,18.4-23.7,15.9-42c-2.7-19.6,3.3-33.8,16.9-44.7
				c17.1-13.7,38.6-19.2,58.4-23.2c23.9-4.7,48.1-6.9,72.3-6.3c23.5,0.6,46.3-4.3,69.7-7.4c31-4.1,63-6.2,93.6,2.3
				c26.7,7.4,50.8,23.7,68.8,48.9c18.9,26.3,28.2,59.5,43.5,88.6c9.6,18.2,22.9,42.2,40.7,49.2c6,2.4,16.8-0.8,12.1,10.8
				c-2.7,6.6-7.8,12.4-11.8,17.8c-6.5,8.7-13.2,17.3-19.8,25.9c-14.1,18.4-29.1,37.2-39.7,59c-13.3,27.4,6.5,48.5,4.1,76.3
				c-1.3,15-9.8,26.9-18.8,36.3c-5.8,6.1-12.2,11.3-18.7,16.2c-6.8,5.1-14.9,9-20.8,15.7c-8.5,9.4-4.8,20.6-3.2,32.8
				c2.8,21.4,3.4,43.2,1.8,64.8c-1.9,26.5-6.5,53.8-16,77.9c-3.7,9.4-8.4,19.3-15.4,25.6c-7,6.3-14.2,5.9-22.2,4
				c-23.7-5.6-47.4-18.6-69.9-30.9c-28.2-15.4-55.8-32.7-82.2-52.3c-18.2-13.6-36.5-28.2-51.7-46.6c-4.4-5.3-8.6-11.1-12.1-17.5
				c-2.3-4.4-3.6-10-7-13.3c-10.6-10.3-31.9-7.2-44.4-6.6c-24.8,1.2-49.3,6.9-74.1,8.2c-13.5,0.8-34.7,2.6-44.7-11.4
				c-9.3-13.2-0.9-34.1,4.7-46.8c11-25.1,25.7-47.4,39-70.7c5.4-9.6,11.4-19.6,14.9-30.6C1117.9,876.7,1112.5,869.6,1107.1,862.5z"
				/>
			<path class="st2" d="M1112.3,863c-16.6-24.3-36.5-45.9-53.2-70.6c-9.8-14.5-26.6-38.8-19-59.2c8.3-22.4,37.2-23,53.8-24.8
				c19.9-2.1,43.2-5.1,60.2-19.1c5.4-4.4,10-10.3,11.9-18c2.1-8.3-0.2-15.5-0.5-23.7c-0.6-17.3,7.9-31.2,19.1-40.8
				c15.9-13.5,35.7-19.9,54.4-24.3c21.2-5,42.8-7.5,64.4-7.4c20.7,0.1,41.1-0.5,61.8-1.1c27-0.9,54.4,0.5,80.7,9.3
				c25.8,8.6,49.3,24.8,67.8,48.6c18,23.2,30.1,51.6,40.8,80.6c6,16.4,16.2,41,30.6,49.2c6.4,3.7,12.7,3.4,5.9,13
				c-8.6,12.1-20.1,21.8-30,32.1c-14.3,14.9-29,30.1-41,47.9c-7.7,11.3-11.1,22.3-10.6,37c0.4,11.2,2.3,22.2,1.3,33.4
				c-2.2,26.3-19.2,44.4-34.2,61.2c-9.7,10.8-18.5,19.1-23.5,34.4c-5.9,18.2-8.4,38-12.3,56.8c-4.3,20.7-9.3,42.3-18.7,60.5
				c-8.4,16.3-18.6,23.5-33.9,19.2c-23.8-6.8-47.3-23.6-68.5-39.2c-21.5-15.8-42.7-33.6-60.5-55.4c-9.6-11.7-16.2-25.5-24.8-38.1
				c-10.8-15.8-35.1-9.8-49.6-8.5c-24,2.2-99.6,18.9-92.6-35.1c2.9-22.5,14.4-43.3,22.7-63.2c3.5-8.2,8.5-18.1,9.3-27.6
				C1124.9,880.1,1117.2,870.3,1112.3,863z"/>
			<path class="st3" d="M1121,865c-12.7-22-27.8-42.8-38.7-66.6c-7-15.4-14-36-4.9-52.3c10.3-18.4,32.9-22.7,49.5-25
				c17.1-2.4,37.6-4.4,51.5-18.4c4.5-4.4,8.1-10.4,8.8-17.6c0.7-6.9-1.2-13.8-0.6-20.8c1.4-15.7,9.2-28.7,19.3-38.1
				c29.8-27.8,74.2-34,110.1-34.7c18-0.4,36.5,1.5,54.6,2.9c23.5,1.8,47,5.5,69.5,14.7c47.7,19.4,79.6,62.4,101.9,115.9
				c7,16.8,12.4,35.1,23.4,48.6c5.7,7,4.4,12-1.4,18.4c-9.1,10-20.1,17.6-30.2,25.9c-14.3,11.8-28.9,23.8-41.6,38
				c-8.7,9.8-14.9,19.2-16.8,33.8c-1.3,10.4-1,21.1-1.8,31.6c-1.5,19.9-6.8,39.7-16.1,56.3c-7.4,13.1-16.2,25-25.3,36.4
				c-11.8,14.8-21.8,29.8-30.8,47.4c-11.9,23.2-28.6,66.1-56.7,54.8c-30.9-12.5-59.9-44.3-79.8-75.2c-6.7-10.3-12.1-23-21.1-30.7
				c-13.5-11.4-27.1-11-43.1-11c-24,0.1-76.1,6.4-76.7-37.4c-0.2-17.4,5.9-33.8,8.9-50.5C1136.3,892.7,1129.6,880,1121,865z"/>
			<path class="st0" d="M1130.4,867c-12.5-28.7-40.6-75.8-19.2-107.8c11.3-16.9,31.2-23.2,47.9-27c13.5-3.1,29.7-4.2,39.9-17.2
				c7.5-9.5,4.2-23.4,7-35.3c3.6-14.8,11.7-26.9,21.7-36c28-25.4,67-33.2,100.7-34.8c35-1.7,73.6,6.3,106.5,21.8
				c41.1,19.3,71.8,55.8,93.4,102.1c4,8.5,7.6,17.3,11.4,25.9c2.6,5.8,6.4,11.4,8.4,17.5c3.4,10.2-0.6,18.5-6.9,25.1
				c-9.1,9.5-20.4,16.3-30.8,23.5c-14.2,9.8-28.8,19.4-42,30.9c-8.9,7.7-18.2,16.1-21.4,29.5c-2.2,9.2-2.6,18.8-2.5,28.3
				c0.2,20.3-0.7,36.8-8.5,55.4c-12.8,30.6-32.5,58-53.2,80.9c-16.3,17.9-42.1,45.8-65.9,33.8c-21.3-10.7-33.8-36.5-47.8-57.2
				c-6.8-10.1-14.5-19.3-23.5-26.5c-11.4-9.1-22.1-12.9-35.5-14.3c-22.7-2.5-56.8-3.1-63.8-36.3c-2.6-12.2-1.1-24.9-2.5-37.3
				C1141.9,895.5,1136.7,881.5,1130.4,867z"/>
			<path class="st2" d="M1143.4,868.1c-8.9-31.4-20.6-71,0.9-98.9c10.4-13.5,25.1-21.1,39.3-26.7c10.2-4,26.3-5.2,32.5-17.7
				c4.6-9.2,5.2-21.8,9.4-31.6c5.7-13.5,14.3-24.6,24.4-33.3c26.3-22.7,60.7-31.4,91.9-33.9c68-5.4,137.2,37.9,173.6,109.2
				c10.8,21.3,24.9,43.9,7.3,65.6c-19.1,23.7-48,34.8-70.8,51.6c-8.7,6.4-19.9,14.2-24.7,25.8c-2.9,7-3.1,15.8-3.3,23.5
				c-0.4,19.6-1.7,37.2-8.1,55.5c-10,28.3-25.9,54.4-43.9,75.7c-15.7,18.6-38.2,40.5-61,27.1c-17.5-10.3-28.6-32.2-42.2-48.4
				c-15.1-18-33.9-30.1-54.4-36c-20-5.7-41.9-9.6-52.5-34c-3.6-8.4-7.4-19.2-8.7-28.5C1150.8,897.8,1147.6,882.7,1143.4,868.1
				L1143.4,868.1z"/>
			<path class="st3" d="M1157.9,868.3c-4.1-31.7-4.6-64.8,14.6-89.8c8.9-11.7,20.2-19.9,31.7-27.4c8.4-5.5,17.1-10.2,23.4-19.2
				c5.8-8.4,10.2-18.1,15.9-26.7c7.4-11.4,16.3-21.3,26.3-29.2c25-19.9,55.5-29.2,84.6-32.4c14.1-1.6,29.4-2.4,43.4,1.9
				c13.5,4.1,26.9,10.7,39.3,18.3c26.4,16.2,49.3,39.8,65.9,69.8c11.4,20.5,17.5,40.5,2.8,61.3c-16.6,23.5-42.7,36.4-64.2,51.7
				c-14.7,10.4-31.2,20.7-34,42.9c-2.2,17.7-4,34.4-9.6,51.1c-8.4,24.6-20.8,47-36.5,65.6c-14.3,17-32.4,31.4-52.9,22.4
				c-16.2-7.2-28.8-23.4-42.9-34.9c-15.8-12.9-33.1-20-51.4-25.7c-16.4-5.2-31.9-13.1-42.5-29.9c-2.2-3.4-4.5-7.2-6.1-11
				c-2.1-4.9-2-9.8-2.4-15.3C1162.1,897,1159.8,882.6,1157.9,868.3z"/>
			<path class="st0" d="M1173.9,865.7c0.4-30.1,6.3-58.6,22.5-82c6.9-10,15.2-18.3,22.9-27.5c6.2-7.4,12-14.3,19.1-20.4
				c16.8-14.5,30.4-33.2,48.3-46.1c23.8-17.2,51.1-26.8,78.2-30.6c13.2-1.9,26.9-2.5,40.3-0.4c11.5,1.8,22.5,8.1,32.7,14.6
				c20,12.7,39.4,30.7,52.4,53.6c28.6,50.3-27.8,86.9-56.8,108.4c-13.3,9.9-33.7,21.3-39.2,40.8c-3.9,14-6.3,28.1-11.3,41.7
				c-13.5,36.3-40.9,79-77.4,73.3c-15.6-2.4-29.9-12.3-44.5-18.9c-15-6.8-30.5-10.6-46.1-14.8c-14.6-3.9-26.2-9.4-35.6-24.3
				c-4.5-7.1-4.1-15.6-4.5-24.3C1174.2,894.4,1173.8,880,1173.9,865.7z"/>
			<path class="st1" d="M1188.5,861.8c5.9-45.5,27.7-95.1,59.7-121.5c37.7-31.1,78.5-57.2,123.6-64.7c20.9-3.5,43.7-5.2,63.4,6.2
				c15,8.7,32.4,21.6,40.7,39.9c20.2,44.6-24.7,80.1-50.3,100.7c-13.8,11.1-31.3,21.9-41.7,38.1c-6,9.4-9.1,21.8-14,32.2
				c-14.7,31.3-39,56.5-69.2,61c-14,2.1-28-0.5-41.9-2.5c-14.2-2.1-28.6-3.2-42.7-6.2c-11.3-2.3-24.5-6.3-28.7-21
				C1182.2,905.5,1186.1,880.4,1188.5,861.8z"/>
			<path class="st3" d="M1202.8,854.5c8.6-42.7,26.7-84.4,57.1-109.9c16.2-13.5,34.9-22.9,52.9-32.1c20.4-10.5,41.7-18.6,63.5-22.6
				c27.1-5,71-9.5,85.2,28.2c14.1,37.4-21.5,70.5-42.5,89.4c-13.5,12.1-27.9,23.2-40.8,36.4c-7,7.2-12.4,15.4-18.3,23.9
				c-16.3,23.3-39.6,41.7-63.3,51.6c-23,9.5-51.4,13.8-75.7,10.6c-10.5-1.4-18-5.9-21.1-18.9
				C1195.5,892.9,1199.3,872.2,1202.8,854.5z"/>
			<path class="st2" d="M1217,843c8.5-37.6,26.8-72,53.6-94.6c30-25.3,68.6-39.4,104.1-46.5c18.9-3.8,59.7-14.1,69.3,15.4
				c9.6,29.5-18.2,58.5-34.2,74.5c-19.4,19.4-40.3,38.1-61.2,55.5c-18.2,15.1-37.5,30.6-57.2,42.3c-11.1,6.6-22.7,12-34.5,16.2
				c-8.8,3-20,7.6-29.2,5.3C1204.3,905.3,1212.9,861,1217,843z"/>
			<path class="st1" d="M1234.5,831.8c18.7-71.2,77.7-106.2,134.6-118.4c13.2-2.8,50.3-13,57.7,8.7c7.2,21.1-15.6,46.1-26.3,57.9
				c-33,36.7-73.9,63.9-112.5,90.9c-12.1,8.4-33.9,26.7-48.8,18.2C1222.9,880,1230.6,846.5,1234.5,831.8z"/>
			<path class="st1" d="M1253.6,818.1c16.2-52.4,63.4-82.5,106.8-92.4c10.6-2.4,37.6-10,45.7,4.7c7.4,13.5-10.3,33.1-17,40.9
				c-14.8,17.3-32.3,31.6-49.7,45.4c-16,12.7-32.2,25.7-49.1,36.5c-8.9,5.7-25.5,17.7-35.6,9C1243.8,852.7,1250,829.7,1253.6,818.1z
				"/>
			<path class="st0" d="M1274.7,802.8c12.4-34.2,45.5-56.4,74.7-63.8c7.9-2,24.8-7.1,31.5,2c6.1,8.4-3.7,20.8-8.1,26.5
				c-19.3,25.3-47.7,47.8-73.6,61.7c-6.5,3.5-18.3,10.3-25,3.3C1267.2,825.1,1271.8,810.6,1274.7,802.8z"/>
			<path class="st3" d="M1297,788.4c7-17,25.2-29.8,40.3-33.9c10.6-2.9,23.4-0.4,14.1,14.4c-9.2,14.7-26.2,28.1-40.7,34
				C1299.7,807.4,1291,803,1297,788.4z"/>
			<path class="st2" d="M732.1,906.1c-0.4-33.6-15.1-68.5-7.8-102.7c5.9-28.1,35.8-30.4,53.7-43.2c14.2-10.1,22.3-28,30-45.2
				c6.9-15.4,13.1-31.3,20.4-46.5c4.7-9.8,12.8-29.1,23-29.4c9.8-0.3,18.8,14.7,24.4,23.6c7.4,11.6,14,23.9,21.2,35.7
				c12.1,19.8,26.7,34.5,43.4,48.4c19,15.8,38.2,31.1,57.8,45.8c14.4,10.9,28.9,21.7,42.8,33.6c8.7,7.5,27.9,21.6,28,35.4
				c0,6.6-5.1,13.9-8.5,19.2c-5.8,8.9-12.5,17.1-19.2,25.1c-12.4,14.9-25.4,29.1-38.2,43.4c-16.6,18.6-32.5,37-47.2,58.1
				c-15.1,21.9-29.6,44.5-44.3,66.9c-10,15.1-20,32.1-34.4,41.4c-18,11.6-32.9-0.6-51.1-0.8c-15.7-0.1-14.5-44.5-16.5-56.9
				c-2-12.5-6.4-24.1-8.1-36.7c-2.1-15.6-2.2-31.6-2.7-47.4c-0.6-19.3-0.9-37.7-17.8-45.1c-9.6-4.2-20.1-5.1-30-7.6
				C744.4,919.5,732.2,916.7,732.1,906.1z"/>
			<path class="st0" d="M739.8,900.1c-1.6-28.1-11.4-64.2-2.2-93.2c7.9-24.8,32.4-28,49-41.1c13.7-10.8,19.7-28.4,26.6-45.6
				c5.5-13.9,10.8-27.9,17-41.3c4.6-9.9,11.6-26.6,21.1-28.6c8.6-1.8,17.7,12.9,22.5,20.4c7,11,13,22.9,19.2,34.5
				c10.9,20.5,22,38.9,38,53.9c16,15.1,33.5,26.4,51.2,38.1c13.8,9.2,27.6,18.6,40.8,29.3c9.8,7.9,23.9,18,28.4,32.1
				c3.5,11.1-14.4,29.6-19.8,36.2c-10.9,13.4-22.5,26-34.1,38.5c-14.1,15.3-28.7,28.6-41.2,46c-22.3,31.1-41,69.9-69.7,93
				c-17.3,13.9-36.6,17.5-55.9,15.4c-7.6-0.8-9.5-14-10.4-21.6c-1.6-12.7-1.8-25.7-3-38.5c-1.2-12-3.7-23.4-5.8-35.1
				c-2.1-11.9-2.7-24.1-4.2-36.1c-1-7.4-1.9-16.1-6.1-22.1c-4.3-6.2-11.4-8.8-17.6-10.8C771.8,919.8,741,920,739.8,900.1z"/>
			<path class="st1" d="M749.7,888.3c-2.8-25.8-6.6-58,4.6-81.8c9.2-19.5,28.9-23.7,42.9-36.3c11.7-10.5,16.1-27.3,21.9-42.9
				c4.8-12.8,9.5-25.6,15.3-37.8c4.4-9.2,10-21.7,18.7-25c7.4-2.7,15.8,9.6,19.9,15.7c7,10.4,12.7,22.2,18.4,33.7
				c9.3,18.9,17.8,39.1,31,54.5c12.8,14.9,28.1,23.7,43.6,33.6c11.9,7.6,23.7,15.5,34.9,24.5c8.6,6.9,19.3,15.2,23.8,26.7
				c3.9,10-6.1,21.8-11.1,28.8c-8.2,11.6-17.3,22.2-26.3,32.9c-9.7,11.5-20.4,22.2-29.8,34c-19.7,24.9-35.5,52.4-59.8,71.4
				c-15.8,12.3-37,23.5-55.6,21.5c-13.4-1.5-12.5-37.6-13.8-49.2c-2.1-18.9-6.2-38.8-12.7-56.2c-5.6-14.9-18.8-19.5-31-22.9
				c-7.6-2.1-15.6-3.2-23-6.5C753.1,903.4,750.9,899.1,749.7,888.3z"/>
			<path class="st3" d="M759,876.2c-1.6-21.8-1.3-47.7,9.4-66.6c9.4-16.5,26-20.9,37.9-33.9c9.2-10.2,12.9-26.8,17.8-40.2
				c6.1-16.4,14.6-46.8,29.9-53c14.3-5.8,29.2,31,34.3,42c8.2,17.3,15,36.4,24.9,52.4c8.5,13.8,20,21.4,32.1,29.6
				c15.5,10.5,39,22.9,47.2,43.3c6.2,15.2-13.9,37.8-20.7,48.3c-7.2,11-12.6,24-19.9,34.6c-11.7,16.7-30.6,30.2-46.2,40.5
				c-15.2,10-34.9,21.1-52.1,20.4c-11.3-0.4-13.5-21.8-15.9-32.2c-3.5-14.8-8.1-28.1-17.9-38.1C809.8,913,798,908.2,785.5,904
				c-6.4-2.2-13.7-3.8-19.4-8.2C759.8,891,759.6,884.6,759,876.2z"/>
			<path class="st2" d="M770.3,863.6c0.1-18.9,3.6-39,14.1-53.5c8.7-12.1,22.4-16.2,30.7-28.6c6.6-9.8,10-23.6,14.4-35
				c5.4-14,13.1-38.4,26.6-43.2c13.2-4.7,24.8,22.1,29.8,32.8c7.4,15.6,13.4,32.1,20.8,47.7c5.8,12.2,13,20.1,22.5,27.9
				c11.2,9.2,26.7,19.5,32.7,34.7c4.3,11.1-6.1,28.7-9.9,38.5c-2.5,6.5-4.8,13.2-6.1,20.3c-1,5.5-1.1,10.6-4,15.4
				c-7.2,11.9-23.1,13.5-33.9,17.4c-14.3,5.2-29.5,11.1-44.4,12.3c-9.2,0.7-13.9-9.6-19.1-16.9c-6.2-8.6-15-14.8-22.6-21.3
				c-10.1-8.6-21.1-13.9-32.5-19.4c-5.1-2.5-11.2-4.9-15.2-9.8C770.1,877.8,770.3,870.4,770.3,863.6z"/>
			<path class="st1" d="M782.1,852.4c1.8-15.8,7.5-31,17-42.2c7.3-8.6,17.1-13.4,22.9-23.8c5.5-9.6,9.3-20.6,13.8-30.9
				c4.8-10.9,11.9-29.1,23-32.1c11.9-3.2,21.1,15.2,26.2,25.3c6.4,12.9,11.3,26.7,17,40c4.3,9.9,9.8,19,16.4,26.9
				c6.8,8.3,16.1,16.3,19.6,27.8c3.1,10.2-2.7,22.5-3.7,32.8c-1.1,11,0.8,22.6-5.2,32c-12.4,19.5-43.4,15.9-61.1,16.3
				c-17.5,0.4-31.6-11.5-45.7-22.9c-9.3-7.5-19.1-13.8-28.7-20.8C783.9,873.9,780.5,866.4,782.1,852.4z"/>
			<path class="st1" d="M793.2,843.4c5.4-23,22.1-35.2,34.1-52.5c9.8-14.2,17.2-43.6,33.7-47.5c18.8-4.4,30,34.6,36.5,49.6
				c7.2,16.7,20.1,30.2,25.5,47.9c2.8,9.3,0.4,17.9-1.1,27.2c-1.6,10.2-2.9,20.6-8.6,28.8c-11.2,16.1-33,16-48.7,16.4
				c-16.3,0.5-30.7-10.6-43.6-21.6C807.2,879.9,787.7,866.9,793.2,843.4z"/>
			<path class="st2" d="M802.2,837.1c6.1-16.4,18.8-29.7,29.1-42.2c8.6-10.5,17.9-31.5,31-33c15.4-1.8,24.8,20.7,30.9,34.5
				c6,13.6,14.6,27.9,17.9,42.7c3.5,15.5-5.7,36.4-14.5,47.3c-9.8,12.2-25.8,16.7-39.5,16.3c-14.4-0.5-27.6-10.6-38.4-21.1
				C806.9,870.4,795.1,856.1,802.2,837.1z"/>
			<path class="st1" d="M810.5,834c5.8-13.6,15.8-25.1,25-35.4c7.1-7.9,17.7-21.4,27.9-21.7c11.3-0.4,20.9,10.9,25.4,22.5
				c4.4,11.4,9.1,25.8,9.8,38.3c1.4,27.3-27.9,57.9-50,55.4C827.8,890.9,799,861.2,810.5,834z"/>
			<path class="st0" d="M818.2,832.5c8-17.7,27.4-43,45.3-43.6c20.6-0.7,25.8,27.4,23.1,47.8c-2.7,20.8-26.5,50.9-45.4,46.8
				C822.7,879.6,808.8,853.6,818.2,832.5z"/>
			<path class="st2" d="M826.4,829.7c6.8-14.8,21.2-33.4,36.2-33.9c17.9-0.7,17.6,23.1,13.5,37.9c-4.2,15.3-22.8,41.5-38.5,37.4
				C822.3,867,819.9,843.9,826.4,829.7z"/>
			<path class="st1" d="M833.5,828c4.5-10.6,15.6-24,26.2-24.4c13-0.5,10.4,18.3,7.1,27.4c-4,10.8-17.3,29.6-28.5,26.6
				C827.2,854.5,829.8,836.7,833.5,828z"/>
			<path class="st2" d="M1443.3,1433c-28.7,21.2-61.1,38.8-91.7,56.6c-44.7,26-90.1,51.4-137,70.8c-25.2,10.4-57.8,25.4-84.8,17.2
				c-9.9-3-18.9-12-27.7-17.8c-12.2-8.1-24.6-15.7-37-23.4c-24.8-15.4-49.7-30.7-74.1-47.1c-11.7-7.9-23.1-17.8-35.4-24.6
				c-7.1-3.9-15.7-2.1-23.3-1.8c-17.7,0.6-35.4,1.7-53,2.6c-21.6,1.1-43.3,2.4-64.9,1.9c-9.8-0.2-33.7,1.9-39-8.4
				c-2.9-5.5,3.9-15.5,7.1-20.1c5.8-8.5,12.5-16.1,19-23.7c15.2-17.5,31.4-34.1,44.9-53.7c6.9-10,16.1-22.3,11.5-36
				c-4.6-13.8-12.5-25.8-17.3-39.6c-5.6-15.9-7.9-32.4-10.5-49.2c-1.9-12.4-6.5-23.5-10.7-34.9c-4.7-12.7-9.6-25.5-12.9-38.8
				c-2.2-8.8-5.7-24.7,1.9-30.3c10.7-8,30.9-1.5,43.2,0.8c16.9,3.2,33.7,7.3,50.6,10.9c12.3,2.6,24.6,5.4,37,5.7
				c20.1,0.5,40.3-1.2,60.3-2.8c37.1-2.9,73.9-6.8,111.2-6.8c32.6,0,108,46.1,125.6,54.2c35.2,16.2,71.4,31.5,104.7,53.1
				c9,5.8,22.9,13.6,27.6,25.6c2.9,7.4,1.6,11.7,8.5,16.4c9.4,6.5,21.5,9.1,31.9,12c16.8,4.7,33.7,8.7,50.6,12.9
				c34.1,8.6,68,18.2,102,27.5c10.3,2.8,22.7,3.4,32.5,8.4c6.3,3.2,5.7,7.2,0.8,12c-8.6,8.5-20.6,13.2-30.7,18
				c-14.8,7.1-29.9,13.4-45,19.7c-15.1,6.2-30.2,12.3-45.3,18.5C1463.6,1423,1452.3,1426.4,1443.3,1433z"/>
			<path class="st0" d="M1419.7,1428.4c-30.4,21.3-64,38.2-96.5,54.8c-41.6,21.2-84.1,41.1-127.9,54.3c-25.7,7.8-56.1,16.4-82.3,7.4
				c-9.4-3.2-16.4-10.3-24.4-16.6c-9.2-7.2-18.7-13.8-28.2-20.3c-19.6-13.4-39.4-26.3-59.4-38.7c-10.6-6.6-22.2-15.5-34.2-17.8
				c-9.5-1.8-20.3,0.8-29.9,1.6c-17.2,1.4-34.4,2.8-51.6,4c-19.9,1.4-39.8,2.7-59.7,2.5c-11.1-0.1-30.1,1.9-38-6.8
				c-6.8-7.6,18.1-35.2,22.5-40.5c13.7-16.4,28.1-32,40.8-49.5c7.5-10.3,16.7-22.9,19.9-36.6c2.7-11.7-2.5-25-5.6-35.7
				c-3.9-13.5-7-27.5-11.4-40.7c-4-11.8-10.3-22.3-15.9-33c-6.1-11.8-12.3-23.8-16.9-36.6c-2.8-7.9-7.4-21.2-1.9-28.7
				c6.4-8.7,26.1-3,34.2-1.8c16.4,2.5,32.8,6.3,49.1,9.7c27.1,5.6,53,10.6,80.6,9.4c36-1.5,71.9-5.2,107.9-7.2
				c13.3-0.7,26.8-2.3,40.1-1.4c7.6,0.5,13.4,3.3,17.9,9.7c6.1,8.7,20,13.6,29.7,18.6c15.1,7.8,30.4,15.1,45.7,22.5
				c33.5,16.2,67.7,31.8,99.4,52.7c10.1,6.6,21.6,14,29,24.9c4.1,6.1,3.1,12,5.6,18.5c3.4,8.5,14.4,12.4,21,15.2
				c12.7,5.4,26,9,39.1,12.4c29.7,7.7,59.5,12.7,89.7,16.4c7.1,0.9,35,3.8,20.3,18.2c-16.2,15.9-39.5,23.7-58.6,32.6
				C1452.7,1409.8,1435.5,1417.3,1419.7,1428.4z"/>
			<path class="st1" d="M1377.7,1424.4c-28.5,18.7-60.1,32.7-90.9,46.1c-37.3,16.2-75.5,30.7-114.6,38.8c-24.6,5.1-51.6,9-76,0.5
				c-16.7-5.8-29.6-21.4-44.2-32.1c-14.6-10.7-29.9-20.8-45.5-29.2c-9.7-5.2-20.2-10.5-31-9.8c-26.3,1.7-52.6,5.6-79,7.6
				c-17.4,1.3-34.9,2.4-52.4,2c-10.5-0.2-25,0.6-34.4-6.2c-10.3-7.5,44.6-71.4,49.8-78.6c13-18,28.8-42,26.3-67.7
				c-2.4-24.5-12.8-42.9-24.7-62.1c-6.7-10.9-28.2-40.1-20.2-54.4c4.5-8.1,19.5-5.3,26.7-4.8c14,1.1,28,3.4,42,5.5
				c20.4,3,41.3,7.5,61.7,8.8c14.2,0.9,28.6-0.3,42.8-0.3c20.5,0,40.9,0.2,61.4,0.4c17.2,0.2,34.5,0,51.6,2
				c10.6,1.2,18.7,4,26.3,11.9c6.6,6.8,16.7,10.8,25.1,15.2c14,7.2,28.1,13.8,42.3,20.6c29.6,14.1,59.5,28,87.7,45.7
				c12.9,8.1,34.6,19.4,37.7,38.9c1.1,7.1,1.9,10.1,7.5,14.1c8,5.7,17.6,8.3,26.6,10.5c20.9,5.2,42.5,4.4,63.4,9.6
				c8.5,2.1,19.6,6.7,9.9,17.2c-11.3,12.2-27.9,19-41.5,26.5c-6.8,3.8-13.8,7.3-20.2,11.9C1387,1416.6,1382.8,1421.1,1377.7,1424.4z
				"/>
			<path class="st3" d="M1323.7,1418.6c-26.4,15.2-55,26.3-83.1,36.2c-31.2,11.1-63.2,20.2-95.6,24.1c-22.4,2.7-46.2,3.5-67.9-4.8
				c-13.7-5.2-23-16.2-34.9-25.4c-17.8-13.9-37.1-25-58.6-22.3c-24,3-48.1,5.3-72.3,6.8c-14.6,0.9-29.2,1.6-43.8,1
				c-9.2-0.4-21.1-1.1-29.2-6.2c-10.7-6.8,29.6-58.8,34.6-66.4c12.5-18.8,21.6-38.5,27-61.8c4.4-19-4.5-33.9-13.7-48.2
				c-5.7-8.8-24.2-31-18.4-42.5c3.2-6.3,13.6-6,19.2-6.3c10.7-0.6,21.4,0,32.1,0.3c15.8,0.4,32.6-2.5,48.2-0.1
				c34.7,5.3,69.3,9.8,104.2,13.5c19.2,2,38.6,3.8,57.7,7.6c6.8,1.4,13.9,2.8,20.4,6c4.2,2,6.4,5.4,10,8.2
				c16.8,13.3,38.7,20.2,57.6,28.7c25.1,11.4,50.4,22.5,74.9,35.9c12.9,7.1,30.8,15.2,39.7,29.6c2.7,4.4,1.5,7.8,3.2,12
				c1.9,4.8,7.8,6.3,11.6,7.6c8.6,3.1,44.7,7.7,28.1,25.6c-7.9,8.5-18,14-27,20.7c-3.2,2.4-6.4,4.9-9.1,8.1
				C1334.2,1411.9,1329.7,1415.1,1323.7,1418.6z"/>
			<path class="st2" d="M1266.1,1412c-52,24.6-113,41.4-169.7,38.1c-18.9-1.1-39.2-4.7-55.5-17.1c-9.6-7.3-17.3-15.6-28.9-18.2
				c-8.4-1.9-17.4,0.3-25.8,1c-12.2,1.1-24.4,2.2-36.6,3c-15.1,1-30.3,1.8-45.5,1.4c-10.8-0.3-25.8,0-35.2-7.1
				c-11.2-8.5,17.4-48.2,21.4-55.3c9.7-17.2,16.6-33.8,19.1-54.5c0.7-6,3.2-12.2,2.9-18.3c-0.3-6.2-3.5-11.7-6.4-16.6
				c-3.8-6.4-16.9-21.5-13.1-29.3c2.1-4.3,9.9-4.8,13.9-5.8c7.6-1.7,15.3-2.6,22.9-4c12.9-2.3,25.8-9.9,38.7-9.7
				c34.9,0.6,70.3,13.8,104.4,21c20.3,4.3,40.8,8.2,60.8,14.1c6.4,1.9,12.9,3.8,18.9,6.9c4.2,2.2,6.9,6.1,10.8,8.6
				c15,9.4,32.2,15.2,48.2,21.5c20.9,8.3,41.8,16.3,62.5,25.1c13,5.5,29.7,10.4,40.9,20.6c8.2,7.5,2.6,9.7-1.7,16.7
				c-2.2,3.5-1.7,7-2.6,11.1c-1.4,5.7-5.2,9.9-8.8,13.6c-5,5.1-11.6,9.3-15.7,15.6c-1.4,2.2-1.4,5-2.5,6.9
				C1280,1406.9,1271,1409.7,1266.1,1412z"/>
			<path class="st3" d="M1210.8,1403.2c-42.2,15.5-89.2,24.3-133.9,20.2c-15.5-1.4-31.2-4.7-45.6-12c-6.6-3.3-11.5-7-18.7-7.2
				c-16.7-0.5-33.5,1.1-50.3,1.5c-12,0.3-24,0.4-36-0.8c-8-0.8-18.8-1.7-25.3-7.7c-9.5-8.7,7.7-38.3,11.2-46.5
				c5.8-13.6,11.5-28.6,9.2-44.3c-0.7-4.8-2-9-2.1-13.9c-0.2-4.2,0.3-8.1-0.9-12.1c-1.5-5-8.2-12.7-5.9-17.3
				c1.6-3.1,6.2-3.3,9.4-4.3c5-1.6,10-3.8,14.7-6.4c5-2.8,9.3-7.1,14.4-9.3c8.4-3.7,17.8-4.1,26.7-4c35.3,0.1,71,8.6,105.4,17.4
				c17.9,4.6,35.9,9.6,53.3,16.6c5.3,2.1,11.3,4.3,15.9,8.2c2.9,2.4,4.9,5.5,8.2,7.4c28.1,15.7,60.7,21.6,90.5,32.9
				c7.8,3,50.8,17.9,28.3,32c-13.7,8.5-28.1,12.4-40.6,24.1c-3.8,3.6-6.3,6.5-7.8,11.9c-1,3.6,1.4,1.8-1.9,5.5
				C1224.8,1399.6,1215.7,1401.4,1210.8,1403.2z"/>
			<path class="st1" d="M1166.9,1394.1c-49.4,12.6-101.8,13.2-152,2c-12.7-2.8-25.8-2.1-38.7-2.9c-12.5-0.7-34.6,0.7-43.6-10.9
				c-6.6-8.5,0.6-26.5,3-36c3.1-12.1,5.9-24.5,0.7-36.3c-3-6.9-7.1-13.4-10.4-20.2c-1.5-3.2-4.7-8.2-3.4-11.3
				c2.2-5.1,12.5-7.2,17.5-9.6c15.9-7.7,32.8-9.6,49.9-9.5c31.5,0.1,63.1,5.4,94,12.5c14.2,3.3,28.6,6.8,42.3,12.5
				c7.8,3.2,13.5,9.4,20.9,13.1c23.8,11.9,49.4,18.2,73.7,29.1c7,3.1,33.2,13.6,20,26c-12.8,12-31.4,10.5-44.7,21.8
				c-1.5,1.3-3.4,2.8-4.2,4.9c-0.5,1.2,0.4,3.6,0,4.3C1187.7,1391.2,1173.2,1392.5,1166.9,1394.1z"/>
			<path class="st1" d="M1134.9,1385.7c-25.4,4.2-51.3,5.3-77.1,5.6c-14.1,0.1-29.6,1.2-43.4-3.1c-8.5-2.7-16.7-5-25.4-6.7
				c-9.4-1.8-24.5-3.1-30.3-13c-4.3-7.4-1.3-22.5-1.2-31.5c0.2-9.8-1.5-17.1-7.2-24.2c-3.6-4.4-20-20.5-18.1-25.2
				c1.8-4.4,13.2-5.1,18.2-6.2c15.6-3.6,31.5-4.9,47.3-4.7c24.6,0.3,49.3,3.4,73.5,8.6c10,2.2,20.4,4.5,29.9,8.8
				c6.4,2.9,11.8,8.2,18.2,11.2c18.3,8.7,37.7,14.7,56.1,23.6c5.9,2.9,25.1,10.5,20.5,22.2c-3.8,9.8-16.9,12.8-23.3,19.3
				C1161.9,1381.7,1148.8,1383.4,1134.9,1385.7z"/>
			<path class="st2" d="M1118.9,1380.1c-20.1,2.8-40.7,4-61.1,4.1c-13.2,0-27.1,0.3-40-3.4c-6.5-1.8-12.1-6.1-18.3-9.1
				c-6.3-3.1-15.1-6.6-17.8-13.7c-2.6-6.7-1.6-16.5-3.9-24.6c-2-7.2-6.2-11.6-10.7-16.5c-2.9-3.1-17.7-16.5-16-19.5
				c1.8-3.2,10.7-2.9,15.4-3.4c12.8-1.2,25.5-1.6,38.3-1.2c17.4,0.7,35,2.5,52.2,6.6c12.2,2.9,21.3,9.9,32.7,15
				c14.7,6.6,29.9,11.9,44.5,19.1c7.3,3.6,18,8.3,21.7,17.6c1.4,3.6,2.8,12.7,1.2,16.2c-1.9,4.3-9,6.1-12.4,7.2
				C1136.2,1377.6,1127.4,1378.9,1118.9,1380.1z"/>
		</g>
	</g>
</g>
</svg>
