<svg enable-background="new 0 0 1367 696" viewBox="0 0 1367 696" xmlns="http://www.w3.org/2000/svg"><path d="m314.5 214.5-204 126v25l2 2v39l202-96v-58l-1-3z" fill="none" stroke="#000" stroke-miterlimit="10" stroke-width=".75"/><path d="m314.5 214.5 515 94 2 27h-4l2 41-515-66" fill="none" stroke="#000" stroke-miterlimit="10" stroke-width=".75"/><path d="m360 105 232-12 72 23 28.5-14.5 208 73 85 28v6l-293-98-27 15-74-23-231 12z" fill="none" stroke="#000" stroke-miterlimit="10" stroke-width=".75"/><path d="m943.5 336.17c0-1.5 0-7.67 0-7.67s250.59 46.27 270.99 50.04c-.5 2.49-.99 4.96-.99 4.96l-270-47s0-.12 0-.33z" fill="none" stroke="#000" stroke-miterlimit="10" stroke-width=".75"/><path d="m934 307.27 269.96 55.02" fill="none" stroke="#000" stroke-miterlimit="10" stroke-width=".75"/><path d="m821.5 140.5 37-39-41 18-12.7-4.47-109.3-38.53-20 12-101-34-149 5-66 45-246 182-26-3-36 26v7l36-25 28 2 244-179" fill="none" stroke="#000" stroke-miterlimit="10" stroke-width=".75"/><path d="m87.5 283.5 41-35 26 3" fill="none" stroke="#000" stroke-miterlimit="10" stroke-width=".75"/><path d="m113.5 286.5 53-45 54-39" fill="none" stroke="#000" stroke-miterlimit="10" stroke-width=".75"/><path d="m421.5 60.5-136-40-101 92v8l103-90 126 35" fill="none" stroke="#000" stroke-miterlimit="10" stroke-width=".75"/><path d="m285.5 20.5 20-14 133 42 16 9" fill="none" stroke="#000" stroke-miterlimit="10" stroke-width=".75"/><path d="m231.5 198.5 4-111-7-2" fill="none" stroke="#000" stroke-miterlimit="10" stroke-width=".75"/><path d="m223.5 203.5 2-116 3-2-2 117" fill="none" stroke="#000" stroke-miterlimit="10" stroke-width=".75"/><path d="m184.5 121.5 40.27 8.35" fill="none" stroke="#000" stroke-miterlimit="10" stroke-width=".75"/><path d="m189.5 116.5 35 6" fill="none" stroke="#000" stroke-miterlimit="10" stroke-width=".75"/><path d="m303 146.3 1.21-111.16" fill="none" stroke="#000" stroke-miterlimit="10" stroke-width=".75"/><path d="m316 137 3.35-97.65" fill="none" stroke="#000" stroke-miterlimit="10" stroke-width=".75"/><path d="m296.99 150.75 2.47-116.93" fill="none" stroke="#000" stroke-miterlimit="10" stroke-width=".75"/><path d="m266.6 173.23 4.9-118.73-8-2" fill="none" stroke="#000" stroke-miterlimit="10" stroke-width=".75"/><path d="m256.84 180.45 3.66-123.95 3-3-2.58 123.94" fill="none" stroke="#000" stroke-miterlimit="10" stroke-width=".75"/><path d="m404 64v9s12-5 9-6-9-3-9-3z"/><path d="m1030 273 3 38 9 2-3-37z"/><path d="m1076 285 3 37 4 1-3-37z"/><path d="m1171 312 6 2 2 31-5-1z"/><path d="m274 77 4-4v-14l7-7v-3l-11 9z"/><path d="m237 111 7-6v-15l14-16-19 15z"/><path d="m548.38 257.19-.88-77.69c.04-2.69-.11-6.52-1-11-3.12-15.69-12.64-25.59-16-29-14.18-14.38-31.25-17.27-36-18-21.32-3.3-37.62 4.95-43 8-9.87 5.6-15.82 12.36-18 15-14.14 17.12-15.03 36.88-15 44v44.98" fill="none" stroke="#000" stroke-miterlimit="10" stroke-width=".75"/><path d="m429.5 235.49v-50.99c.13-4.67 1.15-20.16 13-34 9.18-10.72 20.33-15.16 27-17 4-1.1 24.74-6.4 44 6 2.39 1.54 12.57 8.38 19 22 3.31 7.02 5 13.68 5 19 0 5 .18 6.93 0 9l.08 65.72" fill="none" stroke="#000" stroke-miterlimit="10" stroke-width=".75"/><path d="m543 154s12 20 12 29 0 54 0 54l29-2-29.95 23.41-5.26-1.22-1.29-80.69z"/><path d="m775 388 20-4 4 71-23-31z"/><path d="m769 463 29 1 1 16-30 6v-22"/><path d="m852 290.8 64.34 12.87 6.16.83" fill="none" stroke="#000" stroke-miterlimit="10" stroke-width=".75"/><path d="m708.2 260.31 99.6 21.69" fill="none" stroke="#000" stroke-miterlimit="10"/><path d="m585 235h5l103 22 1 .22" fill="none" stroke="#000" stroke-miterlimit="10"/><path d="m804.5 302.5c.55-1.96 2.42-7.58 8-12 1.68-1.33 6.34-4.64 13-5 7.91-.42 13.59 3.59 17 6 6.06 4.28 9.14 9.27 12 14 5.77 9.56 7.77 18.26 9 24 1.39 6.48 1.85 12.03 2 16l6 134h6l-5-116c.02-4.53-.12-11.52-1-20-1.76-16.96-3.18-30.53-12-44-6.36-9.71-13.62-14.85-17-17-4.2-2.67-8.6-5.39-15-6-9.19-.88-16.27 3.18-19 5-9.8 6.52-12.44 16.58-13 19l-.69 1.67" fill="none" stroke="#000" stroke-miterlimit="10" stroke-width=".75"/><path d="m104 513 75-17.86" fill="none" stroke="#000" stroke-miterlimit="10" stroke-width=".75"/><path d="m102.05 496.39-9.46 2.3-41.09 10.81v15l40.37-9.29 9.32-2.21" fill="none" stroke="#000" stroke-miterlimit="10" stroke-width=".75"/><path d="m180 475.68-55.47 14.6-11.44 3.08" fill="none" stroke="#000" stroke-miterlimit="10"/><path d="m336.5 434.5-116.5 30.66" fill="none" stroke="#000" stroke-miterlimit="10" stroke-width=".75"/><path d="m326 464.33-107.02 24.12" fill="none" stroke="#000" stroke-miterlimit="10" stroke-width=".75"/><path d="m68.5 307.5 27 2-3 89 5-2 5-91-28-3z" fill="none" stroke="#000" stroke-miterlimit="10" stroke-width=".75"/><path d="m52.5 319.5 25 3-4 86 4-2 4-89-26-2-4 3v1z" fill="none" stroke="#000" stroke-miterlimit="10" stroke-width=".75"/><path d="m296.5 166.5 11-8-3 61-7 4 3-57z"/><path d="m296.5 168.5-2 57" fill="none" stroke="#000" stroke-miterlimit="10" stroke-width=".75"/><path d="m229.45 267.03 2.05-54.53-6 4-2 54" fill="none" stroke="#000" stroke-miterlimit="10" stroke-width=".75"/><path d="m215.53 275.63 1.97-53.13 9.23-6.82" fill="none" stroke="#000" stroke-miterlimit="10" stroke-width=".75"/><path d="m194.49 288.62 2.01-52.12-4 3-1.82 51.48z" fill="none" stroke="#000" stroke-miterlimit="10" stroke-width=".75"/><path d="m186.5 293.56 2-52.06 4-2" fill="none" stroke="#000" stroke-miterlimit="10" stroke-width=".75"/><path d="m336.5 420.5-106.3-6.21-8.21-.44" fill="none" stroke="#000" stroke-miterlimit="10"/><path d="m112.5 407.5 67.17 3.84" fill="none" stroke="#000" stroke-miterlimit="10"/><path d="m183.5 392.5 160.66-67.1" fill="none" stroke="#000" stroke-miterlimit="10" stroke-width=".75"/><path d="m336.5 340.5-29 12 29 4" fill="none" stroke="#000" stroke-miterlimit="10" stroke-width=".75"/><path d="m398.5 343.5 63 7 25-7" fill="none" stroke="#000" stroke-miterlimit="10" stroke-width=".75"/><path d="m396.5 362.5 65 7v-19" fill="none" stroke="#000" stroke-miterlimit="10" stroke-width=".75"/><path d="m569.5 353.5-173 50" fill="none" stroke="#000" stroke-miterlimit="10" stroke-width=".75"/><path d="m396.5 398.5 157-47-155-19" fill="none" stroke="#000" stroke-miterlimit="10" stroke-width=".75"/><path d="m336.5 389.5-98.99-9.01 25.04-10.02 70.95 6.03h3" fill="none" stroke="#000" stroke-miterlimit="10" stroke-width=".75"/><path d="m336.5 392.5-105.46-9.42-23.54 9.42" fill="none" stroke="#000" stroke-miterlimit="10" stroke-width=".75"/><path d="m396.5 366.5 56 6 9-3" fill="none" stroke="#000" stroke-miterlimit="10" stroke-width=".75"/><path d="m628.12 384.18-122.76-11.68" fill="none" stroke="#000" stroke-miterlimit="10" stroke-width=".75"/><path d="m400.5 326.5 314 39-60.62 14.94" fill="none" stroke="#000" stroke-miterlimit="10"/><path d="m396 373.5 12-5-12-2z"/><path d="m380 226.46 1-109.46s-.05-.1-.12-.25c-.23-.16-.38-.25-.38-.25l-3-2-1.07 111" fill="none" stroke="#000" stroke-miterlimit="10" stroke-width=".75"/><path d="m376.5 114.5h-5.78l-1.42 110" fill="none" stroke="#000" stroke-miterlimit="10" stroke-width=".75"/><path d="m254.62 251.48 1.88-55.98 9-7-.99 57.16" fill="none" stroke="#000" stroke-miterlimit="10" stroke-width=".75"/><path d="m260.17 192.64-2.17 56.76" fill="none" stroke="#000" stroke-miterlimit="10" stroke-width=".75"/><path d="m165.71 306.4-7.31 4.52 3.02-48.18" fill="none" stroke="#000" stroke-miterlimit="10" stroke-width=".75"/><path d="m144.12 272.5-1.22 47.99-8.37 5.17 1.6-47.3z"/><path d="m122.26 288.54-1.8 45.81" fill="none" stroke="#000" stroke-miterlimit="10" stroke-width=".75"/><path d="m111.95 521.05-3.46 83.06c-1 2-12.02 0-12.02 0l16.03-309.61" fill="none" stroke="#000" stroke-miterlimit="10" stroke-width=".75"/><path d="m116.65 407.74-3.98 95.74-9.17 10.02v6l75-15" fill="none" stroke="#000" stroke-miterlimit="10" stroke-width=".75"/><path d="m183.5 393.5-9 207" fill="none" stroke="#000" stroke-miterlimit="10" stroke-width=".75"/><path d="m223.11 386.25-8.61 213.25" fill="none" stroke="#000" stroke-miterlimit="10" stroke-width=".75"/><path d="m179.5 600.5 10-209c1.18-.42 2.52-.78 4-1 5.93-.88 10.95.96 13.92 2.43-.78 23.37-6.92 207.57-6.92 207.57" fill="none" stroke="#000" stroke-miterlimit="10" stroke-width=".75"/><path d="m110 365 55-31 46-26 102-59 2 3-202 115z"/><path d="m313 249 173 29 161 27 185 30h-6l-216-34-295-50z"/><path d="m650.5 606.5-5-225" fill="none" stroke="#000" stroke-miterlimit="10" stroke-width=".75"/><path d="m259.93 416.03-.79 38.83-6.87 1.81 1.53-41z"/><path d="m294.72 418.06-1.24 27.76 7.52-1.98.45-25.39z"/><path d="m249.5 415.5-1.24 42.22" fill="none" stroke="#000" stroke-miterlimit="10" stroke-width=".75"/><path d="m289.5 417.5v29.37" fill="none" stroke="#000" stroke-miterlimit="10" stroke-width=".75"/><path d="m162.58 410.36-3.21 70.75-5.54 1.46 3.79-72.49z"/><path d="m154.68 409.91-3.46 73.35" fill="none" stroke="#000" stroke-miterlimit="10" stroke-width=".75"/><path d="m132.5 408.5-4.78 80.94 7.41-1.95 4.12-78.46z"/><path d="m251 133-14 12-1 41 1-1 2-39 12-9z"/><path d="m757 390-.08 2.02 72-15-4.92-.02z"/><path d="m676 408 50-10v-1l-51 11"/><path d="m801.72 382.68 4.28 98.32" fill="none" stroke="#000" stroke-miterlimit="10" stroke-width=".75"/><path d="m759.5 452.5 39 2-23-31h-17" fill="none" stroke="#000" stroke-miterlimit="10" stroke-width=".75"/><path d="m93 499 4-84-4.5 2.5" fill="none" stroke="#000" stroke-miterlimit="10" stroke-width=".75"/><path d="m86.13 500.39 4.37-81.89 2-1-4 82" fill="none" stroke="#000" stroke-miterlimit="10" stroke-width=".75"/><path d="m532.5 161.5-5-4c-4.54-3.38-12.34-8.15-23-10-18.59-3.23-32.9 4.66-37 7-10.33 5.9-15.86 13.41-17 15-4.36 6.09-6.29 11.7-7 14-2.32 7.5-2.31 14-2 18l.19 36.22" fill="none" stroke="#000" stroke-miterlimit="10" stroke-width="2"/><path d="m510.06 148.78.44 92.72" fill="none" stroke="#000" stroke-miterlimit="10" stroke-width="2"/><path d="m446.28 176.56 90.42-3" fill="none" stroke="#000" stroke-miterlimit="10" stroke-width="2"/><path d="m441.35 199.65 95.15-4.15" fill="none" stroke="#000" stroke-miterlimit="10" stroke-width="2"/><path d="m441.61 222.49 95.93-3.71" fill="none" stroke="#000" stroke-miterlimit="10" stroke-width="2"/><path d="m537.54 240.32s-44.41 1.73-61.04 2.38c0-.76 0-1.2 0-1.2v-89" fill="none" stroke="#000" stroke-miterlimit="10" stroke-width="2"/><path d="m467.35 242.4 8.65-.4v1.98z"/><path d="m622.25 112.06 3.8 130.64" fill="none" stroke="#000" stroke-miterlimit="10" stroke-width=".75"/><path d="m638.07 116.97 4.71 129.3" fill="none" stroke="#000" stroke-miterlimit="10" stroke-width=".75"/><path d="m51.5 524.5v7l49.27-10.42" fill="none" stroke="#000" stroke-miterlimit="10" stroke-width=".75"/><path d="m111.72 526.29.23-8.48" fill="none" stroke="#000" stroke-miterlimit="10"/><path d="m52 528 47-10 2-4-1 4v1l-48.5 10.09z"/><path d="m103.5 516.82 75.32-15.63-.05 1.1z"/><path d="m218.8 496.78 109.2-22.35v-3.48l-2.41-1.15v-5.8" fill="none" stroke="#000" stroke-miterlimit="10" stroke-width=".75"/><path d="m218.98 492.65 107.07-23.11 1.95 1.61-109 22.85z"/><path d="m326 470v-6l9-10v6l-7 5v5 1z"/><path d="m107.5 391.12-49 25.38v5l-7 7v7l55.05-26.08" fill="none" stroke="#000" stroke-miterlimit="10" stroke-width=".75"/><path d="m52 432 32-15 22-10 .7-.5-.06 1.24-55.14 24.52"/><path d="m71.85 425.86-3.35 79.17" fill="none" stroke="#000" stroke-miterlimit="10" stroke-width=".75"/><path d="m76.25 423.77-4.8 80.48" fill="none" stroke="#000" stroke-miterlimit="10" stroke-width=".75"/><path d="m63.83 320.86-.33 8.64h4l-4.75 84.8" fill="none" stroke="#000" stroke-miterlimit="10" stroke-width=".75"/><path d="m61.65 430.69-4.15 77.23" fill="none" stroke="#000" stroke-miterlimit="10" stroke-width=".75"/><path d="m56.83 530.37-3.71 62.63h-1.12" fill="none" stroke="#000" stroke-miterlimit="10" stroke-width=".75"/><path d="m689 262 5 11v-9z"/><path d="m699.68 284.8c.32-.8-5.93-12.36-5.93-12.36l9.91 13.09z"/><path d="m708 272 6.57 12.05v3.95l-3.28-.6-3.29-6.63z"/><path d="m708 280v6.51l6 1.49z"/><path d="m186.5 269.93s-10.99 7.19-15 9.82c0-4.5 0-13.4 0-18.13 4.37-3.04 15.66-10.88 15.66-10.88" fill="none" stroke="#000" stroke-miterlimit="10" stroke-width=".5"/><path d="m158.4 288.32s-9.07 5.93-12.75 8.34c.19-4.78.52-12.9.71-17.57 3.05-2.12 13.19-9.16 13.19-9.16" fill="none" stroke="#000" stroke-miterlimit="10" stroke-width=".5"/><path d="m134.53 303.94s-7.61 4.98-10.85 7.1c.2-4.87.52-12.54.7-16.68 3.13-2.18 10.75-7.47 10.75-7.47" fill="none" stroke="#000" stroke-miterlimit="10" stroke-width=".5"/><path d="m93.97 330.49s-7.03 4.6-9.3 6.09c.17-4.1.44-10.57.63-15.05 2.35-1.63 8.68-6.03 8.68-6.03" fill="none" stroke="#000" stroke-miterlimit="10" stroke-width=".5"/><path d="m76.15 327.88-6.65 4.62v14l6.08-3.98" fill="none" stroke="#000" stroke-miterlimit="10" stroke-width=".5"/><path d="m341.03 143.82c.3-.21.47-.32.47-.32v25s-22.78 14.9-29 18.98c0-5.91 0-17.82 0-23.83 6.25-4.34 25.3-17.58 28.53-19.83z" fill="none" stroke="#000" stroke-miterlimit="10" stroke-width=".5"/><path d="m293.73 199.76s-16.82 11.01-22.23 14.55c0-5.43 0-16.45 0-22.17 5.52-3.84 23-15.98 23-15.98" fill="none" stroke="#000" stroke-miterlimit="10" stroke-width=".5"/><path d="m254.62 203.87s-13.39 9.3-19.21 13.35c-.16 4.76-.49 14.7-.71 21.18 5.06-3.31 19.7-12.89 19.7-12.89" fill="none" stroke="#000" stroke-miterlimit="10" stroke-width=".5"/><path d="m214.69 251.48s-11.19 7.32-15.19 9.94c0-5.9 0-14.15 0-19.26 4.14-2.88 16.03-11.14 16.03-11.14" fill="none" stroke="#000" stroke-miterlimit="10" stroke-width=".5"/><path d="m111.24 303.5s-4.63 3.22-6.74 4.68v15.42c1.83-1.2 5.5-3.6 5.5-3.6" fill="none" stroke="#000" stroke-miterlimit="10" stroke-width=".5"/><path d="m545 161 1-1c-2-7-8.26-11.86-8.26-11.86z"/><path d="m75 366-8 5-1 31 7-3-6 2 3-29 5-4z"/><path d="m83 393 1.5-31.5 8.5-7.5v7l-5.5 3.5-3 26z"/><path d="m103 348-1 33 4-2 1-30 2-2v-3z"/><path d="m84.13 391.12 6.87-4.12-7.77 5.62z"/><path d="m102 381 6.15-2.59-2.15.59z"/><path d="m258.5 129.5-6 4-1 40" fill="none" stroke="#000" stroke-miterlimit="10" stroke-width=".5"/><path d="m238.5 185.5 18-14" fill="none" stroke="#000" stroke-miterlimit="10" stroke-width=".5"/><path d="m272.5 158.5.5-43.5 7-5 18.16-14.83-.09 4.49-22.07 16.34z"/><path d="m272.5 158.5 24-18" fill="none" stroke="#000" stroke-miterlimit="10" stroke-width=".5"/><path d="m244.5 143.5v33" fill="none" stroke="#000" stroke-miterlimit="10" stroke-width=".5"/><path d="m280.23 112.87-.73 36.63" fill="none" stroke="#000" stroke-miterlimit="10" stroke-width=".5"/><path d="m289.71 105.85-.21 37.65" fill="none" stroke="#000" stroke-miterlimit="10" stroke-width=".5"/><path d="m703.66 114.23 4.84 172.27" fill="none" stroke="#000" stroke-miterlimit="10" stroke-width=".75"/><path d="m691 116 3 156" fill="none" stroke="#000" stroke-miterlimit="10" stroke-width=".75"/><path d="m759.5 135.5-4 1 4.72 135.14" fill="none" stroke="#000" stroke-miterlimit="10" stroke-width=".75"/><path d="m776.5 140.5-6 4 3 130.03" fill="none" stroke="#000" stroke-miterlimit="10" stroke-width=".75"/><path d="m829.5 160.5 5.05 117.7" fill="none" stroke="#000" stroke-miterlimit="10" stroke-width=".75"/><path d="m847.5 166.5-5 2 5 117.61" fill="none" stroke="#000" stroke-miterlimit="10" stroke-width=".75"/><path d="m928.5 193.5 5.9 113.85 9.1 173.65" fill="none" stroke="#000" stroke-miterlimit="10" stroke-width=".75"/><path d="m913.5 187.5-5 1 7 115" fill="none" stroke="#000" stroke-miterlimit="10" stroke-width=".75"/><path d="m898.5 183.5 5.69 117.74" fill="none" stroke="#000" stroke-miterlimit="10" stroke-width=".75"/><path d="m1026.5 236.5 6.23 90.89" fill="none" stroke="#000" stroke-miterlimit="10" stroke-width=".75"/><path d="m1071.5 248.5 6.5 88.32" fill="none" stroke="#000" stroke-miterlimit="10" stroke-width=".75"/><path d="m1112.5 260.5 7.43 84.86" fill="none" stroke="#000" stroke-miterlimit="10" stroke-width=".75"/><path d="m1151.5 273.5 7.52 79.63" fill="none" stroke="#000" stroke-miterlimit="10" stroke-width=".75"/><path d="m1187.5 283.5 6.9 76.84" fill="none" stroke="#000" stroke-miterlimit="10" stroke-width=".75"/><path d="m780.5 594.5h61 7l-1-1c-.74-3.02-1.63-8.54 0-15 2.91-11.53 11.7-17.53 14-19 6.22-1.36 10.23.14 12 1 9.89 4.79 11.58 19.21 11 27-.18 2.47-.62 4.52-1 6l25-2 78-6v-7s-2-24 14-25c0 0 15-4 16 30 0 0 18 0 21-1s28-11 28-11v-8h-1l-2-32s0-5-1-9-6-34-6-34 0-5-11-5l-153-4h-65l-1.28.08-30.72 1.92s-24 4-26 6-4 4-4 4l-2 6-1 13 1 64v1h-15" fill="none" stroke="#000" stroke-miterlimit="10" stroke-width=".75"/><path d="m908.5 591.5-1.94-64.86-.06-2.14 2-.03 150-1.97-5-33-89-3-120-2s-5-1-5 3-1 39-1 39l3 68" fill="none" stroke="#000" stroke-miterlimit="10" stroke-width=".75"/><path d="m973.5 212.5 221 66 25-4 112 38v4l-112-36-24 4-237-68 27-8" fill="none" stroke="#000" stroke-miterlimit="10" stroke-width=".75"/><path d="m1254 282 10.5-24.5-31 6-41-15-23 6-195-65-20.31-7.39" fill="none" stroke="#000" stroke-miterlimit="10" stroke-width=".75"/><path d="m1257.5 278.5 22 12-14.5-33.5 12 30v1z"/><g fill="none"><path d="m1274.38 278.67 31.12 17.83 26 16" stroke="#000" stroke-miterlimit="10" stroke-width=".75"/><path d="m1224.78 260.31-.28-11.81-15 3" stroke="#000" stroke-miterlimit="10" stroke-width=".5"/><path d="m1224.5 248.5 32.56 10.44" stroke="#000" stroke-miterlimit="10" stroke-width=".5"/><path d="m396.5 328.18v.32l-3 266c-2 1-22 1-22 1s-.49 0-.98 0c.33-17.79 4.98-267 4.98-267 .63-.36 1.3-.7 2-1 7.2-3.13 14.61-1.49 19 0z" stroke="#000" stroke-miterlimit="10" stroke-width=".75"/><path d="m314.5 641.6v-34.1c3-3 2-5 2-5h22c-1 2 2 3 2 3l-1 35v2h4l69-7v-40l-69 4h-32v42l31 1 1-43" stroke="#000" stroke-miterlimit="10" stroke-width=".75"/><path d="m346.08 642.24.42-36.74c2-2 2-4 2-4l61-3c-1 2 1 3 1 3v34.2" stroke="#000" stroke-miterlimit="10" stroke-width=".75"/><path d="m395.38 427.72 135.12 7.78v-29l-114.13-8.74" stroke="#000" stroke-miterlimit="10" stroke-width=".75"/><path d="m423.34 398.29v31.04" stroke="#000" stroke-miterlimit="10" stroke-width=".75"/><path d="m460.45 401.13v30.34" stroke="#000" stroke-miterlimit="10" stroke-width=".75"/><path d="m496.5 403.5v30.04" stroke="#000" stroke-miterlimit="10" stroke-width=".75"/><path d="m622.5 416.5-87 19v-30l80-19" stroke="#000" stroke-miterlimit="10" stroke-width=".75"/><path d="m555.06 400.85.48 30.62" stroke="#000" stroke-miterlimit="10" stroke-width=".75"/><path d="m576.84 395.68.61 30.66" stroke="#000" stroke-miterlimit="10" stroke-width=".75"/><path d="m598.74 390.48 1.08 30.97" stroke="#000" stroke-miterlimit="10" stroke-width=".75"/><path d="m412.5 603.34 103-6.84v-81l-118-1-1 77.43" stroke="#000" stroke-miterlimit="10" stroke-width=".75"/><path d="m412.5 595.5-18.96-4.23" stroke="#000" stroke-miterlimit="10" stroke-width=".75"/><path d="m615.5 593.5-72 2-1-82 74-9 1 89z" stroke="#000" stroke-miterlimit="10" stroke-width=".75"/><path d="m543.5 500.5c23.67-3.33 47.33-6.67 71-10-1-34-24-46-24-46-3.46-1.05-12.34-3.22-21 1-4.06 1.98-7.88 5.26-13 14-4.29 7.31-10.34 19.89-13 38z" stroke="#000" stroke-miterlimit="10" stroke-width=".75"/><path d="m399.5 499.5 116 2c-4.56-25.55-23.57-45.53-47-50-28.81-5.5-59.68 13.35-69 45l-1 3z" stroke="#000" stroke-miterlimit="10" stroke-width=".75"/><path d="m556.5 459.5 1.2 39" stroke="#000" stroke-miterlimit="10" stroke-width=".75"/><path d="m570.44 445.07v51.63" stroke="#000" stroke-miterlimit="10" stroke-width=".75"/><path d="m584.39 443.22.85 51.4" stroke="#000" stroke-miterlimit="10" stroke-width=".75"/><path d="m599.28 451.54.54 41.03" stroke="#000" stroke-miterlimit="10" stroke-width=".75"/><path d="m549.2 474.98 59.65-9.46" stroke="#000" stroke-miterlimit="10" stroke-width=".75"/><path d="m424 461.89-.66 38.61" stroke="#000" stroke-miterlimit="10" stroke-width=".75"/><path d="m448.01 451.54-1.19 48.78" stroke="#000" stroke-miterlimit="10" stroke-width=".75"/><path d="m470.43 451.91.07 49.59" stroke="#000" stroke-miterlimit="10" stroke-width=".75"/><path d="m492.9 462.9v38.21" stroke="#000" stroke-miterlimit="10" stroke-width=".75"/><path d="m410.99 474.28 94.54 2.42" stroke="#000" stroke-miterlimit="10" stroke-width=".75"/><path d="m725.5 369.5 6 208h2 15l-.5-1.5-6-206" stroke="#000" stroke-miterlimit="10" stroke-width=".75"/><path d="m756.5 372.5 5 139.01" stroke="#000" stroke-miterlimit="10" stroke-width=".75"/><path d="m712.44 400.71 6.11 178.29" stroke="#000" stroke-miterlimit="10" stroke-width=".75"/><path d="m412.5 611.85 116-7.35v5l-116 8.53" stroke="#000" stroke-miterlimit="10" stroke-width=".75"/><path d="m528.5 604.5 95-1v6h-95" stroke="#000" stroke-miterlimit="10" stroke-width=".75"/><path d="m623.5 603.5 12.38-3.28" stroke="#000" stroke-miterlimit="10" stroke-width=".75"/><path d="m623.5 609.5 12.5-2.5-4-222" stroke="#000" stroke-miterlimit="10" stroke-width=".75"/></g><path d="m532.5 392.5-.57 115.74-.43 87.26 1.5-100.5z"/><path d="m537 602 94-1-5 1-94 1z"/><path d="m529 603-116 7 1-1z"/><path d="m776.5 204.5 48 15 2 46-47-11z" fill="none" stroke="#000" stroke-miterlimit="10" stroke-width=".75"/><path d="m706.08 186.53 40.42 11.97 2 50-41.34-9.67" fill="none" stroke="#000" stroke-miterlimit="10" stroke-width=".75"/><path d="m851.5 225.5 41 12v43l-39-10z" fill="none" stroke="#000" stroke-miterlimit="10" stroke-width=".75"/><path d="m971.5 257.5 2 40 33 8-2-40z" fill="none" stroke="#000" stroke-miterlimit="10" stroke-width=".75"/><path d="m1032.5 273.5 28 7 3 37-21-4" fill="none" stroke="#000" stroke-miterlimit="10" stroke-width=".75"/><path d="m1081.5 286.5 20 6 3 35-20-4" fill="none" stroke="#000" stroke-miterlimit="10" stroke-width=".75"/><path d="m1118.5 297.5 24 6 2 34-23-5z" fill="none" stroke="#000" stroke-miterlimit="10" stroke-width=".75"/><path d="m1173.5 343.5-14-3-3-33 14 4" fill="none" stroke="#000" stroke-miterlimit="10" stroke-width=".75"/><path d="m733.95 124.36 185.55 65.14 64 20 1.5-.5z"/><path d="m950.5 462.5 273 16v3h-2v1l-273-12-2-3v-4l-4.15-4.5v-4z" fill="none" stroke="#000" stroke-miterlimit="10" stroke-width=".75"/><path d="m1212 468 12 10.91-7.64-7.64c-1.09-2.18 0-3.27 0-3.27z"/><path d="m1205.23 381.24 10.77 86.76" fill="none" stroke="#000" stroke-miterlimit="10" stroke-width=".75"/><path d="m1197.5 284.5 7 85" fill="none" stroke="#000" stroke-miterlimit="10"/><path d="m1205.5 283.5 22 210" fill="none" stroke="#000" stroke-miterlimit="10" stroke-width=".75"/><path d="m1214 378-11-9s6 3 6 4 5 5 5 5z"/><path d="m966.73 218.86 5.97 96.3" fill="none" stroke="#000" stroke-miterlimit="10" stroke-width=".75"/><path d="m868.5 315.5 63 10v6 2l-62.75-10.5" fill="none" stroke="#000" stroke-miterlimit="10" stroke-width=".75"/><path d="m869 319 62 11-10-1-52-9z"/><path d="m948 333 264 47h-4l-263-47z"/><path d="m953 467 267 14-115-5-155-7z"/><path d="m959 218 7 96-4-1-7-104 2 1v7z" fill="#1a1a1a"/><path d="m1010.09 231.5 5.91 1.5 4 92-4-1z" fill="#1a1a1a"/><path d="m1068 250 6 86-3-1-7-86z" fill="#1a1a1a"/><path d="m1109 259 7 85h-4l-7-86z" fill="#1a1a1a"/><path d="m1148 271 7 81h-3l-7-82z" fill="#1a1a1a"/><path d="m1184 281.03 6 77.97h-3l-6-79z" fill="#1a1a1a"/><path d="m1220 365 5 2-9-83-4-2z" fill="#1a1a1a"/><path d="m1118.5 367 7.5 86h-5l-7-86z" fill="#1a1a1a"/><path d="m1076 359.56 7 90.44-5-1-6.5-90.22z" fill="#1a1a1a"/><path d="m1022.9 350.32 7.1 94.68h-6l-6-95z" fill="#1a1a1a"/><path d="m967.84 340.74 7.16 100.26h-5l-6.78-101.07z" fill="#1a1a1a"/><path d="m1034 353 7.5 93.5" fill="none" stroke="#1a1a1a" stroke-miterlimit="10" stroke-width=".75"/><path d="m1080.47 360.34 7.03 90.16" fill="none" stroke="#1a1a1a" stroke-miterlimit="10" stroke-width=".75"/><path d="m1123.47 367.83 7.03 85.67" fill="none" stroke="#1a1a1a" stroke-miterlimit="10" stroke-width=".75"/><path d="m1161.61 374.47 7.89 81.03" fill="none" stroke="#1a1a1a" stroke-miterlimit="10" stroke-width=".75"/><path d="m1196.5 381.5 8 77" fill="none" stroke="#1a1a1a" stroke-miterlimit="10" stroke-width=".75"/><path d="m1157.51 373.75 7.49 82.25h-4l-7.33-82.91z" fill="#1a1a1a"/><path d="m974.5 341.9 7 99.6" fill="none" stroke="#1a1a1a" stroke-miterlimit="10" stroke-width=".75"/><path d="m943.5 438.5 271 21" fill="none" stroke="#1a1a1a" stroke-miterlimit="10" stroke-width=".75"/><path d="m875.45 431.84 38.05 3.66 15 1" fill="none" stroke="#1a1a1a" stroke-miterlimit="10" stroke-width=".75"/><path d="m877.5 467.5 60 2 3-2-1-5-61-4" fill="none" stroke="#000" stroke-miterlimit="10" stroke-width=".75"/><path d="m878 463 61 3-3 2z"/><path d="m803.61 426.14 38.89 3.36s-4-46-4-67-6-45-6-45l-3-6" fill="none" stroke="#000" stroke-miterlimit="10" stroke-width=".75"/><path d="m828.03 346.36 10.47 1.14" fill="none" stroke="#000" stroke-miterlimit="10" stroke-width=".75"/><path d="m829.37 373.9 9.44 1.1" fill="none" stroke="#000" stroke-miterlimit="10" stroke-width=".75"/><path d="m802.43 399 37.97 3.5" fill="none" stroke="#000" stroke-miterlimit="10" stroke-width=".75"/><path d="m821.42 427.68-2.26-49.74" fill="none" stroke="#000" stroke-miterlimit="10" stroke-width=".75"/><path d="m804.38 443.74 18.68-.11 21.44-.13 1.56 36" fill="none" stroke="#000" stroke-miterlimit="10" stroke-width=".75"/><path d="m823.5 443.5 2 36" fill="none" stroke="#000" stroke-miterlimit="10" stroke-width=".75"/><path d="m805.43 468 40.2 1.5" fill="none" stroke="#000" stroke-miterlimit="10" stroke-width=".75"/><path d="m807.5 296.5s8 1 12 2 8.99 9.82 8.99 9.82" fill="none" stroke="#000" stroke-miterlimit="10" stroke-width=".75"/><path d="m704.18 132.79s32.87 9.09 42 11.61c0 0 .86 25.11.86 25.11-7.6-1.99-42.13-11.01-42.13-11.01" fill="none" stroke="#000" stroke-miterlimit="10" stroke-width=".75"/><path d="m822.51 165.62c.08 1.83.99 23.88.99 23.88s-40.39-10.56-48.02-12.55c-.1-3.69-.69-24.63-.69-24.63 7.77 2.15 47.7 13.19 47.7 13.19s.01.03.02.11z" fill="none" stroke="#000" stroke-miterlimit="10" stroke-width=".75"/><path d="m849.5 174.5 40 13 1 22-3.5-1.5-1-19-36-13z"/><path d="m1003.19 229.32.81 11.68-35-9v-12.49" fill="none" stroke="#000" stroke-miterlimit="10" stroke-width=".75"/><path d="m985.5 236.5-.5-12.4" fill="none" stroke="#000" stroke-miterlimit="10" stroke-width=".75"/><path d="m1028.21 236.5 1.29 12 30 8-1.32-11" fill="none" stroke="#000" stroke-miterlimit="10" stroke-width=".75"/><path d="m1073.46 249.48 1.04 11.02 27 8-.88-11" fill="none" stroke="#000" stroke-miterlimit="10" stroke-width=".75"/><path d="m1115.1 261.43 1.4 12.07 24 7-1.58-12" fill="none" stroke="#000" stroke-miterlimit="10" stroke-width=".75"/><path d="m1152.9 272.28 1.6 12.22 21 5-1.33-10.83" fill="none" stroke="#000" stroke-miterlimit="10" stroke-width=".75"/><path d="m977.08 342.35.42 7.15 35 5-.51-6.08" fill="none" stroke="#000" stroke-miterlimit="10" stroke-width=".75"/><path d="m1036 352.6.5 7.9 30 4v-6" fill="none" stroke="#000" stroke-miterlimit="10" stroke-width=".75"/><path d="m1082.25 360.65.25 6.85 27 4v-6.1" fill="none" stroke="#000" stroke-miterlimit="10" stroke-width=".75"/><path d="m1124.95 368.09.55 6.41 24 4-.83-6.29" fill="none" stroke="#000" stroke-miterlimit="10" stroke-width=".75"/><path d="m1184.78 378.5.72 7-22-3-.63-7.81" fill="none" stroke="#000" stroke-miterlimit="10" stroke-width=".75"/><path d="m985.5 202.5-43-28-38-23-23.51-10.09" fill="none" stroke="#000" stroke-miterlimit="10" stroke-width=".75"/><path d="m958 215v-5l-17-10 32 7-13 2-2 7z"/><path d="m727 421.45-13.87-.81" fill="none" stroke="#000" stroke-miterlimit="10" stroke-width=".75"/><path d="m649.45 416.63 23.55 32.37-1 5h-1v4h-1-1v-10l-20-27-.5-4.5 2.1.13"/><path d="m652.5 416.5 46 2" fill="none" stroke="#000" stroke-miterlimit="10" stroke-width=".75"/><path d="m700.5 459.5 3 125c.96.03 1.96.04 3 0 2.98-.1 5.66-.49 8-1l1-1.01" fill="none" stroke="#000" stroke-miterlimit="10" stroke-width=".75"/><path d="m691.5 586.5v19l20 1v-20z" fill="none" stroke="#000" stroke-miterlimit="10" stroke-width=".75"/><path d="m715.5 579.5v29l27 3v-32z" fill="none" stroke="#000" stroke-miterlimit="10" stroke-width=".75"/><path d="m742.5 611.5 37-3v-32l-37 3" fill="none" stroke="#000" stroke-miterlimit="10" stroke-width=".75"/><path d="m718.5 604.5v-20c1-1 2-3 2-3h19c0 1 1 2 1 2v23 1c-1 0-1 2-1 2l-20-2c1-2-1-3-1-3" fill="none" stroke="#000" stroke-miterlimit="10" stroke-width=".75"/><path d="m779.5 576.5-17-2" fill="none" stroke="#000" stroke-miterlimit="10" stroke-width=".75"/><path d="m715.5 579.5 15.94-4" fill="none" stroke="#000" stroke-miterlimit="10" stroke-width=".75"/><path d="m311.5 599.5 21-4" fill="none" stroke="#000" stroke-miterlimit="10" stroke-width=".75"/><path d="m342.5 597.5h2s22-1 22-1l4-271c-.64-.35-1.31-.69-2-1-7.22-3.27-14.55-2.99-20-2l-.02 1.1-5.98 272.9v1s-9 0-10-1l5.73-268.62c.71-.15 1.47-.28 2.27-.38 2.64-.33 5.01-.24 7 0l.89.33" fill="none" stroke="#000" stroke-miterlimit="10" stroke-width=".75"/><path d="m178.5 602.5 33-1-1 32-33 3 1-34h-17l-1 34h17.5" fill="none" stroke="#000" stroke-miterlimit="10" stroke-width=".75"/><path d="m211 631h16v-31h-21l5 2z"/><path d="m292.14 481.77-.14 34.23s6.29-1.29 7-2c1-1 1-33.61 1-33.61z" fill="#1a1a1a"/><path d="m299 513-3 105h-7l3-103z" fill="#1a1a1a"/><path d="m257 511-3 107h-6l2-106z" fill="#1a1a1a"/><path d="m258 489-1 22-7 1 1-22.81z" fill="#1a1a1a"/><path d="m421 276v7l8 1v19l6 1v-19l8 1v-7z"/><path d="m481 286 20 3v6l-14-2v4l14 2v5l-14-2v5l14 2v5l-20-3z"/><path d="m506 315v-25h4l11 16v-14l5 1v25h-4l-11-17v15z"/><path d="m554 298v24l5 1v-25z"/><path d="m563 299 1 24 4 1v-15l9 16h4v-23l-5-1 1 14-9-15z"/><path d="m585 303 1 23 17 2v-5l-12-2v-3l12 1v-5l-13-1v-4l13 1v-5z"/><path d="m607 306 1 23 17 2v-5l-13-1v-4l12 1v-5l-12-1v-3l12 1v-6z"/><path d="m649 312v23l5 1v-23z"/><path d="m657 314 1 22 4 1v-12l7 13h5v-22l-5-1v11l-7-12z"/><path d="m740 327v21l14 2v-5l-9-1v-17z"/><path d="m757 330v21l15 2v-6l-10-1v-15z"/><path d="m391 272 11 28h5l11-24-7-1-6 12-5-14z"/><path d="m774 333 13 1v5l-9-1v4h9v4l-9-1v4l10 1v5l-14-2z"/><path d="m805 337 13 2v5l-9-1v3l9 1v5l-9-1v3l9 1v4l-13-1z"/><path d="m456 301c-.54 2.32 1.63 4.77 4 5 1.4.14 3.12-.47 4-2 .71-1.23.7-2.78 0-4-1.22-2.12-3.81-2.01-4-2-1.69.1-3.58 1.2-4 3z"/><path d="m388 283c-.38-1.88-2.49-10.83-10-13-1.22-.35-5.31-1.31-9 1-4.93 3.09-5.04 9.43-5 11 .19 7.33 6.2 11.47 7 12 1.13.75 6.96 4.62 12 2 3.7-1.92 4.8-6.22 5-7 .66-2.58.26-4.69 0-6z"/><path d="m371 281c-.22 2.57 1.04 4.51 2 6 1.05 1.63 1.7 2.63 3 3 2.03.58 3.9-.91 4-1 2.49-2.05 2.2-6.32 1-9-.51-1.15-1.57-3.51-4-4-1.92-.38-3.92.55-5 2-.84 1.12-.94 2.31-1 3z" fill="#fff" stroke="#000" stroke-miterlimit="10"/><path d="m729 346c.7.21 2.31.68 4 0 1.49-.6 2.25-1.78 3-3 2.26-3.65 2.04-7.39 2-8-.1-1.38-.27-3.77-2-6-1.36-1.76-2.03-2.55-3-3-1.63-.75-4.2-1.48-6-1-2.28.6-3.41 2.85-4 4-2.06 4.06-1.53 9.3 1 13 .67.98 2.21 3.17 5 4z"/><path d="m727 333c-.91 2.18-.26 4.19 0 5 .37 1.15.77 2.38 2 3 .91.45 2.07.48 3 0 1.56-.81 1.83-2.73 2-4 .11-.78.42-3.03-1-5-.4-.55-1.5-2.09-3-2-1.79.1-2.76 2.44-3 3z" fill="#fff"/><path d="m719 331c.13-.69.23-1.75 0-3-.07-.39-.63-3.18-3-5-2.85-2.19-7.49-2.36-10 0-1.78 1.67-1.88 4.03-2 7-.06 1.57-.17 5.22 2 9 1.05 1.84 2.32 4.05 5 5 1.98.7 5.06.84 7-1 1.65-1.56 1.9-4 2-5 .08-.82.05-1.52 0-2h-5c-.02.28-.14 1.38-1 2-.98.71-2.31.37-3 0-2.61-1.39-3.09-6.84-1-9 .23-.24.94-.98 2-1 .18 0 1.42-.01 2 1 .53.93 1.04 1.92 1 2z"/><path d="m628 309 11 1c.5.17 1.23.46 2 1 1.76 1.23 2.51 2.89 3 4 .45 1.02 1.19 2.71 1 5-.21 2.5-1.41 4.25-2 5 .35.29.68.62 1 1 2.35 2.8 2.17 6.47 2 8l-6-1v-4c-.2-1.13-.68-1.71-1-2-1-.92-2.51-.95-5-1-.41-.01-.76 0-1 0v6h-5z"/><path d="m638 320h-5v-4h4c1.61-.09 2.86.89 3 2 .08.67-.22 1.56-1 2z" fill="#fff"/><path d="m359 277c.01-.23.01-.58 0-1-.04-1.45-.18-6.02-3-9-2.54-2.69-6.15-2.89-8-3-1.27-.07-7.6-.43-11 4-1.91 2.49-1.95 5.27-2 8-.04 2.39-.12 7.01 3 11 3.39 4.34 9.9 7.08 13 5 .46-.31.78-.68 1-1v2h7v-14l-10-1v5h2c-.26.54-.86 1.58-2 2-2.25.82-4.57-1.56-5-2-1.67-1.71-2.59-4.38-2-7 .11-.5 1.07-4.52 4-5 2.33-.38 5.13 1.61 6 5z"/><path d="m549 305c.07-1.03.06-2.99-1-5-2.15-4.06-6.76-4.85-8-5-.66-.08-4.77-.54-8 2-5.16 4.06-5.22 13.54-1 19 3.26 4.22 9.86 7.05 13 5 .36-.23.7-.55 1-1v2h5v-14l-10-1v5h5c-.12.52-.37 1.3-1 2-1.47 1.64-4.16 1.91-6 1-2.61-1.29-2.84-4.67-3-6-.48-3.9 1.41-8.83 4-9 1.82-.12 3.75 2.11 5 5z"/><path d="m687 326c-.09-1.4-.87-2.57-2-3-.19-.07-1.09-.39-2 0-1.47.64-1.79 2.64-2 4-.18 1.13-.59 3.76 1 6 .44.62 1.58 2.22 3 2 .9-.14 1.78-.99 2-2 .09-.41.05-.76 0-1h-3v-3h8v12h-4v-2c-.21.33-.52.72-1 1-2.17 1.25-5.97-.83-8-3-4.7-5.02-2.29-13.02-2-14 .57-1.9 1.17-3.8 3-5 2.7-1.78 6.88-1.27 9 1 1.68 1.8 1.89 4.5 2 6 .06.83.04 1.52 0 2h-4z"/><path d="m803 344c.03-.39.22-4.46-3-7-2.12-1.67-5.53-2.53-8-1-2.38 1.47-2.71 4.41-3 7-.18 1.65-.84 7.49 3 11 1.9 1.74 5.32 3.29 7 2 .38-.29.83-.84 1-2v3h3v-11h-6v3h2c-.09 1.57-.96 2.79-2 3-1.39.28-2.53-1.34-3-2-1.39-1.97-1.1-4.19-1-5 .13-1.04.42-3.28 2-4 .13-.06 1.12-.49 2 0 .86.49 1.3 1.7 1 3z"/><path d="m562 327h4v10h-4z"/><path d="m670 341h4v11h-4z"/><path d="m623 334v11h4v-2l4-2 3 5h5l-5-7 6-3h-7l-6 3v-5z"/><path d="m648 338v10h3v-2l3-2 4 6h4l-5-8 5-3h-6l-5 3v-4z"/><path d="m581.58 328.77s-.99-.1 1.99.21 4.87 1.51 5.76 2.61.79 2.09.68 3.09c-.1.99-.21 1.99-.41 3.98-.21 1.99-4.19 1.57-4.19 1.57-2.98-.31-7.96-.83-7.96-.83l-.99-.1 1.14-10.94z"/><path d="m581 331-1 6h5c.28-.19.68-.5 1-1 .76-1.18.76-2.82 0-4-.32-.5-.72-.81-1-1z" fill="#fff"/><path d="m601 338c.06.69.35 2.76 2 4 .78.58 1.53.72 3 1 1.64.31 3.19.6 5 0 .71-.23 2.03-.67 3-2 .87-1.19.98-2.45 1-3v-5h-4c.03.48.05 1.17 0 2-.13 2.2-.2 3.29-1 4-1.02.9-2.95.91-4 0-.26-.23-.72-.73-1-3-.15-1.19-.25-2.9 0-5h-4z"/><path d="m979.5 379.5 35 5 2 41-35-4z" fill="none" stroke="#000" stroke-miterlimit="10" stroke-width=".75"/><path d="m1070.21 430.41c-5.62-.39-27.71-1.91-27.71-1.91s-1.59-33.48-1.94-40.66c6.78 1.13 27.94 4.66 27.94 4.66l3 38s-.47-.03-1.29-.09z" fill="none" stroke="#000" stroke-miterlimit="10" stroke-width=".75"/><path d="m1083.5 394.5 29 2 2 37-27-1" fill="none" stroke="#000" stroke-miterlimit="10" stroke-width=".75"/><path d="m1126.5 399.5 23 3 3 36-22-2" fill="none" stroke="#000" stroke-miterlimit="10" stroke-width=".75"/><path d="m1165.5 405.5 22 3 2 33h-20" fill="none" stroke="#000" stroke-miterlimit="10" stroke-width=".75"/><path d="m838.5 525.28 46 .22 2.28 67.74" fill="none" stroke="#000" stroke-miterlimit="10" stroke-width=".75"/><path d="m768.5 490.5c16.62-2.85 34.68-4.72 54-5 3.38-.05 6.71 0 10 0 3 0 5 4 5 4l-1 45c-1 4-4 5-4 5h-16l-2 3h-9l-2 2s-37 1-39 0-2-1-2-1" fill="none" stroke="#000" stroke-miterlimit="10" stroke-width=".75"/><path d="m971 588c.33 1.33 1.1 3.68 3 6 1.9 2.33 3.98 3.46 5 4 2.76 1.46 5.34 1.88 7 2h9 1c-.67-.27-1.34-.6-2-1-5.39-3.23-7.31-9.16-8-12h-6l1 4-2-3h-7z"/><path d="m990 563c1.03-.67 5.24-3.26 10-2 5.62 1.49 7.91 7.25 9 10 1.92 4.84 1.45 9 1 13-.39 3.4-1.06 8.7-5 13-.4.43-.75.77-1 1 .51-.87 1.27-2.24 2-4 1.37-3.28 5.31-12.71 1-21-.81-1.55-2.74-5.14-7-7-5.07-2.22-9.88-.45-11 0z"/><path d="m857 566c6.02-1.37 9.61.24 11 1 8.58 4.71 9.98 19.45 5 29-2.12 4.07-5.11 6.62-7 8 .84-1.33 1.99-3.37 3-6 1.67-4.37 4.93-12.86 1-20-4.12-7.5-13.57-8.82-15-9z"/><path d="m840 595c-.24.95-1.05 4.65 1 8 .37.6 1.26 2.03 3 3 1.01.57 1.98.8 4 1 3.78.38 7.98.34 8 0 .01-.15-2.16-.07-4-1-3.17-1.6-4.48-5.75-5-10z"/><path d="m839.27 595c-.82-.08-5.72-.55-5.72-.55-.25 2.61 1.05 6.25 1.05 6.25l2.94 3.8 4.01 1.26 2.45.24-3.84-3c-1.39-2.77-1.71-8.07-1.71-8.07"/><path d="m839.5 498.5 36 1 1 23-37.91.9-.59 1.6 46.5.5-1-27h21l1.5 25.5 153-1-3-20-2-14-2.07.45-84.93-3.45h-21l-103.5-1.57c-3.5-.43-3.04 5.78-3.04 5.78z"/><path d="m909.5 489.5 2 30h29l-4-30z" fill="#fff"/><path d="m940.5 489.5 3 30h27l-4-29z" fill="#fff"/><path d="m970.5 490.5 3 29h25l-4-29z" fill="#fff"/><path d="m998.5 490.5 3 29h23l-3-29z" fill="#fff"/><path d="m1024.5 490.5 3 29h25l-4-28z" fill="#fff"/><path d="m890 502 4.57 90.61 4.75-.38-5.17-93.73h-4.15z"/><path d="m786 577h19c-2 1-8 2-8 2l-17.5.5v-2.5z"/><path d="m769 562.11h38l-3 1.57h-33z"/><path d="m768 569.97h36l-2.84.86h-31.27z"/><path d="m768 566.11h38l-3 1.57h-33z"/><circle cx="813" cy="570" r="3"/><circle cx="821" cy="568" r="3"/><circle cx="827.5" cy="564.5" r="1.5"/><path d="m934 580h2v2h-2z"/><path d="m964 578h3v3h-3z"/><path d="m1024 558h3v1h-3z"/><path d="m1055 558h2v1h-2z"/><path d="m982 561h2v2h-2z"/><path d="m914 563h3v3h-3z"/><path d="m846 529h11v17h-11z" fill="none" stroke="#000" stroke-miterlimit="10"/><path d="m907.22 548.63 1.78.17 151.5-5.32v6.2l-151.5 5.32h-1.59" fill="none" stroke="#000" stroke-miterlimit="10" stroke-width=".5"/><path d="m885.55 556.5-44.05 2v-6l43.85-1.74" fill="none" stroke="#000" stroke-miterlimit="10" stroke-width=".5"/><path d="m673.5 449.5h33l-8-12v-2l-.92-32" fill="none" stroke="#000" stroke-miterlimit="10" stroke-width=".75"/><path d="m669.5 458.5h37v-4-5" fill="none" stroke="#000" stroke-miterlimit="10" stroke-width=".75"/><path d="m675 454 31 1h-28z"/><path d="m714.5 443.22 7.5 8.78-2 6h-5z"/><path d="m721.5 451.66h6.5" fill="none" stroke="#000" stroke-miterlimit="10" stroke-width=".75"/><path d="m798.5 464.5-38.8-3" fill="none" stroke="#000" stroke-miterlimit="10" stroke-width=".75"/><path d="m720.5 458.5h6 1.57" fill="none" stroke="#000" stroke-miterlimit="10" stroke-width=".75"/><path d="m762 458 24.04 1.27 13.96.73z"/><path d="m287.1 482.8-3.1 135.2" fill="none" stroke="#1a1a1a" stroke-miterlimit="10" stroke-width=".75"/><path d="m247.13 490.98-3.63 127.52" fill="none" stroke="#1a1a1a" stroke-miterlimit="10" stroke-width=".75"/><path d="m152.95 509.61 5.26-1.05-4.21 109.44h-6z" fill="#1a1a1a"/><path d="m150.01 510.2-6.01 107.8" fill="none" stroke="#1a1a1a" stroke-miterlimit="10" stroke-width=".75"/><path d="m174.5 585.5h-16l2-41 14-2" fill="none" stroke="#1a1a1a" stroke-miterlimit="10" stroke-width=".75"/><path d="m334.14 519.5-30.64 5-2 55 31.4-1.79" fill="none" stroke="#1a1a1a" stroke-miterlimit="10" stroke-width=".75"/><path d="m245.5 531.5-21 3-1 47 21.11-2" fill="none" stroke="#1a1a1a" stroke-miterlimit="10" stroke-width=".75"/><path d="m1090.06 476.72 8.44 100.78" fill="none" stroke="#1a1a1a" stroke-miterlimit="10" stroke-width=".75"/><path d="m1140.5 574.5-7.78-95.9" fill="none" stroke="#1a1a1a" stroke-miterlimit="10" stroke-width=".75"/><path d="m1086 476.54 8 100.46h-7l-5.95-100.46z" fill="#1a1a1a"/><path d="m1128.36 478.41 7.64 96.59-3-1-8.12-95.59" fill="#1a1a1a"/><path d="m1044.42 579.86 100.08-5.36 64-4" fill="#1a1a1a"/><path d="m1010 592 200-15" fill="none" stroke="#1a1a1a" stroke-miterlimit="10" stroke-width=".75"/><path d="m636 607c4.58-.37 9.16-.64 13.74-.88 4.58-.25 9.16-.41 13.75-.62 4.58-.13 9.17-.3 13.75-.39l6.88-.11c2.29 0 4.59-.04 6.88-.01-2.29.2-4.58.33-6.87.49l-6.87.39c-4.58.25-9.16.41-13.75.61-4.58.12-9.17.3-13.75.38-4.58.11-9.17.18-13.76.14z" fill="#1a1a1a"/><path d="m311.5 618h-84.5" fill="none" stroke="#1a1a1a" stroke-miterlimit="10" stroke-width=".75"/><path d="m116.5 616.5c3.72-.03 7.43.02 11.15.09 3.71.06 7.43.19 11.14.29l11.13.46c3.71.19 7.42.38 11.13.66-3.72.03-7.43-.02-11.15-.09l-11.14-.29c-3.71-.16-7.42-.28-11.13-.46s-7.42-.38-11.13-.66z" fill="#1a1a1a"/><path d="m93.5 605.5v16l23-1v-16z" fill="none" stroke="#1a1a1a" stroke-miterlimit="10" stroke-width=".75"/><path d="m93.5 621.5-6-1v-15h6.79" fill="none" stroke="#1a1a1a" stroke-miterlimit="10" stroke-width=".75"/><path d="m87.5 605.5 9-2.82" fill="none" stroke="#1a1a1a" stroke-miterlimit="10" stroke-width=".75"/><path d="m576.5 57.5c1.22 2.27 2.37 4.57 3.51 6.88s2.22 4.64 3.33 6.96c1.06 2.35 2.14 4.68 3.17 7.04s2.05 4.72 2.99 7.12c-1.22-2.27-2.37-4.57-3.51-6.88s-2.22-4.64-3.33-6.96c-1.05-2.35-2.14-4.68-3.17-7.04s-2.05-4.72-2.99-7.12z"/><path d="m674.5 89.5c-.69 2.14-1.46 4.25-2.23 6.36-.78 2.11-1.61 4.19-2.42 6.28-.86 2.07-1.69 4.16-2.58 6.22s-1.79 4.12-2.77 6.14c.69-2.14 1.45-4.25 2.23-6.36s1.61-4.19 2.42-6.28c.86-2.07 1.69-4.16 2.58-6.22s1.79-4.11 2.77-6.14z"/><path d="m695.5 76.5c-.1 1.94-.27 3.86-.47 5.79-.18 1.93-.42 3.84-.66 5.76-.26 1.92-.52 3.83-.84 5.74-.31 1.91-.63 3.82-1.04 5.71.1-1.94.27-3.86.46-5.79.18-1.93.42-3.84.66-5.76.26-1.92.52-3.83.84-5.74s.65-3.81 1.05-5.71z"/><path d="m1172.5 256.5c1.78 1.56 3.49 3.17 5.2 4.8 1.71 1.62 3.37 3.29 5.06 4.94 1.65 1.69 3.31 3.35 4.94 5.06 1.62 1.71 3.24 3.43 4.8 5.2-1.78-1.56-3.49-3.17-5.2-4.8-1.71-1.62-3.37-3.29-5.06-4.94-1.64-1.69-3.32-3.35-4.94-5.06-1.63-1.71-3.24-3.42-4.8-5.2z"/><path d="m1194.5 250.5c1.95 1.81 3.83 3.68 5.71 5.55s3.71 3.79 5.56 5.69c1.81 1.94 3.65 3.85 5.44 5.81s3.57 3.92 5.29 5.95c-1.95-1.81-3.83-3.68-5.71-5.55-1.88-1.88-3.71-3.79-5.56-5.69-1.81-1.94-3.65-3.85-5.44-5.81s-3.57-3.93-5.29-5.95z"/><path d="m1235.5 266.5c1.44 1.05 2.82 2.16 4.19 3.28 1.38 1.12 2.72 2.27 4.06 3.43 1.33 1.17 2.65 2.35 3.94 3.56s2.58 2.43 3.81 3.72c-1.44-1.05-2.82-2.16-4.19-3.28-1.38-1.12-2.72-2.27-4.06-3.44-1.33-1.17-2.65-2.35-3.94-3.57-1.29-1.2-2.58-2.42-3.81-3.7z"/><path d="m279.5 72.5c2.58-2.11 5.2-4.17 7.84-6.22 2.62-2.06 5.3-4.05 7.94-6.07l-.15.29c-.02-2.83.03-5.67.04-8.5 0-2.83.09-5.67.14-8.5l.29.17c-1.7.95-3.39 1.91-5.1 2.83 1.62-1.08 3.26-2.12 4.9-3.17l.29-.19.01.35c.04 2.83.14 5.67.14 8.5.01 2.83.05 5.67.04 8.5v.19l-.15.11c-2.69 1.97-5.34 3.99-8.06 5.93-2.71 1.95-5.42 3.89-8.17 5.78z"/><path d="m246.5 102.5c1.55-1.63 3.14-3.21 4.77-4.76 1.61-1.57 3.25-3.1 4.91-4.6l-.16.36c-.03-2.83.01-5.67.07-8.5.1-2.83.19-5.67.42-8.5.23 2.83.32 5.67.42 8.5.06 2.83.1 5.67.07 8.5v.22l-.16.14c-1.67 1.49-3.37 2.96-5.09 4.4-1.73 1.45-3.46 2.87-5.25 4.24z"/><path d="m872.5 362.29 29 4.21 3 45-30.01-1.83" fill="none" stroke="#000" stroke-miterlimit="10" stroke-width=".75"/><path d="m937.5 373.5 21 4 3 42-21-1" fill="none" stroke="#000" stroke-miterlimit="10" stroke-width=".75"/><path d="m932.43 480.57v-11.07" fill="none" stroke="#000" stroke-miterlimit="10" stroke-width=".75"/><path d="m923.94 332.23 4.56 118.27 11 12" fill="none" stroke="#000" stroke-miterlimit="10" stroke-width=".75"/><path d="m917.5 189.5 5 115v11l9 10" fill="none" stroke="#000" stroke-miterlimit="10" stroke-width=".75"/><path d="m943 337-4-3v-7l-3-1.5-.94-5.5 7.94 9z"/><path d="m948.5 469.5 1-3 1-4-8-8v4l.5 6z"/><path d="m957.64 338.96.86 8.54-22.22-4.27" fill="none" stroke="#000" stroke-miterlimit="10" stroke-width=".75"/><path d="m870.05 330.82 29.45 3.68v-6" fill="none" stroke="#000" stroke-miterlimit="10" stroke-width=".75"/><path d="m919.55 331.5-.05 8 5 1.07" fill="none" stroke="#000" stroke-miterlimit="10" stroke-width=".75"/><path d="m1043.44 474.67 1.06 8.83" fill="none" stroke="#000" stroke-miterlimit="10" stroke-width=".75"/><path d="m983.21 472.03.65 9.88" fill="none" stroke="#000" stroke-miterlimit="10" stroke-width=".75"/><path d="m987.5 482.01v-6.51l33 1v7" fill="none" stroke="#000" stroke-miterlimit="10" stroke-width=".75"/><path d="m943.13 474 23.37.5v6.96" fill="none" stroke="#000" stroke-miterlimit="10" stroke-width=".75"/><path d="m973.12 471.58v10.33h6.38v-10.05z" fill="#1a1a1a"/><path d="m1028.13 474 .61 9.5h5.26l-1-9.5z" fill="#1a1a1a"/><path d="m860.5 101.5 34 65-53.5-31.5 46 25-27-59z"/><path d="m821 141 5 2 33-42-38.5 40.5"/><path d="m817.5 120.5c.36 1.35.64 2.72.91 4.08.28 1.36.49 2.74.71 4.11.2 1.38.4 2.75.54 4.14.15 1.38.29 2.77.34 4.17-.36-1.35-.64-2.72-.91-4.08-.28-1.36-.49-2.74-.71-4.11-.2-1.38-.4-2.75-.54-4.14-.15-1.39-.28-2.77-.34-4.17z"/><path d="m363 110 4.07-.21 224.93-11.79-3 1z"/><path d="m593 99 72 21-27-7z"/><path d="m667 119 25-13-1 1-23 12z"/><path d="m694 107 134 45-121-40z"/><path d="m971 216 223 65-185-53-39-12z"/><path d="m1196 281 22-3-21 4z"/><path d="m1222 279 108 35-107-34z"/><path d="m116 289 240-179-239 179z"/><path d="m583.5 106.5.38 15.25.25 15.25.5 30.5.5 30.5.25 15.25.12 15.25-.37-15.25-.25-15.25-.5-30.5-.5-30.5-.25-15.25z"/><path d="m590.5 237.5c.62 2.04 1.13 4.11 1.63 6.17.51 2.07.94 4.15 1.36 6.23.41 2.09.81 4.17 1.14 6.27l.49 3.15c.13 1.06.29 2.11.38 3.17-.32-1.02-.58-2.05-.87-3.08l-.76-3.1c-.51-2.07-.94-4.15-1.36-6.23-.4-2.09-.81-4.17-1.14-6.27-.33-2.08-.66-4.19-.87-6.31z"/><path d="m404.5 116.5.13 14v14 28 28 14l-.13 14-.12-14v-14-28-28-14z"/><path d="m849.5 178.5v19l35 10" fill="none" stroke="#000" stroke-miterlimit="10"/><path d="m930.5 202.5 18 4v19l-18.55-4.04" fill="none" stroke="#000" stroke-miterlimit="10"/><path d="m931.35 248.5 21.15 5 2 42-21-5" fill="none" stroke="#000" stroke-miterlimit="10"/><path d="m711.5 586.5 3.97-1.77" fill="none" stroke="#000" stroke-miterlimit="10"/><path d="m711.5 606.5 3.97-2.5" fill="none" stroke="#000" stroke-miterlimit="10"/><path d="m691.5 586.5 11.93-5" fill="none" stroke="#000" stroke-miterlimit="10"/><path d="m136.5 549.5-2 38h10l-8-2 3-36z"/><path d="m162 308 3-49 3-4-1.19 50.72z"/><path d="m52 314 34-25-30 21z"/><path d="m89 287 24 2-22-1z"/><path d="m982.5 262.5c.17 2.91.32 5.83.44 8.74l.31 8.75.19 8.75c.05 2.92.07 5.84.06 8.76-.18-2.91-.33-5.83-.44-8.74l-.31-8.75-.19-8.75c-.05-2.92-.07-5.84-.06-8.76z"/><path d="m993.5 265.5c.26 2.83.49 5.66.69 8.49l.56 8.5.44 8.5c.13 2.84.23 5.67.31 8.51-.26-2.83-.49-5.66-.69-8.49l-.56-8.5-.44-8.5c-.13-2.83-.23-5.67-.31-8.51z"/><path d="m939.5 253.5c.26 2.99.49 5.99.69 8.99l.56 9 .44 9c.13 3 .23 6.01.31 9.01-.26-2.99-.49-5.99-.69-8.99l-.56-9-.44-9c-.13-3-.23-6-.31-9.01z"/><path d="m865.5 232.5c.26 3.33.49 6.66.69 9.99l.56 10 .44 10c.13 3.34.23 6.67.31 10.01-.26-3.33-.49-6.66-.69-9.99l-.56-10-.44-10c-.13-3.34-.23-6.67-.31-10.01z"/><path d="m879.5 236.5c.26 3.25.49 6.49.69 9.74l.56 9.75.44 9.75c.13 3.25.23 6.51.31 9.76-.26-3.25-.49-6.49-.69-9.74l-.56-9.75-.44-9.75c-.13-3.25-.23-6.51-.31-9.76z"/><path d="m809.5 217.5c.26 3.41.49 6.83.69 10.24l.56 10.25.44 10.25c.13 3.42.23 6.84.31 10.26-.26-3.41-.49-6.83-.69-10.24l-.56-10.25-.44-10.25c-.13-3.42-.23-6.84-.31-10.26z"/><path d="m793.5 212.5c.26 3.66.49 7.33.69 10.99l.56 11 .44 11c.13 3.67.23 7.34.31 11.01-.26-3.66-.49-7.33-.69-10.99l-.56-11-.44-11c-.13-3.67-.23-7.34-.31-11.01z"/><path d="m728.5 195.5c.17 3.91.32 7.83.44 11.75l.31 11.75.19 11.75c.05 3.92.07 7.84.06 11.75-.18-3.91-.33-7.83-.44-11.75l-.31-11.75-.19-11.75c-.05-3.91-.07-7.83-.06-11.75z"/><path d="m710.5 191.5c.26 3.91.49 7.83.69 11.74l.56 11.75.44 11.75c.13 3.92.23 7.84.31 11.76-.26-3.91-.49-7.83-.69-11.74l-.56-11.75-.44-11.75c-.13-3.92-.23-7.84-.31-11.76z"/><path d="m718.04 137 1.27 25.26" fill="none" stroke="#000" stroke-miterlimit="10"/><path d="m797.86 158.69 1.29 24.44" fill="none" stroke="#000" stroke-miterlimit="10"/><path d="m867.5 202.5-1-19" fill="none" stroke="#000" stroke-miterlimit="10"/><path d="m1041.5 251.7-1.07-11.69" fill="none" stroke="#000" stroke-miterlimit="10"/><path d="m1052.5 315.5c-.26-2.99-.49-5.99-.69-8.99l-.56-9-.44-9c-.13-3-.23-6.01-.31-9.01.26 2.99.49 5.99.69 8.99l.56 9 .44 9c.13 3 .23 6 .31 9.01z"/><path d="m1090.5 322.5c-.34-2.66-.66-5.32-.94-7.98l-.81-7.99-.69-8.01c-.22-2.67-.4-5.34-.56-8.02.34 2.66.66 5.32.94 7.98l.81 7.99.69 8.01c.22 2.67.4 5.34.56 8.02z"/><path d="m1086.8 264.14-.87-11.08" fill="none" stroke="#000" stroke-miterlimit="10"/><path d="m1127.8 276.8-1.28-12.09" fill="none" stroke="#000" stroke-miterlimit="10"/><path d="m1133.17 335.04c-.36-2.88-.7-5.77-1.01-8.65l-.88-8.67-.76-8.68c-.24-2.89-.45-5.79-.63-8.69.37 2.88.7 5.77 1.01 8.65l.88 8.67.76 8.68c.24 2.89.45 5.79.63 8.69z"/><path d="m1165.89 341.87c-.37-2.6-.72-5.21-1.04-7.82l-.91-7.84-.79-7.85c-.25-2.62-.47-5.24-.66-7.86.37 2.6.72 5.21 1.04 7.82l.9 7.84.79 7.85c.26 2.61.48 5.24.67 7.86z"/><path d="m1164.2 286.81-1.7-10.31" fill="none" stroke="#000" stroke-miterlimit="10"/><path d="m1136.55 376.34v-6.23" fill="none" stroke="#000" stroke-miterlimit="10"/><path d="m1173.5 383.86v-7.32" fill="none" stroke="#000" stroke-miterlimit="10"/><path d="m1095.5 369.5v-6.54" fill="none" stroke="#000" stroke-miterlimit="10"/><path d="m1050.5 362.5v-7.37" fill="none" stroke="#000" stroke-miterlimit="10"/><path d="m995.5 352.07-.71-6.64" fill="none" stroke="#000" stroke-miterlimit="10"/><path d="m878.81 331.92v-6.92" fill="none" stroke="#000" stroke-miterlimit="10"/><path d="m887.5 367.5c.17 3.41.32 6.83.44 10.25l.31 10.25.19 10.25c.05 3.42.07 6.84.06 10.25-.18-3.41-.33-6.83-.44-10.25l-.31-10.25-.19-10.25c-.05-3.41-.07-6.83-.06-10.25z"/><path d="m945.5 376.5c.34 3.33.66 6.65.94 9.99l.81 10 .69 10c.22 3.34.4 6.67.56 10.01-.34-3.33-.66-6.65-.94-9.99l-.81-10-.69-10c-.22-3.33-.4-6.67-.56-10.01z"/><path d="m990.5 383.5c.26 3.16.49 6.33.69 9.49l.56 9.5.44 9.5c.13 3.17.23 6.34.31 9.51-.26-3.16-.49-6.33-.69-9.49l-.56-9.5-.44-9.5c-.13-3.17-.23-6.34-.31-9.51z"/><path d="m1001.5 385.5c.34 2.99.66 5.99.94 8.98l.81 9 .69 9c.22 3 .4 6.01.56 9.02-.34-2.99-.66-5.99-.94-8.98l-.81-9-.69-9c-.22-3.01-.4-6.01-.56-9.02z"/><path d="m1058.5 393.5c.26 2.74.49 5.49.69 8.24l.56 8.25.44 8.25c.13 2.75.23 5.51.31 8.26-.26-2.74-.49-5.49-.69-8.24l-.56-8.25-.44-8.25c-.13-2.75-.23-5.5-.31-8.26z"/><path d="m1101.5 398.5c.42 2.74.82 5.48 1.19 8.23l1.06 8.24.94 8.26c.3 2.75.57 5.51.81 8.27-.43-2.74-.82-5.48-1.19-8.23l-1.06-8.24-.94-8.26c-.3-2.75-.57-5.51-.81-8.27z"/><path d="m1093.5 398.5c.26 2.74.49 5.49.69 8.24l.56 8.25.44 8.25c.13 2.75.23 5.51.31 8.26-.26-2.74-.49-5.49-.69-8.24l-.56-8.25-.44-8.25c-.13-2.75-.23-5.5-.31-8.26z"/><path d="m1142.5 403.5c.34 2.66.66 5.32.94 7.98l.81 7.99.69 8.01c.22 2.67.4 5.34.56 8.02-.34-2.66-.66-5.32-.94-7.98l-.81-7.99-.69-8.01c-.22-2.67-.4-5.34-.56-8.02z"/><path d="m1133.5 404.5c.34 2.49.66 4.98.94 7.48l.81 7.49.69 7.51c.22 2.5.4 5.01.56 7.52-.34-2.49-.66-4.98-.94-7.48l-.81-7.49-.69-7.51c-.22-2.5-.4-5.01-.56-7.52z"/><path d="m1171.5 409.5c.34 2.41.66 4.82.94 7.23l.81 7.24.69 7.26c.22 2.42.4 4.84.56 7.27-.34-2.41-.66-4.82-.94-7.23l-.81-7.24-.69-7.26c-.22-2.42-.4-4.84-.56-7.27z"/><path d="m1179.5 410.5c.26 2.49.49 4.99.69 7.49l.56 7.5.44 7.5c.13 2.5.23 5.01.31 7.51-.26-2.49-.49-4.99-.69-7.49l-.56-7.5-.44-7.5c-.13-2.5-.23-5-.31-7.51z"/><path d="m1091.5 479.5 27 1 1 19h-26z" fill="none" stroke="#000" stroke-miterlimit="10"/><path d="m1095.5 519.5h8.14 19.86l2 38-19.01.7-7.99.3z" fill="none" stroke="#000" stroke-miterlimit="10"/><path d="m1104.5 524.5c.26 2.74.49 5.49.69 8.24l.56 8.25.44 8.25c.13 2.75.23 5.51.31 8.26-.26-2.74-.49-5.49-.69-8.24l-.56-8.25-.44-8.25c-.13-2.75-.23-5.5-.31-8.26z"/><path d="m1114.5 522.5c.26 2.58.49 5.16.69 7.74l.56 7.75.44 7.75c.13 2.59.23 5.17.31 7.76-.26-2.58-.49-5.16-.69-7.74l-.56-7.75-.44-7.75c-.13-2.58-.23-5.17-.31-7.76z"/><path d="m1171.07 480.28 8.5 92.03" fill="none" stroke="#000" stroke-miterlimit="10"/><path d="m1163 481h4l8.32 91.57-5.32-1.57-8-90z"/><path d="m327.5 524.5c-.08 4.17-.18 8.34-.31 12.51l-.44 12.5-.56 12.5c-.2 4.17-.43 8.33-.69 12.49.07-4.17.17-8.34.31-12.51l.44-12.5.56-12.5c.2-4.16.43-8.33.69-12.49z"/><path d="m314.5 531.5c.09 3.42.16 6.83.19 10.25l.06 10.25-.06 10.25c-.03 3.42-.1 6.83-.19 10.25-.09-3.42-.16-6.83-.19-10.25l-.06-10.25.06-10.25c.03-3.42.1-6.83.19-10.25z"/><path d="m234.5 539.5c.09 3.17.16 6.33.19 9.5l.06 9.5-.06 9.5c-.03 3.17-.1 6.33-.19 9.5-.09-3.17-.16-6.33-.19-9.5l-.06-9.5.06-9.5c.03-3.17.1-6.33.19-9.5z"/><path d="m167.5 549.5c-.08 2.67-.18 5.34-.31 8.01l-.44 8-.56 8c-.2 2.66-.43 5.33-.69 7.99.07-2.67.17-5.34.31-8.01l.44-8 .56-8c.2-2.67.43-5.33.69-7.99z"/><path d="m242 439s-14 5-14 4 1-28 1-28h3.04l-1.04 25v1z"/><path d="m276 428-6.72 2.69-3.28 1.31v-15h3v12z"/><path d="m275.5 428.5 13-4" fill="none" stroke="#000" stroke-miterlimit="10" stroke-width=".5"/><path d="m278.5 419.5c.19 1.17.24 2.33.25 3.5-.01 1.17-.05 2.33-.25 3.5-.2-1.17-.24-2.33-.25-3.5.01-1.17.06-2.33.25-3.5z"/><path d="m241.5 415.5c.15 2 .3 4 .25 6v6 12l-.33-.24c1.01-.31 1.99-.71 3.01-.96l3.07-.8-2.93 1.2c-.97.41-1.99.68-2.99 1.04l-.33.12v-.35-12-6c-.05-2.01.1-4.01.25-6.01z"/><path d="m68 460-5 4-2 30 7-3h-5l2-26 3-6"/><path d="m87 454-8 3-2 31 8-3-6 1 2-28z"/><path d="m103 447-5 2-2 34 5-3h-2l2-30z"/><path d="m128 437-10 4-2 35 12-3-10 1 2-31z"/><path d="m150 429-9 3-2 38 11-4-9 2 2-34z"/><path d="m178 417-12 5-2 40 14-6-9 2 2-35z"/><path d="m305.5 480.5v5l26-4v-18" fill="none" stroke="#000" stroke-miterlimit="10" stroke-width=".5"/><path d="m226.8 495.14-.3 7.36 18-4v-6" fill="none" stroke="#000" stroke-miterlimit="10" stroke-width=".5"/><path d="m161.39 507.92.11 5.58 16-3" fill="none" stroke="#000" stroke-miterlimit="10" stroke-width=".5"/><path d="m136.85 513-.35 6.5 13.14-2.68" fill="none" stroke="#000" stroke-miterlimit="10" stroke-width=".5"/><path d="m115.5 517.5v7l10-2" fill="none" stroke="#000" stroke-miterlimit="10" stroke-width=".5"/><path d="m94.5 523.5v4l6-1.21" fill="none" stroke="#000" stroke-miterlimit="10" stroke-width=".5"/><path d="m337.3 371.48-65.8-4.98 30-12 36 5" fill="none" stroke="#000" stroke-miterlimit="10" stroke-width=".75"/><path d="m133.49 514-5.49 103-7.5-.5 6.49-101.7z"/><path d="m90.9 523.5-4.9 92.5h-4l4-90 .13-1.82z"/><path d="m84.6 524.5-5.1 94" fill="none" stroke="#000" stroke-miterlimit="10" stroke-width=".75"/><path d="m64 431v11l5-2h-3v-9z"/><path d="m79 426v9l9-4-7 1v-7-1z"/><path d="m99 416v10l4-1-2-1v-10z"/><path d="m127 411-7 4v-5z"/><path d="m126 409h-6v6l7-4z"/><path d="m895 271s62-6 65-4 5 9 5 9 0 34-2 37-18 4-18 4l-3 3h-9l-3 2s-32 1-35 0-3-2-3-2-2-36 0-41 3-8 3-8z" fill="#e6e6e6" opacity=".52"/></svg>